<?xml version="1.0" encoding="UTF-8"?><svg xmlns="http://www.w3.org/2000/svg" viewBox="0 0 4263.42 2270.88"><defs><style>.cls-1{mix-blend-mode:screen;opacity:.4;}.cls-1,.cls-2,.cls-3{fill:#a9b4d1;}.cls-4{fill:#f9c198;}.cls-5{fill:#f7b977;}.cls-6{fill:#efaa7b;}.cls-7{fill:#eb6c60;}.cls-8{fill:#eb756a;}.cls-9{fill:#e8a364;}.cls-10{fill:#fff;}.cls-11{fill:#7d89ad;}.cls-12{fill:#666;}.cls-13{fill:#b2ced9;}.cls-14,.cls-15,.cls-16{fill:#ccc;}.cls-17{fill:#df5e52;}.cls-18{fill:#cc8e5c;}.cls-19{fill:#cc564b;}.cls-20,.cls-21{fill:#d3daed;}.cls-22{fill:#d6a55c;}.cls-23{fill:#1e1c19;}.cls-24{fill:#212f38;}.cls-25{fill:#405669;}.cls-26{fill:#1c2f3f;}.cls-27{fill:#a1c3cf;}.cls-28{fill:#55728c;}.cls-29{fill:#557fa1;}.cls-30{fill:#4a6d8a;}.cls-31{fill:#2f415b;}.cls-32{fill:#2f3f4d;}.cls-33{fill:#513540;}.cls-34{fill:#c68b63;}.cls-34,.cls-15,.cls-35,.cls-36,.cls-16,.cls-37{mix-blend-mode:multiply;}.cls-35{fill:#f6e3a7;}.cls-16,.cls-37{opacity:.5;}.cls-38,.cls-3{opacity:.38;}.cls-39{opacity:.35;}.cls-40{isolation:isolate;}.cls-21{opacity:.55;}</style></defs><g class="cls-40"><g id="Layer_2"><g id="Layer_1-2"><g><g><g class="cls-39"><g><path class="cls-2" d="M3156.5,2226.06c1.81,1.67,3.51,3.27,5.11,4.8,0,0-84.44,22.13-178.3,25.33h-.03c-10.56-2.5-16.33-5.21-16.33-8.06,0-10.63,80.55-19.56,189.55-22.07Z"/><path class="cls-2" d="M3346.54,2145.58s-2.05,1.49-5.94,3.86c-3.2,1.95-7.61,4.45-13.2,7.19-13.41,6.6-33.46,14.52-59,19.04-7.99,1.42-16.54,2.5-25.61,3.09-50.21,3.34-115.78-8.2-190.28-59.77,11.71,21.93,50.77,58.27,81.73,86.59,2.29,2.09,4.52,4.14,6.67,6.12,5.46,4.97,10.53,9.63,15.01,13.8h-349.78c-4.45-2.43-8.72-5-12.86-7.78-4.73,2.81-9.59,5.42-14.56,7.78h-274.34c-27.45-7.37-44.72-13.66-44.72-13.66,.1-.07,.17-.17,.28-.28,2.05-1.95,4.31-3.96,6.71-5.98,30.96-26.34,87.12-58.9,101.57-86.14-88.92,61.33-173.95,66.34-235.18,56.95h-.03c-56.78-8.72-93.13-29.78-93.13-29.78,13.97-7.89,28.04-16.16,42.08-25.02,46.53-29.33,92.33-65.08,129.72-115.02,.35-.45,.66-.87,.97-1.32,1.6-2.15,3.2-4.34,4.76-6.57,6.57-9.24,12.86-19.01,18.83-29.26,1.46-2.54,2.92-5.14,4.34-7.75,1.63-2.95,3.23-5.94,4.8-9,2.95-5.7,5.8-11.57,8.55-17.58,15.98-34.92,30.27-68.04,42.15-96.6,.9-2.15,1.77-4.27,2.64-6.36,.31-.69,.59-1.39,.83-2.05h.03c7.05-17.1,13.24-32.35,18.31-45.17,2.26-5.7,4.34-10.95,6.15-15.6,.76-1.95,1.46-3.79,2.15-5.56,5.18-13.34,7.99-20.95,7.99-20.95,15.78-25.68,53.41-37.91,98.13-36.42,.76,.03,1.53,.07,2.33,.1,5.8,.24,11.75,.73,17.76,1.42,7.44,.87,15.01,2.12,22.66,3.68,2.95,.63,5.91,1.29,8.86,2.02,2.81,.66,5.63,1.39,8.44,2.19,34.92,9.59,70.33,26.44,100.49,50.7,9.8-7.89,20.15-15.01,30.86-21.34,1.32-.83,2.68-1.6,4.03-2.4,10.84-6.19,22.03-11.57,33.36-16.16,8.9-3.68,17.9-6.85,26.9-9.49,4.55-1.39,9.14-2.64,13.69-3.72,2.95-.73,5.91-1.39,8.86-2.02,8.48-1.77,16.85-3.09,25.05-4,.49-.07,.97-.1,1.46-.14,4.69-.52,9.31-.87,13.86-1.04,.8-.03,1.56-.07,2.33-.1,3.23-.1,6.39-.17,9.52-.14,10.63,.1,20.78,1.01,30.2,2.75,17.24,3.13,32.18,8.93,43.47,17.44,6.15,4.62,11.19,10.01,15.01,16.16,0,0,2.09,5.63,5.98,15.67,.69,1.77,1.42,3.65,2.22,5.7,.31,.87,.69,1.77,1.04,2.71,.35,.9,.73,1.84,1.08,2.81,5.98,15.08,14.28,35.86,24.46,60.32,.28,.66,.56,1.36,.87,2.05,2.61,6.29,5.35,12.79,8.2,19.53,.73,1.7,1.46,3.41,2.19,5.14v.03c2.19,5.14,4.45,10.39,6.78,15.74v.03c5.14,11.85,10.56,24.19,16.23,36.9,3.75,8.37,7.61,16.89,11.57,25.51,1.25,2.74,2.54,5.49,3.86,8.17,5.59,11.54,11.61,22.48,17.93,32.84,1.67,2.75,3.37,5.42,5.07,8.06,3.34,5.18,6.78,10.22,10.32,15.15,.38,.52,.76,1.08,1.18,1.63,9.38,12.96,19.32,25.02,29.71,36.24,1.77,1.91,3.54,3.79,5.32,5.63,3.16,3.3,6.39,6.53,9.63,9.66,4.48,4.38,9,8.58,13.62,12.68,4,3.61,8.03,7.09,12.13,10.49h.03c17.62,14.7,35.93,27.8,54.45,39.79,9.35,6.12,18.73,11.88,28.15,17.44h.03c6.91,4.1,13.8,8.1,20.68,11.95,.8,.49,1.56,.9,2.36,1.36Z"/><path class="cls-2" d="M3176.78,1771.47c-.48-.53-.96-1.07-1.43-1.6-16.67-18.77-31.64-38.54-46.6-60.6-.53-.77-1.05-1.52-1.55-2.31-17.82-26.42-35.7-56.15-56.56-91.29-29.61-49.91-33.42-98.14-33.42-98.14l-50.56-66.37-22.59-29.67-42.26-55.49-1.31-1.75-128.21-168.3-127.89,168.57-1.31,1.73-42.16,55.57-22.55,29.69-50.43,66.47s-3.71,48.24-33.23,98.22c-20.78,35.18-38.6,64.92-56.37,91.39-.51,.77-1.03,1.54-1.54,2.29-14.92,22.1-29.85,41.9-46.49,60.7-.47,.53-.94,1.07-1.42,1.6-27.59,30.92-59.99,59.2-104.81,90.6,4.12,13.62,140.93,33.08,178.24-18.11-.6,1.45-38.99,92.67-60.58,97.79,0,0,12.72-1.51,32.17-7.37,29.19-8.78,73.53-27.35,113-65.23,.57-.55,1.15-1.09,1.71-1.64,17.81-17.43,34.57-38.85,48.39-65.17-.23,1-7.5,40.5-15.76,80.67-.16,.78-.33,1.56-.48,2.35-6.51,31.53-13.57,62.97-18.21,76.06,0,0,27.29-13.81,67.57-55.71,.6-.64,1.2-1.28,1.8-1.9,24.55-25.82,53.75-61.98,84.45-111.6-.36,1.13-45.68,167.74-50.45,175.69,0,0,39.71-11.88,81.84-50.5,58.1-53.27,59.85-71.15,71.68-99.63,5.18-9.21,8.74-17.85,9.82-25.41,.04-.14,.06-.25,.05-.26,16.3,52.87,32.09,78.34,68.47,120.42,38.81,44.86,85.67,48.49,85.67,48.49-4.68-13.08-11.8-44.52-18.36-76.03-.16-.76-.32-1.54-.48-2.32-8.34-40.14-15.69-79.66-15.92-80.67,13.88,26.3,30.67,47.68,48.52,65.08,.57,.57,1.13,1.12,1.72,1.67,39.52,37.81,83.91,56.28,113.11,65.01,19.48,5.82,32.19,7.31,32.19,7.31-21.59-5.09-60.16-96.23-60.76-97.67,37.41,51.11,174.17,31.39,178.27,17.78-44.88-31.33-77.32-59.55-104.98-90.42Z"/><path class="cls-2" d="M3011.34,1376.38c-8.88-18.8-17.08-37.18-24.58-54.78-.29-.68-.57-1.34-.86-2.01-30.14-71.02-48.8-128.77-54.59-147.42l-139.04,.14-139.05,.14c-5.75,18.65-24.3,76.43-54.32,147.5-.27,.65-.57,1.33-.85,2.02-7.47,17.6-15.62,36.01-24.47,54.82-48.82,103.88-118.31,220.12-205.13,283.3,0,0,75.79,8.94,146.28-32.08,18.75-10.89,37.14-25.35,53.61-44.41-.26,1.22-17.9,79.66-30.92,97.05,1.36-.57,88.57-37.83,120.46-99.39-.18,1.06-8.15,46.32-18.24,99.18-.18,.94-.36,1.9-.55,2.85-2.18,11.43-4.47,23.2-6.79,34.92-3.09,15.69-6.27,31.27-9.37,45.89,15.95-9.18,34.32-22.16,52.1-40.67,20.79-21.63,40.75-50.88,55.11-90.65,.42-1.13,.82-2.27,1.2-3.4,5.75-16.51,10.53-34.79,14.03-55.02,0,0,13.28,113.95,47.44,177.92,32.9-57.73,47.1-178.01,47.1-178.01,3.54,20.23,8.35,38.51,14.13,54.99,.39,1.13,.79,2.27,1.21,3.39,14.43,39.75,34.47,68.96,55.29,90.57,17.8,18.47,36.19,31.4,52.19,40.56-3.15-14.62-6.34-30.2-9.47-45.85-2.34-11.73-4.66-23.49-6.87-34.92-.18-.96-.37-1.92-.55-2.87-10.2-52.83-18.25-98.08-18.44-99.15,32,61.52,119.28,98.61,120.64,99.16-13.04-17.37-30.83-95.75-31.11-97,16.52,19.05,34.94,33.48,53.69,44.32,70.58,40.9,146.36,31.82,146.36,31.82-86.94-63.01-156.65-179.15-205.66-282.92Z"/><path class="cls-2" d="M3186.06,1422.75s-52.5-66.16-101.54-147.86c-.43-.73-.87-1.46-1.32-2.19-23.32-39.06-45.73-81.53-61.19-121.96l-237.83-637.71-221.69,638.15c-15.38,40.45-37.71,82.96-60.96,122.07-.44,.73-.87,1.46-1.32,2.19-48.87,81.79-101.26,148.04-101.26,148.04,42.75,13.93,89.83-2.61,123.99-20.7,28.45-15.05,47.96-31.16,48.52-31.63-9.31,36.61-118.7,153.42-118.7,153.42,31.85,10.08,78.32-2.46,100.76-15.19,12.28-6.96,23.97-14.76,34.6-23.1,27.28-21.39,50.45-45.26,68.35-66.09,.61-.7,1.21-1.39,1.8-2.11,24.93-29.29,39.09-51.97,39.09-51.97-2.23,12.31-9.29,36.9-17.85,64.59-.29,.93-.58,1.85-.86,2.79-18.16,58.46-42.47,129.42-42.47,129.42,39.06-2.12,103.3-40.5,136.19-93.1,.55-.9,1.11-1.82,1.64-2.71h.01c9.71-16.23,33.79-93.02,35.87-111.18,4.9,25.25,5.86,88.45,23.4,127.3,26.89,59.55,76.74,77.35,115.82,79.39,0,0-24.43-70.91-42.71-129.36-.28-.91-.57-1.84-.86-2.76-8.62-27.69-15.73-52.26-17.97-64.56,0,0,14.19,22.67,39.17,51.89,.6,.69,1.2,1.38,1.8,2.1,17.93,20.78,41.16,44.65,68.48,65.96,10.65,8.32,22.34,16.1,34.65,23.06,22.46,12.68,67.55,23.13,96,6.54,0,0-104.84-108.16-114.21-144.76,.57,.47,20.1,16.56,48.59,31.55,34.2,18.02,81.3,34.46,124.01,20.45Z"/><path class="cls-2" d="M3054.88,1120.22c-.33-.37-.65-.74-.98-1.11-11.51-12.96-21.84-26.6-32.17-41.85-.36-.51-.72-1.05-1.07-1.58-12.29-18.22-24.63-38.75-39.03-63.01-20.44-34.47-23.07-67.77-23.07-67.77l-34.91-45.81-15.58-20.48-29.18-38.3-.9-1.21-88.51-116.19-88.29,116.36-.9,1.2-29.11,38.36-15.55,20.51-34.81,45.89s-2.57,33.29-22.94,67.79c-14.35,24.28-26.65,44.81-38.92,63.1-.36,.53-.72,1.05-1.07,1.58-10.31,15.26-20.62,28.92-32.11,41.91-.31,.37-.63,.74-.97,1.09-19.06,21.36-41.41,40.87-72.35,62.56,2.84,9.39,97.29,22.83,123.04-12.49-.41,.98-26.91,63.96-41.81,67.49,0,0,8.77-1.05,22.2-5.09,20.15-6.05,50.77-18.86,78.01-45.03,.38-.35,.78-.74,1.18-1.13,12.3-12.05,23.87-26.81,33.4-44.99-.16,.69-5.18,27.98-10.89,55.71-.11,.53-.22,1.06-.33,1.6-4.5,21.77-9.37,43.47-12.58,52.51,0,0,18.85-9.54,46.66-38.47,.41-.42,.83-.87,1.25-1.3,16.94-17.84,37.1-42.79,58.29-77.04-.25,.78-52.92,163.24-52.92,163.24,0,0,53.67-27.79,77.39-56.38,26.23-31.61,38.52-69.57,46.68-89.2,3.59-6.37,6.04-12.33,6.79-17.57,.02-.08,.03-.16,.02-.18,11.26,36.52,22.15,54.09,47.27,83.14,26.79,30.97,59.15,33.48,59.15,33.48-3.24-9.02-8.15-30.74-12.69-52.49-.11-.53-.21-1.07-.33-1.6-5.75-27.72-10.82-55.01-10.98-55.68,9.58,18.14,21.17,32.92,33.49,44.92,.4,.37,.8,.76,1.19,1.14,27.29,26.1,57.93,38.85,78.09,44.89,13.45,4.01,22.22,5.04,22.22,5.04-14.92-3.51-41.53-66.44-41.94-67.43,25.82,35.27,120.24,21.67,123.07,12.27-30.99-21.62-53.38-41.11-72.48-62.41Z"/><path class="cls-2" d="M2953.9,776.61c-7.1-15.01-13.65-29.7-19.64-43.77-.23-.54,10.03-1.09,9.8-1.61-24.09-56.74-49.48-102.87-54.11-117.76l-100.6,.09-103.84,.1c-4.59,14.9-26.66,61.07-50.65,117.87-.21,.52,6.81,1.06,6.59,1.59-5.97,14.08-12.49,28.79-19.56,43.82-38.99,82.98-101.78,175.88-171.15,226.35,0,0,60.56,7.15,116.89-25.61,14.97-8.72,29.67-20.26,42.83-35.5-.23,.98-41.5,64.29-51.9,78.2,1.09-.46,97.95-30.88,123.42-80.08-.14,.85-6.51,37.01-14.58,79.24-.14,.76-.28,1.5-.43,2.29-1.75,9.14-3.58,18.54-5.43,27.89-2.48,12.53-5.01,24.98-7.48,36.67,12.75-7.34,27.42-17.7,41.63-32.49,16.59-17.3,32.55-40.65,44.02-72.45,.34-.89,.66-1.79,.97-2.72,4.59-13.18,8.41-27.78,11.19-43.94,0,0,10.62,91.04,37.92,142.15,26.28-46.13,37.63-142.22,37.63-142.22,2.81,16.16,6.66,30.75,11.28,43.93,.31,.91,.63,1.81,.96,2.7,11.53,31.76,27.54,55.12,44.17,72.39,14.23,14.77,28.92,25.08,41.69,32.39-2.5-11.67-5.05-24.11-7.55-36.64-1.88-9.35-3.72-18.75-5.49-27.89-.15-.76-.29-1.53-.44-2.27-8.15-42.23-14.58-78.37-14.72-79.23,25.56,49.16,139.46,84.44,140.54,84.9-10.42-13.88-68.78-82.18-69.01-83.16,13.19,15.23,27.91,26.73,42.9,35.41,56.39,32.67,116.92,25.4,116.92,25.4-69.45-50.34-135.63-143.11-174.8-226.02Z"/><path class="cls-2" d="M3044.85,789.88s-34.07-42.92-65.88-95.93c-.28-.48-.57-.95-.85-1.42-15.14-25.34-29.67-52.9-39.69-79.12l-154.3-413.72-143.83,414c-9.98,26.24-24.46,53.83-39.55,79.19-.3,.48-.57,.95-.85,1.42-31.72,53.06-65.7,96.05-65.7,96.05,27.73,9.04,58.27-1.69,80.44-13.43,18.46-9.76,31.11-20.22,31.48-20.52-6.04,23.76-57.43,107.92-57.43,107.92,15.38-3.52,31.23-9.98,45.79-18.25,7.96-4.51,15.55-9.58,22.45-14.97,17.69-13.89,32.73-29.38,44.34-42.9,.39-.45,.79-.9,1.17-1.36,16.16-19,25.35-33.71,25.35-33.71-1.45,7.98-6.03,23.93-11.58,41.91-.19,.59-.37,1.19-.56,1.79-11.78,37.94-27.54,83.98-27.54,83.98,25.34-1.37,67.01-26.27,88.34-60.41,.36-.59,.72-1.17,1.08-1.76h0c6.29-10.51,10.63-21.87,11.99-33.67,1.37,11.79,5.74,23.13,12.05,33.64h0c.35,.58,.71,1.17,1.08,1.76,21.39,34.09,63.12,58.9,88.46,60.24,0,0-15.86-46.02-27.72-83.92-.18-.61-.36-1.2-.55-1.79-5.6-17.98-10.21-33.92-11.65-41.9,0,0,9.2,14.7,25.4,33.67,.39,.45,.79,.91,1.18,1.36,11.63,13.5,26.7,28.96,44.43,42.8,6.9,5.39,14.5,10.45,22.47,14.94,14.58,8.23,30.43,14.66,45.83,18.16,0,0-51.57-84.07-57.65-107.81,.38,.3,13.05,10.74,31.52,20.45,22.19,11.71,52.76,22.37,80.46,13.29Z"/></g></g><g class="cls-39"><polygon class="cls-20" points="2281.22 1100.18 2281.22 2223.29 229.55 2223.29 229.55 1100.18 1255.37 99.36 2281.22 1100.18"/><g><g class="cls-36"><path class="cls-14" d="M1883.67,1236.85h-346.9v-502.58h346.9v502.58Zm-302.52-44.37h258.15v-413.84h-258.15v413.84Z"/></g><g class="cls-37"><path class="cls-14" d="M1874.16,1227.35h-346.89v-502.59h346.89v502.59Zm-302.52-44.37h258.16v-413.85h-258.16v413.85Z"/></g><rect class="cls-11" x="1571.64" y="769.13" width="258.16" height="413.85"/><rect class="cls-11" x="1594.87" y="789.53" width="210.56" height="369.79"/><g class="cls-38"><polygon class="cls-1" points="1596 789.53 1596 798.05 1806.56 1008.62 1806.56 868.85 1727.24 789.53 1596 789.53"/><polygon class="cls-1" points="1596 852.06 1596 908.53 1806.56 1119.1 1806.56 1062.62 1596 852.06"/><polygon class="cls-1" points="1596 962.79 1596 1055.08 1700.23 1159.32 1792.53 1159.32 1596 962.79"/></g><path class="cls-2" d="M1808.61,1162.49h-216.91v-376.14h216.91v376.14Zm-210.56-6.34h204.22v-363.47h-204.22v363.47Z"/><polygon class="cls-15" points="1829.79 769.13 1611.68 769.13 1571.64 769.13 1571.64 802.06 1571.64 1182.97 1611.68 1182.97 1611.68 802.06 1829.79 802.06 1829.79 769.13"/></g><g><g class="cls-36"><path class="cls-14" d="M992.98,1236.85h-346.9v-502.58h346.9v502.58Zm-302.53-44.37h258.16v-413.84h-258.16v413.84Z"/></g><g class="cls-37"><path class="cls-14" d="M983.48,1227.35h-346.9v-502.59h346.9v502.59Zm-302.53-44.37h258.16v-413.85h-258.16v413.85Z"/></g><rect class="cls-11" x="680.95" y="769.13" width="258.16" height="413.85"/><rect class="cls-11" x="704.18" y="789.53" width="210.57" height="369.79"/><g class="cls-38"><polygon class="cls-1" points="705.31 789.53 705.31 798.05 915.88 1008.62 915.88 868.85 836.55 789.53 705.31 789.53"/><polygon class="cls-1" points="705.31 852.06 705.31 908.53 915.88 1119.1 915.88 1062.62 705.31 852.06"/><polygon class="cls-1" points="705.31 962.79 705.31 1055.08 809.55 1159.32 901.83 1159.32 705.31 962.79"/></g><path class="cls-2" d="M917.92,1162.49h-216.91v-376.14h216.91v376.14Zm-210.57-6.34h204.23v-363.47h-204.23v363.47Z"/><polygon class="cls-15" points="939.11 769.13 720.99 769.13 680.95 769.13 680.95 802.06 680.95 1182.97 720.99 1182.97 720.99 802.06 939.11 802.06 939.11 769.13"/></g><polygon class="cls-2" points="736.77 546.09 1771.05 561.99 1255.39 61.78 736.77 546.09"/><path class="cls-15" d="M2281.22,1139.07v-38.89l-510.18-497.72v-23.36h-23.95L1255.37,99.36l-491.73,479.74h-26.87v26.21l-507.22,494.86v143.37L844.81,642.66h926.24l510.18,496.41ZM914.06,575.03l390.93-381.65,384.25,368.61-775.18,13.04Z"/><polygon class="cls-11" points="55.69 1271.83 24.72 1240.06 1255.37 40.66 1270.86 87.17 55.69 1271.83"/><polygon class="cls-11" points="2455.04 1271.83 1239.88 87.17 1255.37 40.66 2486.02 1240.06 2455.04 1271.83"/><rect class="cls-11" x="218.17" y="2084.14" width="1037.2" height="139.16"/><rect class="cls-2" x="1255.4" y="1486.89" width="884.65" height="736.4"/><rect class="cls-11" x="1255.37" y="2169.29" width="1031.36" height="54"/><g><g class="cls-36"><path class="cls-14" d="M992.98,1975.28h-346.9v-502.57h346.9v502.57Zm-302.53-44.36h258.16v-413.85h-258.16v413.85Z"/></g><g class="cls-37"><path class="cls-14" d="M983.48,1965.77h-346.9v-502.58h346.9v502.58Zm-302.53-44.37h258.16v-413.84h-258.16v413.84Z"/></g><rect class="cls-11" x="680.95" y="1507.56" width="258.16" height="413.84"/><rect class="cls-11" x="704.18" y="1527.97" width="210.57" height="369.78"/><g><polygon class="cls-3" points="705.31 1527.97 705.31 1536.49 915.88 1747.06 915.88 1607.29 836.55 1527.97 705.31 1527.97"/><polygon class="cls-3" points="705.31 1590.49 705.31 1646.97 915.88 1857.54 915.88 1801.06 705.31 1590.49"/><polygon class="cls-3" points="705.31 1701.22 705.31 1793.51 809.55 1897.75 901.83 1897.75 705.31 1701.22"/></g><path class="cls-2" d="M917.92,1900.93h-216.91v-376.15h216.91v376.15Zm-210.57-6.35h204.23v-363.46h-204.23v363.46Z"/><polygon class="cls-15" points="939.11 1507.56 720.99 1507.56 680.95 1507.56 680.95 1540.5 680.95 1921.4 720.99 1921.4 720.99 1540.5 939.11 1540.5 939.11 1507.56"/></g><g><polygon class="cls-10" points="1871.33 1486.89 1871.33 2169.29 1826.95 2169.29 1826.95 1529.04 1574.46 1529.04 1574.46 2169.29 1530.09 2169.29 1530.09 1486.89 1871.33 1486.89"/><rect class="cls-2" x="1574.46" y="1529.04" width="252.49" height="640.25"/><polygon class="cls-15" points="1809.94 1543.94 1809.94 2169.29 1803.6 2169.29 1803.6 1550.28 1597.66 1550.28 1597.66 2169.29 1591.32 2169.29 1591.32 1543.94 1809.94 1543.94"/><rect class="cls-11" x="1660.1" y="1589.52" width="81.21" height="158.99"/><rect class="cls-11" x="1660.1" y="1769.64" width="81.21" height="159.05"/><rect class="cls-11" x="1660.1" y="1949.79" width="81.21" height="159"/><rect class="cls-2" x="1622.88" y="1815.49" width="12.23" height="81.17"/><polygon class="cls-15" points="1826.95 1529.04 1601.46 1529.04 1574.46 1529.04 1574.46 1556.99 1574.46 2169.29 1601.46 2169.29 1601.46 1556.99 1826.95 1556.99 1826.95 1529.04"/><g><polygon class="cls-3" points="1660.1 1589.52 1660.1 1633.59 1741.3 1714.86 1741.3 1651.85 1678.98 1589.52 1660.1 1589.52"/><polygon class="cls-3" points="1660.1 1782.05 1660.1 1844.98 1741.3 1926.25 1741.3 1863.24 1660.1 1782.05"/><polygon class="cls-3" points="1660.1 1956.93 1660.1 2019.87 1741.3 2101.14 1741.3 2038.12 1660.1 1956.93"/></g></g><rect class="cls-2" x="218.17" y="2059.01" width="1037.21" height="25.14"/><rect class="cls-2" x="1255.37" y="2169.29" width="1031.36" height="13.86"/><polygon class="cls-15" points="2140.03 1486.9 1364.1 1486.89 1364.1 1486.89 1255.37 1486.89 1255.37 1669.07 1255.37 1669.07 1255.37 2223.29 1364.1 2223.29 1364.1 1673.03 2140.03 1701.22 2140.03 1486.9"/><rect class="cls-11" x="736.77" y="546.09" width="1034.28" height="31.78"/><g class="cls-36"><path class="cls-14" d="M2008.76,1118.85v-21.93H536.87v281.49H2008.76v-21.93H562.22v-237.63H2008.76Z"/><g><rect class="cls-14" x="632.58" y="1107.88" width="25.36" height="259.57"/><rect class="cls-14" x="731.81" y="1107.88" width="25.35" height="259.57"/><rect class="cls-14" x="831.04" y="1107.88" width="25.35" height="259.57"/><rect class="cls-14" x="930.27" y="1107.88" width="25.35" height="259.57"/><rect class="cls-14" x="1029.49" y="1107.88" width="25.36" height="259.57"/><rect class="cls-14" x="1128.72" y="1107.88" width="25.36" height="259.57"/><rect class="cls-14" x="1227.95" y="1107.88" width="25.36" height="259.57"/><rect class="cls-14" x="1327.18" y="1107.88" width="25.36" height="259.57"/><rect class="cls-14" x="1426.41" y="1107.88" width="25.36" height="259.57"/><rect class="cls-14" x="1525.64" y="1107.88" width="25.35" height="259.57"/><rect class="cls-14" x="1624.87" y="1107.88" width="25.35" height="259.57"/><rect class="cls-14" x="1724.1" y="1107.88" width="25.35" height="259.57"/><rect class="cls-14" x="1823.33" y="1107.88" width="25.35" height="259.57"/><rect class="cls-14" x="1922.56" y="1107.88" width="25.35" height="259.57"/></g></g><g><path class="cls-11" d="M502,1096.92v281.49H2008.76v-281.49H502Zm1481.41,259.55H527.36v-237.63H1983.41v237.63Z"/><g><rect class="cls-11" x="597.71" y="1107.88" width="25.36" height="259.57"/><rect class="cls-11" x="696.95" y="1107.88" width="25.35" height="259.57"/><rect class="cls-11" x="796.17" y="1107.88" width="25.36" height="259.57"/><rect class="cls-11" x="895.41" y="1107.88" width="25.35" height="259.57"/><rect class="cls-11" x="994.63" y="1107.88" width="25.35" height="259.57"/><rect class="cls-11" x="1093.87" y="1107.88" width="25.35" height="259.57"/><rect class="cls-11" x="1193.09" y="1107.88" width="25.36" height="259.57"/><rect class="cls-11" x="1292.32" y="1107.88" width="25.36" height="259.57"/><rect class="cls-11" x="1391.55" y="1107.88" width="25.35" height="259.57"/><rect class="cls-11" x="1490.78" y="1107.88" width="25.35" height="259.57"/><rect class="cls-11" x="1590.01" y="1107.88" width="25.35" height="259.57"/><rect class="cls-11" x="1689.24" y="1107.88" width="25.36" height="259.57"/><rect class="cls-11" x="1788.48" y="1107.88" width="25.35" height="259.57"/><rect class="cls-11" x="1887.71" y="1107.88" width="25.35" height="259.57"/></g></g><polygon class="cls-16" points="502.02 1378.43 597.71 1426.75 2161.22 1426.75 2161.22 1201.45 2008.76 1096.92 2008.76 1378.43 502.02 1378.43"/><polygon class="cls-2" points="30.97 1254.81 0 1223.04 1255.39 0 1255.39 61.78 30.97 1254.81"/><polygon class="cls-2" points="2479.79 1254.81 2510.77 1223.04 1255.39 0 1255.39 61.78 2479.79 1254.81"/></g><g class="cls-39"><g><path class="cls-2" d="M3960.2,2122.09c9.14,21.16,40,56.5,63.87,83.5,6.53,7.44,12.58,14.21,17.48,19.91h-265.72c-4.86-3.02-9.49-6.36-13.9-10.01-5.07,3.75-10.39,7.09-15.85,10.01h-196.85c-25.75-8.03-42.46-15.6-42.46-15.6,1.18-1.42,2.47-2.85,3.86-4.31,23.32-25.23,67.86-56.81,79.16-83.15-53.89,46.01-105.91,58.52-148.52,57.27-24.36-.66-45.66-5.87-62.41-11.85-19.91-7.09-33.46-15.29-38.26-18.42-1.29-.83-1.95-1.32-1.95-1.32,1.84-1.29,3.68-2.57,5.52-3.89,12.3-8.76,24.74-18,37.01-28.08,27.66-22.62,54.59-49.41,78.05-83.85v-.03c5.84-8.51,11.43-17.48,16.78-27,1.22-2.15,2.43-4.34,3.61-6.57,3.96-7.44,7.78-15.15,11.43-23.21,3.96-8.79,7.75-17.97,11.29-27.59,7.61-20.61,14.7-40.55,21.2-59.21,4.66-13.52,9.03-26.34,13.03-38.26,.24-.63,.45-1.29,.66-1.91,1.15-3.41,2.26-6.74,3.34-10.01,14.49-43.78,23.14-72.59,23.14-72.59,2.02-4.07,4.48-7.78,7.4-11.12,14.42-16.71,39.13-24.53,67.62-23.35,.59,.03,1.18,.03,1.77,.1,9.94,.49,20.33,2.12,30.93,4.83,2.26,.59,4.52,1.22,6.78,1.91,8.72,2.61,17.55,5.94,26.3,10.08,20.05,9.42,39.65,22.73,57.02,40,24.85-24.85,54.42-41.56,83.19-50.25,2.26-.69,4.55-1.32,6.81-1.91,10.56-2.71,20.95-4.38,30.89-4.9,.59-.03,1.18-.07,1.77-.1,34.23-1.49,63,10.04,75.13,34.33,0,0,2.5,8.3,7.09,22.76,4.55,14.49,11.22,35.1,19.53,59.77,.21,.66,.42,1.32,.66,1.95,9.56,28.39,21.23,61.92,34.4,97.4,38.29,103.24,102.96,157.31,164.08,199.91,0,0-94.66,86.39-224.89-25.23Z"/><path class="cls-2" d="M4055.19,1793.13c-.37-.51-.73-1.01-1.09-1.52-12.75-17.77-24.21-36.49-35.65-57.37-.4-.73-.8-1.44-1.19-2.18-13.64-25.01-27.32-53.16-43.27-86.43-22.65-47.25-25.58-92.91-25.58-92.91l-38.68-62.83-17.28-28.09-32.34-52.53-1-1.65-98.09-159.34-97.78,159.55-1,1.64-32.24,52.59-17.24,28.1-38.56,62.91s-2.83,45.67-25.4,92.97c-15.89,33.3-29.51,61.45-43.1,86.51-.39,.73-.79,1.46-1.18,2.17-11.41,20.91-22.82,39.66-35.55,57.45-.36,.51-.72,1.01-1.09,1.52-21.1,29.26-45.87,56.03-80.15,85.75,3.16,12.89,107.79,31.34,136.32-17.11-.46,1.37-29.81,87.72-46.32,92.56,0,0,9.73-1.43,24.61-6.98,22.32-8.31,56.24-25.87,86.41-61.73,.44-.52,.88-1.04,1.31-1.55,13.62-16.5,26.43-36.77,37-61.68-.18,.95-5.73,38.34-12.04,76.36-.12,.74-.25,1.48-.37,2.22-4.98,29.84-10.37,59.6-13.92,72,0,0,20.87-13.07,51.67-52.72,.46-.6,.92-1.21,1.38-1.8,18.77-24.44,41.1-58.66,64.57-105.63-.27,1.07-34.91,158.78-38.56,166.3,0,0,30.37-11.24,62.59-47.79,44.43-50.42,45.77-67.34,54.81-94.3,3.96-8.72,6.68-16.89,7.5-24.05,.03-.14,.05-.23,.03-.25,12.48,50.05,24.56,74.16,52.39,114.01,29.69,42.47,65.54,45.92,65.54,45.92-3.58-12.38-9.03-42.14-14.06-71.98-.12-.71-.24-1.45-.37-2.19-6.38-38-12.02-75.41-12.19-76.37,10.62,24.9,23.47,45.14,37.12,61.61,.44,.54,.87,1.06,1.32,1.58,30.24,35.8,64.19,53.29,86.53,61.56,14.9,5.52,24.62,6.92,24.62,6.92-16.51-4.83-46.03-91.1-46.49-92.47,28.62,48.39,133.22,29.74,136.35,16.87-34.33-29.67-59.15-56.39-80.31-85.61Z"/><path class="cls-2" d="M3928.59,1419.1c-6.79-17.8-13.07-35.2-18.81-51.86-.22-.64-.44-1.27-.66-1.9-23.07-67.23-37.34-121.9-41.78-139.56l-106.34,.11-106.35,.11c-4.39,17.65-18.57,72.35-41.52,139.62-.2,.62-.43,1.26-.65,1.91-5.71,16.66-11.94,34.09-18.7,51.89-37.32,98.32-90.45,208.35-156.84,268.14,0,0,57.97,8.47,111.88-30.34,14.34-10.31,28.4-23.99,40.99-42.03-.2,1.16-13.68,75.4-23.63,91.86,1.04-.54,67.74-35.8,92.12-94.07-.14,1-6.22,43.84-13.93,93.89-.13,.89-.28,1.8-.42,2.7-1.67,10.82-3.41,21.96-5.19,33.05-2.36,14.85-4.79,29.6-7.16,43.44,12.2-8.69,26.25-20.97,39.84-38.49,15.9-20.47,31.16-48.15,42.14-85.8,.32-1.07,.63-2.15,.92-3.22,4.39-15.63,8.05-32.93,10.72-52.08,0,0,10.17,107.87,36.31,168.43,25.15-54.64,35.99-168.5,35.99-168.5,2.71,19.15,6.39,36.46,10.82,52.06,.3,1.07,.6,2.15,.92,3.21,11.04,37.63,26.37,65.28,42.3,85.75,13.62,17.49,27.69,29.73,39.93,38.4-2.41-13.84-4.85-28.59-7.25-43.4-1.8-11.1-3.57-22.24-5.26-33.05-.13-.91-.28-1.81-.42-2.71-7.81-50.01-13.98-92.85-14.12-93.86,24.48,58.24,91.24,93.37,92.29,93.89-9.98-16.44-23.59-90.64-23.81-91.82,12.64,18.03,26.73,31.7,41.07,41.97,53.99,38.73,111.94,30.14,111.94,30.14-66.51-59.66-119.85-169.62-157.35-267.86Z"/><path class="cls-2" d="M4062.23,1463.03s-40.17-62.64-77.69-139.98c-.33-.69-.66-1.38-1.01-2.07-17.84-36.97-34.99-77.19-46.82-115.46l-182.01-603.71-169.45,604.05c-11.76,38.29-28.83,78.52-46.6,115.55-.34,.69-.67,1.38-1.01,2.07-37.36,77.42-77.43,140.12-77.43,140.12,32.7,13.19,68.71-2.45,94.83-19.58,21.76-14.24,36.68-29.49,37.11-29.94-7.11,34.65-90.76,145.21-90.76,145.21,24.36,9.55,59.9-2.32,77.06-14.36,9.39-6.58,18.33-13.97,26.46-21.86,20.86-20.25,38.58-42.84,52.26-62.55,.46-.67,.93-1.32,1.37-2,19.06-27.72,29.89-49.19,29.89-49.19-1.71,11.65-7.1,34.93-13.64,61.14-.22,.88-.44,1.75-.66,2.64-13.88,55.34-32.46,122.51-32.46,122.51,29.87-2,79-38.32,104.15-88.11,.42-.85,.85-1.73,1.26-2.56h.01c7.43-15.37,25.83-88.05,27.42-105.24,3.75,23.9,4.5,83.73,17.92,120.51,20.58,56.38,58.71,73.23,88.6,75.17,0,0-18.7-67.13-32.69-122.46-.21-.86-.44-1.74-.66-2.61-6.6-26.21-12.04-49.47-13.75-61.11,0,0,10.86,21.46,29.97,49.13,.46,.65,.92,1.31,1.38,1.99,13.72,19.67,31.49,42.27,52.39,62.45,8.15,7.88,17.09,15.25,26.5,21.84,17.18,12,51.67,21.9,73.43,6.21,0,0-80.2-102.41-87.38-137.05,.44,.44,15.38,15.68,37.17,29.88,26.16,17.06,62.19,32.63,94.85,19.38Z"/><path class="cls-2" d="M3961.84,1176.62c-.25-.35-.5-.7-.75-1.05-8.81-12.27-16.71-25.19-24.62-39.62-.27-.49-.55-.99-.82-1.5-9.4-17.25-18.85-36.69-29.86-59.66-15.64-32.63-17.66-64.15-17.66-64.15l-26.71-43.37-11.92-19.39-22.33-36.26-.69-1.14-67.72-110-67.51,110.13-.69,1.14-22.26,36.3-11.89,19.41-26.62,43.43s-1.96,31.52-17.54,64.17c-10.97,22.99-20.38,42.41-29.75,59.73-.27,.51-.55,.99-.82,1.49-7.88,14.44-15.76,27.37-24.55,39.66-.24,.35-.48,.7-.74,1.04-14.57,20.22-31.67,38.68-55.33,59.21,2.17,8.89,74.42,21.62,94.11-11.81-.31,.93-20.57,60.54-31.97,63.88,0,0,6.71-.99,16.98-4.81,15.41-5.72,38.82-17.85,59.66-42.62,.29-.33,.6-.7,.9-1.07,9.4-11.4,18.25-25.37,25.54-42.58-.12,.65-3.96,26.48-8.32,52.73-.08,.51-.16,1.01-.25,1.51-3.43,20.61-7.16,41.15-9.61,49.71,0,0,14.42-9.03,35.68-36.41,.31-.4,.63-.82,.96-1.23,12.96-16.89,28.37-40.5,44.57-72.92-.19,.74-40.45,154.52-40.45,154.52,0,0,41.05-26.3,59.19-53.36,20.06-29.92,29.45-65.85,35.69-84.43,2.74-6.03,4.62-11.67,5.19-16.63,.01-.08,.02-.15,.01-.17,8.62,34.57,16.95,51.2,36.17,78.71,20.5,29.32,45.25,31.7,45.25,31.7-2.48-8.54-6.24-29.1-9.71-49.69-.08-.51-.16-1.01-.25-1.51-4.4-26.24-8.29-52.07-8.41-52.71,7.33,17.17,16.2,31.16,25.62,42.52,.3,.35,.61,.72,.91,1.08,20.88,24.71,44.31,36.79,59.73,42.51,10.28,3.8,17,4.78,17,4.78-11.41-3.33-31.78-62.9-32.09-63.84,19.75,33.4,91.97,20.54,94.13,11.64-23.71-20.47-40.84-38.93-55.45-59.09Z"/><path class="cls-2" d="M3884.55,851.34c-5.43-14.21-10.44-28.12-15.03-41.44-.17-.51,7.67-1.03,7.5-1.52-18.43-53.71-37.86-97.39-41.4-111.49l-76.94,.07-79.42,.07c-3.51,14.11-20.38,57.81-38.72,111.57-.16,.5,5.21,1,5.04,1.51-4.57,13.33-9.55,27.25-14.95,41.48-29.81,78.54-77.81,166.47-130.86,214.23,0,0,46.32,6.78,89.4-24.22,11.45-8.25,22.69-19.17,32.75-33.59-.17,.92-31.73,60.85-39.68,74.01,.83-.44,74.91-29.22,94.39-75.78-.1,.81-4.97,35.03-11.14,75.01-.11,.72-.21,1.42-.33,2.16-1.34,8.65-2.73,17.55-4.15,26.4-1.89,11.86-3.83,23.65-5.72,34.71,9.75-6.95,20.97-16.75,31.84-30.75,12.69-16.37,24.89-38.48,33.65-68.58,.26-.84,.5-1.7,.74-2.57,3.51-12.47,6.43-26.29,8.55-41.6,0,0,8.14,86.18,29.03,134.57,20.1-43.66,28.76-134.62,28.76-134.62,2.15,15.3,5.1,29.11,8.64,41.59,.23,.86,.48,1.71,.74,2.55,8.82,30.07,21.07,52.18,33.79,68.53,10.89,13.98,22.13,23.75,31.89,30.67-1.92-11.05-3.87-22.82-5.78-34.68-1.44-8.86-2.85-17.75-4.2-26.41-.11-.72-.22-1.45-.33-2.15-6.24-39.98-11.16-74.19-11.27-75,19.55,46.54,106.68,79.95,107.51,80.39-7.97-13.14-52.62-77.81-52.8-78.73,10.09,14.42,21.35,25.31,32.81,33.53,43.13,30.94,89.43,24.06,89.43,24.06-53.13-47.66-103.76-135.5-133.73-213.99Z"/><path class="cls-2" d="M3954.11,863.91s-26.07-40.64-50.4-90.82c-.21-.45-.44-.9-.65-1.34-11.58-23.99-22.7-50.08-30.37-74.91l-118.08-391.66-109.93,391.88c-7.63,24.84-18.7,50.95-30.23,74.96-.23,.45-.43,.89-.65,1.34-24.25,50.23-50.24,90.91-50.24,90.91,21.21,8.56,44.57-1.59,61.52-12.7,14.12-9.24,23.79-19.14,24.07-19.42-4.61,22.49-43.91,102.15-43.91,102.15,11.76-3.33,23.88-9.44,35.02-17.26,6.09-4.27,11.89-9.06,17.17-14.17,13.53-13.14,25.03-27.81,33.9-40.6,.3-.42,.6-.85,.9-1.29,12.36-17.98,19.39-31.91,19.39-31.91-1.11,7.56-4.61,22.65-8.85,39.67-.14,.56-.28,1.13-.43,1.7-9,35.92-21.05,79.49-21.05,79.49,19.38-1.3,51.25-24.86,67.56-57.17,.28-.55,.55-1.11,.83-1.66h0c4.81-9.95,8.13-20.7,9.16-31.87,1.05,11.16,4.39,21.89,9.22,31.85h0c.27,.55,.54,1.11,.83,1.66,16.37,32.27,48.28,55.77,67.67,57.04,0,0-12.14-43.56-21.21-79.45-.13-.58-.28-1.14-.42-1.7-4.28-17.02-7.81-32.11-8.92-39.66,0,0,7.04,13.91,19.43,31.87,.3,.43,.6,.86,.9,1.29,8.9,12.78,20.43,27.42,33.99,40.53,5.28,5.11,11.09,9.89,17.19,14.15,11.15,7.8,23.28,13.89,35.06,17.2,0,0-39.45-79.59-44.11-102.07,.29,.28,9.98,10.16,24.11,19.37,16.98,11.09,40.36,21.18,61.54,12.59Z"/></g></g><path class="cls-21" d="M2230.68,237.18c.52-11.42-26.54-18.96-51.91-25.55-20.34-5.28-32.23,2.38-36.68,6.24,3.86-4.37,9.85-14.84-13.99-20.93-30.69-7.84-64.86,10.6-64.86,10.6,13.24-16.04-18.18-43.7-66.45-45.26-48.28-1.56-63.19,20.43-63.19,20.43-79.27-11.12-94.22,26.07-94.22,26.07,0,0-90.75-15.85-118.98,21.64-1.8,2.39-2.6,4.63-2.54,6.75h512.82Z"/></g><g><path class="cls-27" d="M4263.42,2215.53c0,2.75-1.11,5.25-2.92,7.05s-4.31,2.92-7.02,2.92H110.04c-5.49,0-9.97-4.48-9.97-9.97,0-2.75,1.11-5.21,2.92-7.02,1.81-1.81,4.31-2.92,7.05-2.92H4253.48c5.46,0,9.94,4.48,9.94,9.94Z"/><g><path class="cls-32" d="M3382.13,1898.01s-38.46-71.65-36.94-76.9c1.51-5.25-90.22-102.35-90.22-102.35l-73.6-23.28-74.61,18.03-80.23,14.43-20.79,35.8c-59.56,15.74-106.11,96.78-112.62,197.93h-868.01v-63.67s-38.46-71.65-36.94-76.9-90.22-102.35-90.22-102.35l-73.6-23.28-74.61,18.03-80.23,14.43-19.71,33.94c-63.94,9.38-115.04,93.46-121.88,199.8H900.76v43.59h-90.57c-.58,5.85-.87,11.79-.87,17.77,0,106.31,90.17,189.01,201.4,189.01,98.95,0,181.18-64.78,198.12-154.7h325.27c17.15,84.63,64.07,145.32,120.16,150.43h0c38.66,4.91,139.24,3.84,144.1,3.79,1.39,.04,2.77,.13,4.16,.13,78.41,0,144.91-64.66,168.51-154.35h286.58c16.11,89.93,94.33,154.7,188.47,154.7s172.33-64.78,188.44-154.7h264.78c17.15,84.63,64.07,145.32,120.16,150.43h0c31.1,3.95,102.25,4.03,131.44,3.88,.39,0,.78,.04,1.17,.04,.55,0,1.09-.05,1.64-.05,6.31-.04,10.04-.08,10.04-.08l-.02-.42c88.74-7.59,159.33-101.03,162.76-216.83h55.62v-96.31Z"/><path class="cls-25" d="M2029.1,978.03l-34.86-59.23-617.47,21.68c-8.28,7.09-16.72,14.37-25.29,21.81-18.63,16.13-37.93,33.04-57.67,50.55l72.38-3.66c15.32-1,27.94,11.38,26.4,25.9l-25.72,242.28c-2.79,26.25-21.51,48.44-47.85,56.71l-157.87,49.54c-24.55,7.7-50.39,11.09-76.26,9.98l-132.11-5.65c-13.94-.6-22.94-15.35-15.43-26.5,.99-1.47,1.99-2.95,3-4.43-4.86,3.73-9.84,7.32-14.94,10.76-8.86,5.99-18.06,11.5-27.58,16.56-5.43,2.9-11.16,5.96-17.01,9.18-2.16,1.19-4.33,2.4-6.49,3.64l786.01-4.46,38,148.1h281.39l294.55-91.75,34.55-487.48-279.73,16.46Z"/><path class="cls-10" d="M2221.28,1009.39l-13.04,137.25c-1.76,18.5-16.18,33.26-34.64,35.45l-100.66,11.92c-13.36,1.58-23.79-11.34-19.42-24.07l51.98-151.25,108.9-9.4c2.34-.24,4.66-.21,6.87,.11Z"/><rect class="cls-17" x="1986.68" y="1007.22" width="15.14" height="533.63" transform="translate(147.1 -205.23) rotate(6.12)"/><path class="cls-17" d="M3704.83,1423.01c-.1-27.31-.24-54.83-.42-82.35v-.03c-.03-2.12-.03-4.27-.07-6.39v-.03c-.1-15.57-.24-31.14-.38-46.67-.17-16.99-.35-33.91-.56-50.77-.03-3.61-.07-7.19-.14-10.81-.56-45.35-1.25-90.07-2.15-133.26v-.03c-.83-39.44-1.81-77.56-2.95-113.84-.35-10.7-.69-21.27-1.11-31.62-.03-.59-.03-1.22-.07-1.84v-.03c-.21-6.01-.45-11.95-.69-17.83-.1-3.02-.21-6.01-.35-9,0-.59-.03-1.18-.07-1.77-.14-4.31-.35-8.55-.52-12.72v-.03c-.07-1.84-.14-3.68-.21-5.49v-.07c-.07-1.29-.1-2.54-.21-3.79-.17-3.93-.35-7.82-.52-11.68-.07-1.46-.14-2.95-.21-4.41-.31-6.46-.63-12.82-.94-19.04v-.1c-.24-4.59-.49-9.07-.73-13.52-.03-.56-.03-1.11-.1-1.67-.14-2.75-.31-5.49-.45-8.24-.17-2.92-.35-5.8-.52-8.69-.14-2.47-.31-4.9-.45-7.33-.87-13.93-1.81-27.17-2.78-39.61-.14-1.63-.24-3.23-.38-4.83-.17-2.33-.38-4.59-.56-6.85-.21-2.26-.38-4.48-.59-6.67-.07-.83-.17-1.67-.28-2.5-.07-.49-.14-.94-.24-1.42-.1-.69-.21-1.36-.38-2.05-.17-.83-.38-1.67-.59-2.5-1.04-3.93-2.54-7.64-4.45-11.12-.42-.83-.87-1.63-1.36-2.4-.28-.49-.59-.94-.9-1.42-.31-.45-.59-.9-.94-1.36-.38-.56-.83-1.15-1.22-1.7-.7-.9-1.43-1.77-2.15-2.61-.69-.76-1.39-1.53-2.12-2.26-.52-.56-1.08-1.11-1.67-1.6-.42-.42-.87-.8-1.32-1.18-.56-.49-1.11-.97-1.7-1.42-.87-.76-1.77-1.42-2.71-2.05-.87-.59-1.74-1.18-2.64-1.74-.87-.56-1.81-1.08-2.75-1.6t-.07-.03c-.63-.35-1.25-.69-1.91-1.01-.66-.31-1.29-.59-1.95-.9-.45-.21-.9-.42-1.39-.59-.59-.28-1.22-.49-1.84-.73-.94-.35-1.91-.69-2.92-1.01-2.09-.63-4.27-1.15-6.46-1.56-.83-.17-1.7-.28-2.54-.42-.45-.07-.94-.14-1.39-.17-.38-.03-.73-.07-1.11-.1-.14,0-.31-.03-.45-.03-1.6-.14-3.23-.24-4.87-.24-16.09,0-35.86-.03-58.79-.03-42.67-.03-96.32-.17-158-.31-3.61,0-7.26,0-10.95-.03-24.22-.03-49.59-.1-75.96-.17-5.35,0-10.77,0-16.19-.03-16.68-.03-33.71-.07-51.12-.1-4.24,0-8.51-.03-12.79-.03s-8.58-.03-12.93-.03c-6.57-.03-13.2-.03-19.88-.03-13.34-.07-26.83-.07-40.52-.1-13.62-.03-27.42-.07-41.35-.1-25.23-.07-50.87-.14-76.86-.17-6.29-.03-12.58-.03-18.87-.03-3.61-.03-7.23-.03-10.84-.03-9.03-.03-18.1-.03-27.21-.07h-9.45c-16.89-.07-33.91-.1-50.98-.1-1.18-.03-2.4-.03-3.61-.03h-.03c-5.04,0-10.04-.03-15.08-.03-1.11,.03-2.26,0-3.41,0-19.56-.03-39.23-.07-58.93-.1h-7.78c-13.86-.03-27.73-.07-41.59-.1-31.48-.03-63-.1-94.31-.14-24.08-.03-48.06-.07-71.86-.07-13.9-.03-27.69-.07-41.46-.07-4.24,0-8.48,0-12.72-.03h-25.12c-88.85-.07-173.95-.07-251.23,.03h-14.56c-4.34,0-8.65,0-12.96,.03-55.39,.07-106.3,.21-151.05,.42-2.47,0-4.9,.03-7.3,.03-7.26,.03-14.32,.07-21.23,.1-4.59,.03-9.14,.03-13.59,.07-2.54,0-5.07,.03-7.61,.03-2.88,.03-5.7,.03-8.48,.07-5.59,.03-11.05,.07-16.33,.1-2.64,.03-5.25,.07-7.82,.07-2.57,.03-5.07,.03-7.58,.07-1.22,.03-2.4,.03-3.58,.03-4.07,.03-8.06,.07-11.92,.14-1.29,0-2.54,.03-3.79,.03-6.43,.03-12.54,.1-18.31,.21-2.92,0-5.77,.03-8.48,.1-2.75,.03-5.42,.07-7.99,.1-2.05,.03-4.07,.07-5.98,.1-.97,.03-1.95,.03-2.88,.07-2.81,.03-5.49,.07-8.06,.14-.87,0-1.7,0-2.54,.03-2.36,.03-4.83,.1-7.33,.17-5.87,.14-12.13,.28-18.59,.45-3.44,.1-6.92,.17-10.39,.31-4,.14-8.03,.28-12.06,.45-3.75,.14-7.47,.35-11.15,.56-3.68,.21-7.26,.45-10.77,.69-3.51,.24-6.95,.56-10.22,.87-1.63,.14-3.23,.31-4.8,.49-2.26,.28-4.45,.52-6.78,.8-2.92,.31-5.94,.69-9.03,1.08-3.68,.45-7.44,.94-11.33,1.46-5.8,.76-11.85,1.63-18.17,2.57-2.33,.35-4.69,.73-7.12,1.08-.45,.07-.94,.14-1.39,.21-2.88,.45-5.87,.94-8.9,1.42-.31,.03-.63,.1-.94,.17-.14,.03-.31,.07-.49,.1-1.25,.21-2.57,.42-3.86,.63-.73,.1-1.46,.24-2.19,.35-.56,.07-1.11,.17-1.7,.28-1.56,.28-3.13,.56-4.73,.83-4.76,.83-9.66,1.7-14.66,2.64h-.1c-3.27,.59-6.64,1.25-10.08,1.91h-.07c-.56,.1-1.15,.21-1.74,.31-.59,.14-1.18,.24-1.74,.35-1.6,.31-3.2,.63-4.83,.94-7.78,1.56-15.88,3.23-24.25,5.04-3.79,.8-7.61,1.63-11.54,2.5-10.18,2.26-20.33,4.73-30.41,7.4-4.69,1.25-9.35,2.5-13.97,3.82-3.58,1.01-7.12,2.02-10.63,3.09-3.06,.9-6.08,1.84-9.14,2.78-3.06,.94-6.12,1.91-9.14,2.92-1.32,.42-2.61,.83-3.89,1.29-2.22,.73-4.45,1.46-6.64,2.22-3.02,1.04-6.05,2.08-9.07,3.16-2.19,.76-4.34,1.53-6.53,2.36-2.95,1.04-5.87,2.15-8.79,3.27-3.61,1.39-7.23,2.81-10.81,4.24-6.08,2.43-12.13,4.93-18.14,7.54-3.47,1.49-6.91,3.02-10.35,4.55-3.13,1.42-6.25,2.85-9.35,4.31-3.09,1.46-6.19,2.92-9.28,4.45-3.09,1.49-6.15,3.02-9.21,4.55-6.12,3.09-12.16,6.25-18.17,9.56-3.02,1.63-6.01,3.3-9,4.97-5.94,3.37-11.85,6.81-17.69,10.39-5.84,3.54-11.64,7.19-17.34,10.95-2.43,1.56-4.83,3.16-7.23,4.76-2.57,1.74-5.14,3.51-7.68,5.28-1.46,1.01-2.88,1.98-4.31,3.02-7.64,5.39-15.15,10.95-22.52,16.71-1.49,1.15-2.99,2.33-4.48,3.54-1.91,1.49-3.82,3.02-5.73,4.59-.07,.03-.1,.07-.14,.1-1.91,1.49-3.79,3.06-5.66,4.62-.76,.63-1.53,1.29-2.29,1.95-20.05,16.78-42.01,35.27-65.22,55.18-5.84,5-11.78,10.11-17.76,15.29-1.63,1.42-3.27,2.81-4.9,4.24-.45,.38-.87,.76-1.32,1.15-.28,.24-.59,.49-.87,.73-.14,.1-.31,.24-.45,.38-2.22,1.98-4.52,3.93-6.78,5.91-2.78,2.4-5.84,5.07-9.14,7.96-.52,.49-1.08,.97-1.67,1.42-.59,.56-1.18,1.08-1.81,1.6-.21,.21-.38,.38-.59,.52-2.05,1.84-4.17,3.68-6.36,5.56-.7,.59-1.39,1.22-2.08,1.81-.03,.03-.07,.07-.1,.14-2.19,1.95-4.45,3.89-6.71,5.87-6.01,5.32-12.16,10.7-18.03,15.91-1.49,1.29-2.95,2.57-4.38,3.86-5.73,5.07-11.08,9.83-15.71,13.97-3.72,3.34-7.4,6.64-11.15,9.97-4.52,4.03-8.97,8.13-13.52,12.23-5.87,5.32-11.75,10.6-17.58,15.98-3.44,3.09-6.85,6.22-10.25,9.38-3.16,2.85-6.32,5.8-9.52,8.69-3.68,3.41-7.33,6.85-11.05,10.22-3.41,3.2-6.81,6.39-10.25,9.59-3.44,3.2-6.88,6.43-10.29,9.66-4.8,4.45-9.56,8.97-14.35,13.48-.9,.8-1.7,1.63-2.57,2.43-4.1,3.89-8.17,7.82-12.27,11.68-4.14,3.93-8.17,7.82-12.27,11.78-.28,.24-.59,.56-.94,.83-8.86,8.62-17.69,17.24-26.48,25.85-2.22,2.15-4.41,4.31-6.57,6.5-8.86,8.69-17.62,17.41-26.34,26.17-3.93,4.03-7.85,7.99-11.78,11.95-2.15,2.22-4.34,4.41-6.46,6.64-2.47,2.43-4.83,4.93-7.26,7.4-2.95,3.06-5.91,6.12-8.83,9.17-23.25,24.22-45.73,48.37-66.89,72.28-1.91,2.15-3.82,4.27-5.8,6.36-.31,.35-.63,.66-.94,.97-1.77,1.88-3.61,3.75-5.42,5.56-2.08,2.12-4.2,4.17-6.36,6.19-1.67,1.6-3.37,3.16-5.11,4.69-1.11,1.04-2.26,2.05-3.44,3.02-4.55,4-9.24,7.85-14.07,11.54-.66,.52-1.29,1.01-1.95,1.46-.07,.1-.1,.14-.17,.14,0,0-.03,.03-.03,0-1.46,1.15-2.92,2.22-4.41,3.3-.28,.21-.56,.42-.83,.59-.45,.38-.94,.73-1.42,1.01-.52,.42-1.04,.76-1.6,1.11-.21,.17-.42,.35-.66,.49-.28,.21-.56,.38-.83,.59-.73,.52-1.49,1.04-2.26,1.56-.24,.17-.52,.35-.76,.52-1.77,1.18-3.54,2.36-5.35,3.51-1.08,.69-2.15,1.39-3.23,2.05-.1,.07-.21,.14-.31,.17-.28,.17-.56,.38-.87,.56-1.25,.8-2.5,1.6-3.79,2.33-2.29,1.39-4.62,2.75-6.95,4.07-2.36,1.32-4.69,2.64-7.09,3.89-1.36,.73-2.75,1.46-4.13,2.19-2.78,1.49-5.63,2.99-8.51,4.59-1.46,.76-2.92,1.56-4.38,2.4-.42,.21-.83,.45-1.29,.69-.63,.35-1.29,.73-1.95,1.08-1.08,.63-2.15,1.22-3.23,1.84-40.93,23.46-76.34,54.38-104.25,90.69-8.41,10.91-16.16,22.34-23.14,34.19-5.8,9.83-11.12,20.02-15.88,30.44-4.73,10.15-8.86,20.54-12.47,31.2-6.85,20.02-12.65,41.52-16.4,63.73-.52,3.13-1.01,6.25-1.46,9.42-2.12,15.12-3.27,30.51-3.02,45.94,.07,3.61-.14,7.23-.63,10.84-.66,5.39-1.98,10.7-3.82,15.81-3.61,10.04-9.42,19.36-17.34,27.03-.9,.9-1.77,1.84-2.68,2.85-15.05,16.85-28.42,51.53-18.31,122.98,.31,2.15,.63,4.38,1.01,6.6,.66,4.27,1.42,8.65,2.26,13.17,.21,1.22,.45,2.43,.69,3.65,.73,3.82,1.53,7.71,2.36,11.71,1.15,5.42,2.43,11.02,3.86,16.82,.52,2.26,1.11,4.52,1.7,6.85,1.25,5,2.99,9.83,5.14,14.42,13,27.94,41.11,47.12,73.35,49.48,2.26,.21,4.52,.28,6.81,.28h865.63c-.69-8.93-1.04-17.93-1.04-27.14,0-77.18,24.98-146.4,64.49-193.52h.03v-.03c1.74-2.08,3.44-4.03,5.21-5.98,18.8-20.78,40.52-36.73,64.22-46.53,17.34-7.16,35.72-10.98,54.8-10.98,66.44,0,124.89,46.74,158.52,117.42,19.18,40.2,30.27,88.16,30.27,139.62,0,9.17-.35,18.24-1.04,27.14h973.94c-.17-2.19-.31-4.38-.45-6.57-.38-6.78-.59-13.66-.59-20.57,0-.87,0-1.77,.03-2.64,0-2.05,.03-4.1,.1-6.15,0-.76,0-1.56,.07-2.36-.03-.38,0-.76,.03-1.18,0-1.32,.07-2.64,.17-3.93-.03-.52,0-1.08,.07-1.63,0-.52,.03-1.04,.07-1.6,0-.28,0-.59,.03-.9,.14-2.26,.28-4.59,.45-6.85v-.03c.03-.1,.03-.21,.03-.31,0-.07,0-.14,.03-.24,.03-.73,.1-1.46,.17-2.19,0-.1,0-.17,.03-.24,.1-1.91,.31-3.82,.52-5.77,.03-.21,.03-.45,.07-.66,.1-.94,.21-1.88,.31-2.81,.28-2.54,.59-5.07,.94-7.61,.28-2.19,.59-4.38,.94-6.53,.1-.69,.21-1.39,.35-2.09,.9-5.52,1.91-10.98,3.09-16.4,.31-1.49,.63-2.95,.97-4.41,.63-2.74,1.29-5.46,1.98-8.17,1.22-4.73,2.5-9.42,3.93-14,.35-1.18,.73-2.33,1.11-3.51,.28-.9,.56-1.81,.87-2.68v-.03c.49-1.46,.97-2.92,1.46-4.31,.63-1.88,1.32-3.75,2.02-5.59,1.91-5.28,4-10.46,6.22-15.53,.24-.59,.49-1.18,.76-1.77,.17-.42,.35-.83,.56-1.25,.03-.14,.1-.28,.17-.42,.28-.59,.52-1.18,.8-1.77,.63-1.36,1.25-2.71,1.88-4.03,12.86-27.03,29.36-50.56,48.51-69.29,1.95-1.91,3.89-3.75,5.91-5.53,2.19-1.98,4.38-3.89,6.64-5.7,11.85-9.76,24.53-17.79,37.88-23.8,8.17-3.72,16.58-6.67,25.19-8.83,5.66-1.42,11.4-2.5,17.2-3.2,1.46-.21,2.92-.35,4.38-.49,4.24-.42,8.55-.59,12.82-.59,22.86,0,44.79,5.53,65.05,15.67,37.98,18.97,70.19,54.1,92.22,99.28,.42,.8,.83,1.63,1.22,2.47,.97,2.02,1.91,4.07,2.81,6.15,.45,.94,.87,1.91,1.29,2.88,.76,1.67,1.46,3.37,2.15,5.07,.42,.97,.8,1.95,1.18,2.92,.87,2.12,1.67,4.24,2.47,6.39,.56,1.46,1.08,2.92,1.56,4.38,.59,1.56,1.15,3.13,1.67,4.73,.63,1.81,1.25,3.65,1.81,5.52,.38,1.18,.76,2.4,1.11,3.58,.07,.17,.1,.35,.17,.52,.63,2.02,1.18,4.07,1.77,6.12,.8,2.85,1.56,5.7,2.26,8.58,.73,2.88,1.42,5.8,2.05,8.72,.66,2.85,1.25,5.73,1.81,8.65,0,.07,0,.14,.03,.21,.35,1.7,.66,3.41,.97,5.14,.21,1.29,.45,2.57,.63,3.86,.52,3.02,.97,6.05,1.35,9.1,.42,3.02,.8,6.01,1.11,9.07v.14c.31,2.57,.56,5.14,.76,7.75,.03,.21,.03,.42,.03,.59,.1,1.04,.17,2.05,.24,3.09,.03,.07,.03,.1,0,.17,.21,2.36,.35,4.76,.49,7.12,.17,3.16,.31,6.32,.38,9.52,.07,2.33,.1,4.66,.1,6.98,.03,.87,.03,1.77,.03,2.64,0,2.75-.03,5.46-.1,8.13-.03,1.36-.07,2.68-.1,4.03-.03,1.35-.1,2.68-.17,4.03-.03,1.46-.14,2.92-.21,4.38-.14,2.19-.28,4.38-.45,6.57h277.95c1.29,0,2.57-.03,3.82-.1,.45,0,.87-.03,1.29-.07,.45,0,.9-.03,1.36-.1,.7-.03,1.39-.1,2.05-.17,1.36-.1,2.71-.28,4.03-.45,1.36-.21,2.68-.42,3.96-.69,1.35-.24,2.68-.52,4-.87,1.11-.28,2.22-.56,3.34-.9,1.11-.31,2.22-.66,3.34-1.04,.66-.21,1.32-.42,1.95-.66,.66-.21,1.32-.49,1.95-.73,.56-.21,1.15-.45,1.7-.69,1.08-.42,2.12-.9,3.16-1.39,.56-.24,1.11-.52,1.67-.8,.97-.45,1.95-.97,2.88-1.49,.45-.21,.87-.45,1.32-.73,.45-.24,.87-.49,1.29-.73,1.08-.63,2.15-1.29,3.23-2.02,.94-.59,1.88-1.22,2.78-1.88,.8-.56,1.6-1.15,2.36-1.77,.52-.38,1.04-.76,1.53-1.18,.52-.38,1.04-.8,1.53-1.25,.66-.52,1.29-1.08,1.91-1.67,1.88-1.63,3.65-3.41,5.32-5.25t.03-.03c1.22-1.29,2.36-2.64,3.47-4.03,.35-.42,.69-.87,1.04-1.29,.73-.9,1.42-1.84,2.05-2.81,.7-.94,1.32-1.88,1.95-2.85,.07-.1,.17-.24,.24-.38,.63-.94,1.18-1.91,1.74-2.88,.66-1.11,1.25-2.22,1.81-3.34,.07-.07,.1-.1,.1-.17,.56-1.11,1.11-2.22,1.6-3.34,1.01-2.15,1.88-4.41,2.61-6.67,.14-.38,.28-.73,.38-1.11,.07-.1,.1-.24,.1-.35,.24-.66,.45-1.32,.63-2.02,.1-.28,.21-.59,.28-.94,.35-1.18,.63-2.4,.9-3.65,.31-1.29,.56-2.57,.76-3.86,.24-1.29,.42-2.61,.56-3.93,.17-1.32,.28-2.64,.38-4,.1-1.32,.14-2.68,.17-4.03,.03-3.47,.07-7.05,.07-10.74,.03-2.29,.03-4.62,.07-6.98,0-1.11,0-2.22,.03-3.37,0-2.22,.03-4.52,.07-6.85,.03-1.98,.03-3.96,.07-6.01,0-4.24,.07-8.58,.1-13.03,0-2.71,.03-5.49,.07-8.3,.03-2.81,.07-5.66,.07-8.51,0-1.98,.03-4,.07-6.01,.03-4.93,.07-9.97,.1-15.12v-.97c.03-.83,.03-1.67,.03-2.54,.21-27.56,.42-57.79,.63-90.14,.07-19.46,.17-39.72,.24-60.64v-.03c.03-14.46,.1-29.19,.14-44.24,.07-26.65,.14-54.17,.14-82.28,.07-44.83,0-91.18-.21-138.16Zm-1730.56,69.98c-3.79,1.08-7.61,2.08-11.43,2.95-1.32,.35-2.64,.66-3.96,.94-18.83,4.13-38.12,6.15-57.47,5.91l-37.49-.45-119.88-1.42c-16.61-.17-27.83-18.31-19.29-32.52,18.73-31.34,40.07-64.32,62.65-97.57,16.37-24.08,33.39-48.27,50.52-72.1,62.41-86.52,126.87-168.08,169.54-219.23l.03-.03v-.03c6.32-7.58,12.16-14.49,17.44-20.68,3.68-4.31,7.12-8.27,10.25-11.81,9.49-10.74,21.82-18.38,35.48-22.03,4.1-1.15,8.37-1.91,12.65-2.29l21.47-1.84h.03l116.3-10.08,1.01-.07c18.17-1.88,33.64,13.13,32.32,31.38l-11.19,155.5-10.67,148.72c-2.4,32.94-23.84,61.47-54.87,72.87l-186.01,68.21c-4.34,1.6-8.76,3.09-13.2,4.41-1.39,.45-2.81,.87-4.24,1.29Zm-995.31-128.12c19.11-13.38,36.52-28.84,51.88-46.18,8.27-9.31,16.68-18.66,25.33-28.08,1.81-1.98,3.65-4.03,5.56-6.05,2.64-2.85,5.28-5.7,7.99-8.58,2.61-2.78,5.21-5.63,7.89-8.41l.24-.28c2.64-2.81,5.28-5.63,8.03-8.48,8.17-8.58,16.4-17.17,24.81-25.78,1.04-1.08,2.05-2.12,3.13-3.2,1.74-1.81,3.47-3.61,5.25-5.39,5.63-5.7,11.29-11.47,16.96-17.17,5.73-5.73,11.43-11.43,17.17-17.1,2.88-2.88,5.77-5.77,8.69-8.55,9.8-9.69,19.67-19.29,29.57-28.84,7.54-7.3,15.19-14.56,22.76-21.75,3.79-3.61,7.61-7.19,11.4-10.77,11.43-10.81,22.83-21.44,34.19-32,1.22-1.08,2.4-2.15,3.54-3.23,6.39-5.94,12.82-11.85,19.18-17.62,7.71-7.02,15.36-13.97,22.93-20.88,3.65-3.23,7.23-6.46,10.84-9.76,4.07-3.58,8.1-7.19,12.02-10.74,3.41-3.06,6.85-6.05,10.22-9.07,2.15-1.91,4.76-4.2,7.64-6.78,16.26-14.35,42.15-36.97,54.73-47.92,5.25-.21,10.6-.49,15.98-.69,2.75-.17,5.46-.28,8.24-.42,4.31-.21,8.72-.42,13.17-.59,2.57-.1,5.18-.24,7.78-.35,.35-.03,.66-.03,.97-.03,4.27-.21,8.55-.42,12.89-.59,2.71-.14,5.42-.24,8.17-.35,2.71-.1,5.46-.24,8.2-.38,2.78-.1,5.56-.21,8.37-.35,2.78-.1,5.56-.24,8.37-.35,2.47-.1,4.97-.21,7.51-.31,.8-.07,1.56-.07,2.36-.1,4.03-.21,8.1-.35,12.16-.52,2.81-.1,5.66-.24,8.51-.35,4.41-.17,8.86-.35,13.31-.56,4.2-.17,8.41-.35,12.61-.52,2.75-.1,5.49-.21,8.27-.31,1.74-.1,3.44-.14,5.18-.24,1.91-.07,3.86-.14,5.8-.21,1.01-.03,1.98-.1,2.99-.14,2.22-.07,4.48-.17,6.74-.24,.69-.03,1.42-.03,2.15-.07,9.1-.35,18.28-.69,27.49-1.04h.17c1.32-.07,2.64-.14,3.96-.17,4.1-.17,8.24-.35,12.37-.49,3.16-.1,6.36-.21,9.52-.31,1.36-.03,2.75-.1,4.1-.17,2.78-.1,5.56-.21,8.34-.31,1.39-.07,2.78-.14,4.17-.17,6.85-.21,13.69-.45,20.57-.69,8.03-.28,16.09-.56,24.12-.8,3.65-.14,7.33-.24,11.02-.35,1.46-.07,2.88-.1,4.34-.17,2.85-.1,5.7-.17,8.55-.24,.56-.03,1.08-.03,1.67-.03,.63-.03,1.22-.03,1.84-.07,1.36-.03,2.71-.1,4.07-.14,1.98-.07,3.96-.1,5.91-.17,4.07-.14,8.1-.24,12.13-.38,5.14-.14,10.32-.31,15.43-.42,.52-.03,1.01-.03,1.49-.07,2.47-.07,4.93-.14,7.4-.21,2.95-.1,5.91-.17,8.86-.28,1.7-.03,3.41-.07,5.07-.1,1.32-.03,2.61-.07,3.93-.1,5.59-.17,11.12-.28,16.68-.42,6.08-.17,12.13-.31,18.1-.45,4.93-.1,9.83-.21,14.73-.31,10.81-.24,21.47-.45,31.97-.66,3.96-.07,7.85-.14,11.78-.21,3.89-.07,7.75-.1,11.61-.14,1.08-.03,2.15-.07,3.2-.07,.63,0,1.22-.03,1.81-.03,3.41-.03,6.81-.1,10.22-.14,4.66-.03,9.24-.1,13.8-.14,5.8-.07,11.54-.1,17.2-.14,1.91,0,3.79-.03,5.63-.03,2.12,0,4.24,.03,6.36,.03s4.1,.03,6.12,.03,4.03,.03,6.01,.07c.1-.03,.24,0,.35,0,1.98,.03,3.93,.07,5.84,.1h.07c.56,0,1.11,.03,1.63,.07h.03c.42,.03,.8,.07,1.22,.14,.14,0,.28,.03,.42,.07,.56,.07,1.08,.17,1.6,.28,0-.03,.03-.03,.03-.03l.03,.03c.14,0,.31,.03,.45,.07,.17,.03,.31,.07,.49,.1,.73,.17,1.39,.38,2.08,.59t.03,.03h.03c.73,.24,1.46,.52,2.19,.83,.07,.03,.1,.07,.17,.07,.21,.1,.42,.21,.63,.35,.07,0,.1,.03,.17,.07,.03,0,.1,.03,.14,.1,.31,.14,.63,.31,.94,.49,.1,.07,.21,.1,.31,.17,.14,.03,.28,.14,.38,.21,.1,0,.17,.07,.24,.14,.17,.07,.31,.14,.45,.28,.03-.03,.07,.03,.07,.03h.03v.03c.24,.14,.45,.28,.66,.49,.59,.39,1.11,.81,1.63,1.24,.04,.03,.08,.06,.12,.09,.45,.35,.9,.72,1.31,1.14,.21,.21,.42,.45,.63,.69,.38,.38,.73,.76,1.08,1.15,.49,.56,.94,1.11,1.36,1.7,.42,.56,.8,1.15,1.15,1.74,0,0,.07,.03,.03,.07,.17,.28,.35,.56,.52,.83,.21,.35,.38,.73,.56,1.08,.31,.63,.59,1.25,.83,1.88,.07,.14,.1,.24,.14,.38,.14,.31,.24,.59,.35,.9,.14,.38,.28,.8,.38,1.22,.21,.69,.38,1.39,.52,2.08,.87,4.14,.73,8.55-.63,12.79v.03c-.94,3.06-2.54,6.01-4.76,8.72l-5.63,6.85-255.99,311.31c-5.8,7.05-12.37,13.31-19.53,18.59-13.76,10.39-29.78,17.44-46.81,20.57-6.46,1.25-13.1,1.88-19.81,1.95-54.35,.45-165.72,2.64-393.81,9.94-62.41,2.02-133.57,4.38-214.71,7.23-13.14,.49-26.58,.97-40.24,1.46-4.76,.14-9.52,.35-14.32,.49,.21-.17,.45-.31,.69-.45,.24-.21,.52-.38,.8-.59Z"/><path class="cls-10" d="M1312.23,1650.59l296.86-21.12c18.41-1.31,32.45,10.27,25.06,20.67h0c-13.06,18.37-33.93,34.17-60.47,45.75l-13.64,5.96c-28.02,12.24-61.29,19.22-95.89,20.13l-100.89,2.65c-42.27,1.11-80.13-18.25-84.05-44.22-1.94-12.86,5.2-24.73,33.01-29.82Z"/><path class="cls-17" d="M1993.05,978.8c3.72-11.68-1.58-24.53-12.1-30.38-2.69-1.5-5.7-2.53-8.99-2.98-.55-.08-1.11-.16-1.66-.18-.53-.05-1.08-.08-1.63-.08h-.08c-7.89-.13-16.14-.21-24.66-.26-7.46,.05-15.08,.11-22.86,.18-4.54,.05-9.12,.11-13.77,.16-5.04,.05-10.13,.13-15.24,.21-7.67,.11-15.48,.24-23.37,.37-10.5,.21-21.18,.42-31.99,.66-4.88,.11-9.78,.21-14.72,.32-5.99,.13-12.03,.29-18.12,.45-5.54,.13-11.08,.26-16.67,.42-8.86,.24-17.77,.47-26.77,.74-5.12,.13-10.28,.29-15.43,.45-4.03,.13-8.07,.24-12.13,.37-3.93,.11-7.86,.24-11.81,.37-.55,0-1.11,.03-1.66,.05-2.85,.08-5.7,.16-8.54,.26-19.99,.63-40.06,1.32-60.05,2.03-5.54,.21-11.08,.4-16.61,.61-3.19,.11-6.36,.24-9.52,.34-5.51,.21-11.02,.42-16.51,.63-12.21,.45-24.34,.92-36.37,1.4-2.95,.11-5.88,.24-8.78,.34-1.74,.08-3.45,.13-5.2,.21-2.77,.11-5.51,.21-8.25,.34-11.63,.45-23.13,.92-34.44,1.42-4.09,.16-8.15,.32-12.18,.5-.79,.03-1.56,.05-2.35,.11-2.53,.11-5.04,.21-7.52,.32-11.23,.47-22.28,.95-33.1,1.42-4.35,.18-8.62,.4-12.9,.58-.32,0-.63,.03-.98,.05-2.61,.11-5.22,.24-7.81,.34-4.43,.18-8.83,.4-13.16,.58-22.57,.03-47.42,.05-72.34,0,8.12-7.04,16.11-13.95,23.97-20.68,24.13-20.68,46.84-39.82,67.51-57.1,84.23-70.33,186.5-116.27,295.31-140.46,15.64-3.48,30.3-6.51,44.07-9.18h.08c3.43-.66,6.8-1.29,10.1-1.9,.03-.03,.05-.03,.08,0,16.67-3.09,31.94-5.59,45.97-7.7,16.85-2.51,31.88-4.4,45.33-5.91,25.03-2.82,60.1-3.43,85.31-3.98,210.79-4.69,1404.33,0,1661.85,0,3.53,0,6.99,.32,10.34,.95,23.52,4.27,41.88,23.13,43.96,46.78,5.01,56.17,8.7,131.25,11.45,216.8H1993.05Z"/><path class="cls-19" d="M2996.37,1838.5c-19.17,40.22-30.27,88.16-30.27,139.64,0,9.18,.37,18.22,1.05,27.14h-973.94c.69-8.91,1.05-17.96,1.05-27.14,0-51.48-11.1-99.42-30.28-139.64h1032.38Z"/><rect class="cls-10" x="2021.04" y="1998.68" width="885.86" height="7.91"/><path class="cls-19" d="M3703.88,1838.5c-.26,33.89-.55,63.71-.79,88.42-.45,43.41-37.26,78.35-82.52,78.35h-277.96c.69-8.91,1.05-17.96,1.05-27.14,0-51.48-11.1-99.42-30.27-139.64h390.49Z"/><path class="cls-17" d="M1974.28,1350.51v143.75c0,14.29-11.58,25.87-25.87,25.87h-59.92c-15.59,0-27.61-13.66-25.66-29.11l16.77-132.07c1.74-13.74,13.42-24.02,27.27-24.02h51.82c8.6,0,15.59,6.96,15.59,15.59Z"/><path class="cls-8" d="M1959.01,1350.51v143.75c0,14.29-11.58,25.87-25.84,25.87h-44.67c-15.59,0-27.61-13.66-25.66-29.11l16.77-132.07c1.74-13.74,13.42-24.02,27.27-24.02h36.55c8.62,0,15.59,6.96,15.59,15.59Z"/><path class="cls-17" d="M1799.97,1433.79h79.18c5.53,0,10,4.48,10,10v26.97c0,5.18-3.95,9.5-9.11,9.97l-79.18,7.08c-5.85,.52-10.9-4.09-10.9-9.97v-34.05c0-5.53,4.48-10,10-10Z"/><path class="cls-25" d="M1988.38,987.54l-5.7,6.85-259.12,311.28c-5.91,7.12-12.65,13.45-19.98,18.8-19.22,14.18-42.71,22.13-67.17,22.31-34.37,.24-91.25,1.22-185.38,3.72-21.44,.52-44.83,1.18-70.4,1.91-16.37,.49-33.57,.97-51.67,1.49-10.67,.35-21.65,.66-32.94,1.01-70.23,2.15-153.03,4.86-250.61,8.2-15.36,.52-31.13,1.04-47.26,1.67-6.6,.21-13.24,.45-19.98,.69-3.06,.1-6.19,.21-9.28,.31-13.93,.49-28.22,.97-42.71,1.49,.76-.52,1.53-1.04,2.26-1.56,19.6-13.52,37.39-29.33,53.06-47.02,21.16-23.91,43.64-48.06,66.89-72.28,2.92-3.06,5.87-6.12,8.83-9.17,2.43-2.47,4.8-4.97,7.26-7.4,2.12-2.22,4.31-4.41,6.46-6.64,3.93-3.96,7.85-7.92,11.78-11.95,8.72-8.76,17.48-17.48,26.34-26.17,2.15-2.19,4.34-4.34,6.57-6.5,8.79-8.62,17.62-17.24,26.48-25.85,.35-.28,.66-.59,.94-.83,4.1-3.96,8.13-7.85,12.27-11.78,4.1-3.86,8.17-7.78,12.27-11.68,.87-.8,1.67-1.63,2.57-2.43,4.8-4.52,9.56-9.03,14.35-13.48,3.41-3.23,6.85-6.46,10.29-9.66,3.44-3.2,6.85-6.39,10.25-9.59,3.72-3.37,7.37-6.81,11.05-10.22,3.2-2.88,6.36-5.84,9.52-8.69,3.41-3.16,6.81-6.29,10.25-9.38,5.84-5.39,11.71-10.67,17.58-15.98,4.55-4.1,9-8.2,13.52-12.23,3.75-3.34,7.44-6.64,11.15-9.97,18.49-16.54,48.89-43.23,66.58-58.62,2.26-1.98,4.55-3.93,6.78-5.91,.14-.14,.31-.28,.45-.38,14.98-.69,30.54-1.35,46.7-2.05,22.1-1.01,45.17-1.98,68.91-2.95,23.77-.97,48.16-1.95,72.9-2.85,20.05-.8,40.34-1.53,60.74-2.26,1.39-.03,2.78-.1,4.17-.1,14.98-.56,30.09-1.08,45.17-1.53h.03c10.98-.35,22-.69,32.94-1.04,10.25-.31,20.4-.59,30.51-.9,2.47-.03,4.9-.1,7.33-.17h.03c4.59-.14,9.17-.24,13.76-.38,11.36-.28,22.66-.56,33.81-.83,4.38-.07,8.76-.17,13.1-.24,7.82-.21,15.57-.38,23.21-.52,21.89-.42,43.19-.76,63.56-.97,9.38-.1,18.56-.14,27.56-.24,23.7-.1,45.83-.03,66.02,.24,.1-.03,.24,0,.35,0,1.95,0,3.86,.03,5.77,.07,.63,0,1.22,.03,1.81,.1,1.29,.07,2.54,.28,3.75,.56,.17,.03,.31,.07,.49,.1,.73,.17,1.39,.38,2.09,.59,.03,0,.03,.03,.07,.03,.73,.24,1.46,.52,2.19,.83,.07,.03,.1,.07,.17,.07,14.8,6.67,20.81,26.27,9.31,40.1Z"/><path class="cls-32" d="M2255.35,2005.27h-5.27c-3.3-285.4,14.06-810.51,19.94-977.84,.32-8.86-2.9-17.22-9.05-23.6-6.14-6.36-14.43-9.86-23.29-9.86h-149.27c-27.58,0-53.17,12.42-70.18,34.13l-274.35,349.64c-30.2,38.48-39.72,87.19-46.89,133.78-9.63,62.4-11.18,175.45-10.55,267.09-1.77,1.95-3.51,3.93-5.22,5.99-.74-92.88,.69-209.84,10.55-273.9,7.28-47.28,16.98-96.76,47.94-136.21l274.37-349.64c18.01-23,45.1-36.16,74.32-36.16h149.27c10.31,0,19.94,4.06,27.08,11.47,7.15,7.41,10.89,17.17,10.52,27.45-5.88,167.36-23.23,692.42-19.94,977.66Z"/><g><ellipse class="cls-19" cx="2133.18" cy="1531.5" rx="34.13" ry="20.97"/><path class="cls-32" d="M2106.66,1528.49l69.92-2.8v14.22l-68.21-2.05c-2.61-.08-4.69-2.22-4.69-4.83v-1.44c0-1.67,1.31-3.03,2.98-3.1Z"/><path class="cls-32" d="M2171.84,1528.97v-2.22c0-2.6,2.11-4.71,4.71-4.71h19.79c1.97,0,3.57,1.6,3.57,3.57v11.06c0,3.59-2.91,6.51-6.51,6.51h-18.07c-1.93,0-3.49-1.56-3.49-3.49v-10.73Z"/><circle class="cls-17" cx="2185.52" cy="1530.62" r="4.83"/></g><path class="cls-25" d="M1591.38,1822.9l-15.6,182.36H745.32v-.28c-32.25-2.36-60.36-21.54-73.35-49.48-2.15-4.59-3.89-9.42-5.14-14.42-.59-2.33-1.18-4.59-1.7-6.85-1.42-5.8-2.71-11.4-3.86-16.82-.83-4-1.63-7.89-2.36-11.71-.24-1.22-.49-2.43-.69-3.65-.83-4.52-1.6-8.9-2.26-13.17-.38-2.22-.7-4.45-1.01-6.6-10.11-71.44,3.27-106.12,18.31-122.98l849.64-.03c29.85,0,55.04,16.4,64.6,39.02,3.2,7.61,4.62,15.95,3.89,24.6Z"/><g><path class="cls-13" d="M1881.74,1877.91c-19.15-27.31-45-41.77-74.78-41.77-4.48,0-8.83,.35-13.1,.97-1.29,.21-2.54,.42-3.79,.66-.52,.1-1.04,.21-1.56,.35-.97,.17-1.91,.42-2.85,.66-4.34,1.11-8.58,2.57-12.72,4.38-.59,.24-1.15,.49-1.7,.76-1.08,.49-2.15,1.01-3.23,1.56-1.22,.63-2.4,1.25-3.54,1.95-.21,.14-.42,.24-.66,.38-1.01,.59-2.02,1.18-2.99,1.84-.07,.03-.14,.07-.21,.14-.73,.49-1.42,.97-2.15,1.46-.59,.38-1.18,.8-1.74,1.25-.35,.21-.63,.45-.94,.69-.8,.56-1.6,1.18-2.36,1.81-.63,.49-1.29,1.04-1.91,1.56-1.88,1.56-3.72,3.23-5.53,5-.52,.49-1.04,1.01-1.56,1.56-2.15,2.19-4.24,4.52-6.29,6.95-.9,1.08-1.81,2.22-2.68,3.37-.14,.17-.28,.35-.42,.52-.97,1.25-1.91,2.57-2.85,3.89-17.72,25.26-27.45,58.73-27.45,94.31,0,10.46,.87,20.75,2.5,30.72,3.93,23.87,12.47,45.73,24.95,63.52,19.18,27.31,45.03,41.77,74.78,41.77s55.63-14.46,74.78-41.77c17.72-25.23,27.45-58.73,27.45-94.27s-9.73-69.01-27.45-94.24Zm-74.78,220.58c-32.25,0-67.59-36.07-78.43-91.22-2.15-10.98-3.34-22.73-3.34-35.1,0-68.63,36.59-118.08,72.59-125.44,3.06-.59,6.15-.9,9.17-.9,38.71,0,81.76,51.88,81.76,126.31s-43.05,126.35-81.76,126.35Z"/><path class="cls-13" d="M1780.37,1972.17c0,16.14,7.08,29.96,17.06,35.42,2.95,1.62,6.18,2.51,9.53,2.51,14.69,0,26.63-16.99,26.63-37.93s-11.95-37.95-26.63-37.95c-3.35,0-6.59,.89-9.53,2.51-9.98,5.47-17.06,19.27-17.06,35.43Z"/><path class="cls-13" d="M1875.56,2010.09s-29.86,72.98-58.69,75.9c0,0-35.83,6.04-55.6-25.79,0,0,64.86,27.73,114.28-50.11Z"/><path class="cls-17" d="M1780.37,1972.17c0,16.14,7.08,29.96,17.06,35.42,9.98-5.45,17.06-19.27,17.06-35.42s-7.08-29.96-17.06-35.43c-9.98,5.47-17.06,19.27-17.06,35.43Z"/><path class="cls-17" d="M1704.73,1972.17c0,10.48,.86,20.76,2.5,30.72l21.31,4.39c-2.17-10.98-3.35-22.73-3.35-35.11,0-68.63,36.61-118.08,72.61-125.42l-3.93-9.63c-24.22,3.63-45.37,17.55-61.69,40.77-17.71,25.25-27.45,58.73-27.45,94.28Z"/></g><g><path class="cls-13" d="M3095.3,1883.92v.07c.07-.1,.14-.24,.21-.35-.07,.1-.14,.17-.21,.28Zm57.34-47.78c-4.48,0-8.86,.35-13.1,.97-1.42,.21-2.85,.45-4.24,.76-1.39,.28-2.81,.59-4.17,.97-1.39,.35-2.75,.73-4.14,1.18-1.36,.42-2.71,.87-4.03,1.39-.66,.21-1.29,.45-1.91,.73-.17,.03-.38,.1-.56,.21v14.77c.97-.69,1.91-1.32,2.92-1.95,2.05-1.32,4.1-2.5,6.22-3.54,.94-.49,1.91-.94,2.88-1.36,.42-.21,.83-.38,1.25-.52,1.49-.66,3.02-1.22,4.55-1.67t.03,0c.73-.24,1.46-.45,2.19-.66,.03,0,.07-.03,.1-.03,.94-.24,1.88-.45,2.81-.66,3.06-.59,6.12-.9,9.17-.9,14.18,0,28.95,6.95,41.98,19.46,.31-2.88,.69-5.8,1.11-8.76,.35-2.64,.76-5.32,1.22-8.03-13.31-8.17-28.25-12.37-44.3-12.37Zm-36.45,20.36c-.49-.35-.97-.69-1.46-1.08-.49-.35-.94-.73-1.39-1.08-.63-.52-1.29-1.04-1.88-1.6-.63-.52-1.22-1.04-1.74-1.6-.1-.1-.21-.21-.31-.31-.66-.59-1.25-1.22-1.84-1.84-.52,.31-1.04,.63-1.56,.97,1.53,3.44,3.68,8.24,6.29,13.83,1.36-1.29,2.75-2.47,4.14-3.58,.8-.66,1.63-1.29,2.43-1.88-.9-.59-1.81-1.22-2.68-1.84Zm-20.88,27.42v.07c.07-.1,.14-.24,.21-.35-.07,.1-.14,.17-.21,.28Zm57.34-47.78c-4.48,0-8.86,.35-13.1,.97-1.42,.21-2.85,.45-4.24,.76-1.39,.28-2.81,.59-4.17,.97-1.39,.35-2.75,.73-4.14,1.18-1.36,.42-2.71,.87-4.03,1.39-.66,.21-1.29,.45-1.91,.73-.17,.03-.38,.1-.56,.21v14.77c.97-.69,1.91-1.32,2.92-1.95,2.05-1.32,4.1-2.5,6.22-3.54,.94-.49,1.91-.94,2.88-1.36,.42-.21,.83-.38,1.25-.52,1.49-.66,3.02-1.22,4.55-1.67t.03,0c.73-.24,1.46-.45,2.19-.66,.03,0,.07-.03,.1-.03,.94-.24,1.88-.45,2.81-.66,3.06-.59,6.12-.9,9.17-.9,14.18,0,28.95,6.95,41.98,19.46,.31-2.88,.69-5.8,1.11-8.76,.35-2.64,.76-5.32,1.22-8.03-13.31-8.17-28.25-12.37-44.3-12.37Zm-37.91,19.29c-.49-.35-.94-.73-1.39-1.08-.63-.52-1.29-1.04-1.88-1.6-.63-.52-1.22-1.04-1.74-1.6-.1-.1-.21-.21-.31-.31-.66-.59-1.25-1.22-1.84-1.84-.52,.31-1.04,.63-1.56,.97,1.53,3.44,3.68,8.24,6.29,13.83,1.36-1.29,2.75-2.47,4.14-3.58,.8-.66,1.63-1.29,2.43-1.88-.9-.59-1.81-1.22-2.68-1.84-.49-.35-.97-.69-1.46-1.08Zm-19.42,28.56c.07-.1,.14-.24,.21-.35-.07,.1-.14,.17-.21,.28v.07Zm132.11-6.08c-.38-.52-.73-1.04-1.15-1.56-8.55-11.85-18.42-21.13-29.33-27.83-13.31-8.17-28.25-12.37-44.3-12.37-4.48,0-8.86,.35-13.1,.97-1.42,.21-2.85,.45-4.24,.76-1.39,.28-2.81,.59-4.17,.97-1.39,.35-2.75,.73-4.14,1.18-1.36,.42-2.71,.87-4.03,1.39-.66,.21-1.29,.45-1.91,.73-.17,.03-.38,.1-.56,.21-.76,.31-1.53,.63-2.29,.97-1.53,.66-3.02,1.39-4.52,2.15-1.29,.66-2.54,1.36-3.75,2.09-.8,.45-1.6,.9-2.36,1.42-.52,.31-1.04,.63-1.56,.97-2.81,1.84-5.53,3.86-8.17,6.01-.14,.1-.24,.21-.35,.28v.03c-.73,.59-1.46,1.22-2.19,1.88-.07,.03-.1,.1-.17,.17-.52,.42-1.01,.87-1.49,1.36-.76,.69-1.53,1.42-2.29,2.19-.69,.66-1.36,1.36-2.02,2.05-.42,.42-.83,.8-1.18,1.22-.45,.45-.87,.94-1.29,1.42-.73,.76-1.39,1.53-2.05,2.33-.69,.76-1.32,1.6-1.98,2.4-1.74,2.08-3.37,4.27-4.97,6.57-.97,1.39-1.91,2.78-2.85,4.24-.45,.73-.9,1.46-1.32,2.19-.17,.21-.31,.42-.42,.63-.59,.94-1.15,1.84-1.67,2.81-1.01,1.7-1.95,3.41-2.85,5.18-.9,1.77-1.81,3.54-2.64,5.35-.87,1.81-1.67,3.65-2.47,5.53,0,0,0,.03-.03,.07-.59,1.46-1.22,2.92-1.77,4.41-.03,.1-.07,.17-.1,.28-.28,.76-.59,1.49-.83,2.26-.35,.97-.7,1.91-1.01,2.88-.31,.83-.59,1.67-.87,2.54-.56,1.63-1.04,3.27-1.53,4.93-.59,1.98-1.11,4-1.63,6.05-.52,2.02-1.01,4.07-1.42,6.15-.45,2.08-.87,4.17-1.22,6.25-1.53,8.41-2.43,17.1-2.71,25.92-.07,1.25-.07,2.54-.1,3.79-.03,.94-.03,1.88-.03,2.81,0,1.11,0,2.22,.03,3.34,0,.21,0,.42,.03,.63,.03,1.29,.07,2.57,.1,3.89,.07,1.53,.17,3.09,.28,4.62,.07,1.42,.17,2.81,.31,4.24,.03,.35,.07,.73,.1,1.08,.1,1.36,.24,2.75,.42,4.1,.14,1.32,.31,2.64,.52,3.96,0,.24,.03,.45,.07,.69,.14,.9,.28,1.77,.42,2.68,.07,.52,.14,1.01,.21,1.49,3.96,23.87,12.47,45.76,24.98,63.56,19.18,27.31,45.03,41.77,74.78,41.77s55.63-14.46,74.78-41.77c.42-.63,.87-1.25,1.29-1.88,2.22-3.34,4.34-6.81,6.29-10.39,9.03-16.33,15.15-35.27,18-55.46,1.11-7.58,1.7-15.32,1.81-23.21,.07-1.11,.07-2.22,.07-3.34,0-35.55-9.76-69.01-27.45-94.24Zm5.11,120.79c-1.36,9.14-3.34,17.79-5.91,25.92v.03c-3.09,9.9-6.98,19.01-11.54,27.21-16.09,29.19-40,46.63-62.44,46.63-32.25,0-67.59-36.07-78.43-91.22-.28-1.39-.52-2.75-.76-4.17-.24-1.46-.49-2.92-.69-4.41-.21-1.36-.38-2.71-.56-4.1-.73-6.15-1.18-12.54-1.29-19.11-.03-1.11-.03-2.22-.03-3.34,0-.94,0-1.88,.03-2.81,.07-4.31,.28-8.51,.59-12.65,.17-2.08,.38-4.14,.63-6.15,.24-2.05,.49-4.03,.8-6.01,.31-1.98,.63-3.96,1.01-5.91,.28-1.46,.56-2.95,.87-4.38,.1-.7,.28-1.39,.45-2.05,.31-1.32,.63-2.61,.94-3.89,.17-.83,.42-1.67,.66-2.5,.17-.59,.31-1.22,.49-1.84,.21-.76,.42-1.56,.7-2.33,.45-1.56,.94-3.06,1.42-4.55,.07-.28,.17-.56,.28-.83,.31-.9,.63-1.81,.97-2.68,.1-.38,.21-.73,.35-1.08,.14-.38,.24-.76,.42-1.11,.59-1.6,1.22-3.16,1.88-4.73,.03-.17,.1-.31,.21-.49,.31-.76,.63-1.53,.97-2.29,.42-.97,.83-1.91,1.29-2.85,.66-1.39,1.32-2.78,2.02-4.14,.76-1.49,1.56-2.99,2.36-4.48,.8-1.46,1.63-2.88,2.5-4.31,.87-1.39,1.7-2.78,2.61-4.1,.07-.1,.14-.24,.21-.35,.94-1.46,1.95-2.88,2.95-4.27,.66-.94,1.35-1.84,2.05-2.71,1.18-1.6,2.43-3.13,3.75-4.59v-.03c.21-.24,.42-.49,.63-.73,.9-1.04,1.81-2.02,2.75-2.99,.94-.97,1.84-1.91,2.78-2.78,.63-.63,1.25-1.22,1.88-1.74,1.36-1.29,2.75-2.47,4.14-3.58,.8-.66,1.63-1.29,2.43-1.88,.52-.45,1.08-.83,1.63-1.22,.97-.69,1.91-1.32,2.92-1.95,2.05-1.32,4.1-2.5,6.22-3.54,.94-.49,1.91-.94,2.88-1.36,.42-.21,.83-.38,1.25-.52,1.49-.66,3.02-1.22,4.55-1.67t.03,0c.73-.24,1.46-.45,2.19-.66,.03,0,.07-.03,.1-.03,.94-.24,1.88-.45,2.81-.66,3.06-.59,6.12-.9,9.17-.9,14.18,0,28.95,6.95,41.98,19.46,3.72,3.54,7.26,7.54,10.6,11.95,17.13,22.41,29.19,55.49,29.19,94.9,0,1.11,0,2.22-.07,3.34-.1,8.03-.73,15.78-1.81,23.21Zm-137.22-114.78v.07c.07-.1,.14-.24,.21-.35-.07,.1-.14,.17-.21,.28Zm20.88-27.42c-.49-.35-.97-.69-1.46-1.08-.49-.35-.94-.73-1.39-1.08-.63-.52-1.29-1.04-1.88-1.6-.63-.52-1.22-1.04-1.74-1.6-.1-.1-.21-.21-.31-.31-.66-.59-1.25-1.22-1.84-1.84-.52,.31-1.04,.63-1.56,.97,1.53,3.44,3.68,8.24,6.29,13.83,1.36-1.29,2.75-2.47,4.14-3.58,.8-.66,1.63-1.29,2.43-1.88-.9-.59-1.81-1.22-2.68-1.84Zm36.45-20.36c-4.48,0-8.86,.35-13.1,.97-1.42,.21-2.85,.45-4.24,.76-1.39,.28-2.81,.59-4.17,.97-1.39,.35-2.75,.73-4.14,1.18-1.36,.42-2.71,.87-4.03,1.39-.66,.21-1.29,.45-1.91,.73-.17,.03-.38,.1-.56,.21v14.77c.97-.69,1.91-1.32,2.92-1.95,2.05-1.32,4.1-2.5,6.22-3.54,.94-.49,1.91-.94,2.88-1.36,.42-.21,.83-.38,1.25-.52,1.49-.66,3.02-1.22,4.55-1.67t.03,0c.73-.24,1.46-.45,2.19-.66,.03,0,.07-.03,.1-.03,.94-.24,1.88-.45,2.81-.66,3.06-.59,6.12-.9,9.17-.9,14.18,0,28.95,6.95,41.98,19.46,.31-2.88,.69-5.8,1.11-8.76,.35-2.64,.76-5.32,1.22-8.03-13.31-8.17-28.25-12.37-44.3-12.37Zm-57.34,47.78v.07c.07-.1,.14-.24,.21-.35-.07,.1-.14,.17-.21,.28Zm20.88-27.42c-.49-.35-.97-.69-1.46-1.08-.49-.35-.94-.73-1.39-1.08-.63-.52-1.29-1.04-1.88-1.6-.63-.52-1.22-1.04-1.74-1.6-.1-.1-.21-.21-.31-.31-.66-.59-1.25-1.22-1.84-1.84-.52,.31-1.04,.63-1.56,.97,1.53,3.44,3.68,8.24,6.29,13.83,1.36-1.29,2.75-2.47,4.14-3.58,.8-.66,1.63-1.29,2.43-1.88-.9-.59-1.81-1.22-2.68-1.84Zm36.45-20.36c-4.48,0-8.86,.35-13.1,.97-1.42,.21-2.85,.45-4.24,.76-1.39,.28-2.81,.59-4.17,.97-1.39,.35-2.75,.73-4.14,1.18-1.36,.42-2.71,.87-4.03,1.39-.66,.21-1.29,.45-1.91,.73-.17,.03-.38,.1-.56,.21v14.77c.97-.69,1.91-1.32,2.92-1.95,2.05-1.32,4.1-2.5,6.22-3.54,.94-.49,1.91-.94,2.88-1.36,.42-.21,.83-.38,1.25-.52,1.49-.66,3.02-1.22,4.55-1.67t.03,0c.73-.24,1.46-.45,2.19-.66,.03,0,.07-.03,.1-.03,.94-.24,1.88-.45,2.81-.66,3.06-.59,6.12-.9,9.17-.9,14.18,0,28.95,6.95,41.98,19.46,.31-2.88,.69-5.8,1.11-8.76,.35-2.64,.76-5.32,1.22-8.03-13.31-8.17-28.25-12.37-44.3-12.37Z"/><path class="cls-13" d="M3126.04,1972.17c0,16.14,7.08,29.96,17.06,35.42,2.95,1.62,6.18,2.51,9.53,2.51,14.69,0,26.63-16.99,26.63-37.93s-11.95-37.95-26.63-37.95c-3.35,0-6.59,.89-9.53,2.51-9.98,5.47-17.06,19.27-17.06,35.43Z"/><path class="cls-13" d="M3221.23,2010.09s-29.86,72.98-58.69,75.9c0,0-35.83,6.04-55.6-25.79,0,0,64.86,27.73,114.28-50.11Z"/><path class="cls-17" d="M3126.04,1972.17c0,16.14,7.08,29.96,17.06,35.42,9.98-5.45,17.06-19.27,17.06-35.42s-7.08-29.96-17.06-35.43c-9.98,5.47-17.06,19.27-17.06,35.43Z"/><path class="cls-17" d="M3050.4,1972.17c0,10.48,.86,20.76,2.5,30.72l21.31,4.39c-2.17-10.98-3.35-22.73-3.35-35.11,0-68.63,36.61-118.08,72.61-125.42l-3.93-9.63c-24.22,3.63-45.37,17.55-61.69,40.77-17.71,25.25-27.45,58.73-27.45,94.28Z"/></g><path class="cls-10" d="M1897.51,944.86l-216.88,242.23c-11.45,12.79-27.8,20.1-44.96,20.1h-90.61c-12.87,0-19.15-15.72-9.78-24.58l249.32-236.05c7.7-.18,15.35-.34,22.89-.5,21.68-.42,42.72-.74,62.84-.98,9.26-.11,18.33-.16,27.19-.21Z"/><path class="cls-10" d="M1724.59,948.02l-134.92,123.21c-8.91,8.18-20.57,12.68-32.67,12.68h-36.53c-8.76,0-13.5-10.21-7.86-16.9l97.34-115.35c14.85-.55,29.77-1.05,44.65-1.53h.03c10.89-.34,21.76-.69,32.57-1.03,10.1-.32,20.15-.61,30.14-.9,2.43-.05,4.83-.13,7.25-.18Z"/><path class="cls-32" d="M1536.72,1906.78l-4.83,26.83c-.38,2.12-1.01,4.17-1.88,6.08-4.2,9.45-13.62,15.81-24.32,15.81H671.96c-2.15-4.59-3.89-9.42-5.14-14.42-.59-2.33-1.18-4.59-1.7-6.85-1.42-5.8-2.71-11.4-3.86-16.82-.83-4-1.63-7.89-2.36-11.71-.24-1.22-.49-2.43-.69-3.65-.83-4.52-1.6-8.9-2.26-13.17-.38-2.22-.7-4.45-1.01-6.6h861.32c11.12,0,19.91,8.62,20.74,19.15,.14,1.74,.03,3.54-.28,5.35Z"/><rect class="cls-13" x="1338.63" y="1902.04" width="118.92" height="32.18" rx="10.75" ry="10.75"/><rect class="cls-28" x="745.32" y="1995.91" width="703.49" height="9.35"/><path class="cls-32" d="M1216.57,1695.48h-453.73c-7.25,0-13.45-5.23-14.68-12.37l-1.39-8.09c-.85-4.95,2.96-9.47,7.99-9.47h479.57c5.63,0,9.29,5.93,6.77,10.96l-2.77,5.53c-4.13,8.24-12.55,13.44-21.77,13.44Z"/><rect class="cls-32" x="2297.99" y="988.69" width="639.06" height="1009.99"/><g><g><g><rect class="cls-4" x="2633.85" y="1491.61" width="234.23" height="205.65"/><g><g><g><polygon class="cls-12" points="2717.56 1647.03 2720.56 1651.88 2719.59 1651.88 2719.59 1666.74 2715.52 1666.74 2715.52 1651.88 2714.56 1651.88 2717.56 1647.03"/><polygon class="cls-12" points="2707.66 1647.03 2710.65 1651.88 2709.69 1651.88 2709.69 1666.74 2705.62 1666.74 2705.62 1651.88 2704.66 1651.88 2707.66 1647.03"/></g><rect class="cls-12" x="2701.62" y="1669.01" width="21.96" height="2.17"/></g><g><path class="cls-12" d="M2687.37,1671.18c2.33,0,3.83-1.6,3.83-4.09h-1.86c0,.83-.26,2.22-1.96,2.22-1.82,0-2.4-.16-2.4-3.56v-18.51h-1.87v18.51c0,3.52,.67,5.43,4.27,5.43Z"/><path class="cls-12" d="M2672.28,1656.98c0,.09,0,.18,.02,.27,.57-1.08,1.72-1.82,3.03-1.82s2.45,.73,3.02,1.83c.62-.9,1.65-1.5,2.82-1.5s2.25,.6,2.86,1.52c.63-.91,1.67-1.52,2.85-1.52s2.21,.6,2.84,1.5c.56-1.1,1.7-1.83,3.02-1.83s2.44,.72,3.02,1.79c0-.08,0-.17,0-.24,0-4.08-5.24-8.63-11.73-8.63s-11.75,4.55-11.75,8.63Z"/></g><g><path class="cls-12" d="M2658.92,1652.73l3.7,4.64c1.59-3.23,2.08-7.49,2.08-10.52,0-.16,0-.3-.01-.46h-5.58l4.26,6.34h-4.44Z"/><path class="cls-12" d="M2647.52,1646.85c0,5.5,1.74,15.16,8.6,15.16,2.43,0,4.2-1.19,5.5-2.95l-6.48-8.14h4.82l-3.04-4.52h-9.39c-.01,.15-.01,.3-.01,.46Z"/><rect class="cls-12" x="2655.2" y="1659.37" width="1.83" height="10.6"/><rect class="cls-12" x="2652.58" y="1669.01" width="7.06" height="2.17"/></g></g><rect class="cls-35" x="2735.53" y="1491.61" width="30.21" height="205.65"/></g><rect class="cls-22" x="2868.07" y="1491.61" width="25.2" height="205.56"/><rect class="cls-5" x="2633.85" y="1491.61" width="234.23" height="5.55"/></g><g><g><rect class="cls-4" x="2313.49" y="1763.77" width="234.23" height="205.65"/><g><g><g><polygon class="cls-12" points="2397.2 1919.19 2400.19 1924.03 2399.23 1924.03 2399.23 1938.89 2395.17 1938.89 2395.17 1924.03 2394.2 1924.03 2397.2 1919.19"/><polygon class="cls-12" points="2387.3 1919.19 2390.3 1924.03 2389.34 1924.03 2389.34 1938.89 2385.26 1938.89 2385.26 1924.03 2384.3 1924.03 2387.3 1919.19"/></g><rect class="cls-12" x="2381.27" y="1941.18" width="21.96" height="2.16"/></g><g><path class="cls-12" d="M2367.01,1943.34c2.32,0,3.82-1.61,3.82-4.09h-1.86c0,.83-.26,2.22-1.96,2.22-1.82,0-2.4-.16-2.4-3.57v-18.5h-1.86v18.5c0,3.53,.67,5.44,4.27,5.44Z"/><path class="cls-12" d="M2351.92,1929.15c0,.09,0,.18,.02,.27,.57-1.08,1.72-1.82,3.03-1.82s2.45,.74,3.03,1.83c.62-.89,1.65-1.49,2.82-1.49s2.24,.6,2.85,1.52c.64-.91,1.67-1.52,2.85-1.52s2.21,.6,2.84,1.49c.57-1.09,1.7-1.83,3.02-1.83s2.44,.72,3.02,1.79c.01-.07,.01-.17,.01-.24,0-4.08-5.25-8.63-11.74-8.63s-11.75,4.55-11.75,8.63Z"/></g><g><path class="cls-12" d="M2338.55,1924.89l3.7,4.64c1.59-3.23,2.08-7.5,2.08-10.52,0-.16,0-.3-.02-.46h-5.57l4.26,6.34h-4.45Z"/><path class="cls-12" d="M2327.17,1919.01c0,5.5,1.74,15.15,8.59,15.15,2.43,0,4.2-1.19,5.5-2.95l-6.48-8.14h4.81l-3.04-4.52h-9.39c0,.15,0,.29,0,.46Z"/><rect class="cls-12" x="2334.83" y="1931.53" width="1.83" height="10.6"/><rect class="cls-12" x="2332.22" y="1941.18" width="7.06" height="2.16"/></g></g><rect class="cls-35" x="2415.16" y="1763.77" width="30.21" height="205.65"/></g><rect class="cls-22" x="2547.72" y="1763.77" width="25.2" height="205.56"/><rect class="cls-5" x="2313.49" y="1763.77" width="234.23" height="5.55"/></g><g><g><rect class="cls-4" x="2861.08" y="1763.67" width="234.23" height="205.66"/><g><g><g><polygon class="cls-12" points="2944.8 1919.1 2947.79 1923.94 2946.82 1923.94 2946.82 1938.8 2942.76 1938.8 2942.76 1923.94 2941.79 1923.94 2944.8 1919.1"/><polygon class="cls-12" points="2934.89 1919.1 2937.89 1923.94 2936.93 1923.94 2936.93 1938.8 2932.86 1938.8 2932.86 1923.94 2931.9 1923.94 2934.89 1919.1"/></g><rect class="cls-12" x="2928.86" y="1941.07" width="21.97" height="2.17"/></g><g><path class="cls-12" d="M2914.6,1943.25c2.33,0,3.83-1.61,3.83-4.09h-1.86c0,.84-.26,2.22-1.97,2.22-1.82,0-2.4-.16-2.4-3.56v-18.51h-1.87v18.51c0,3.52,.67,5.44,4.26,5.44Z"/><path class="cls-12" d="M2899.52,1929.06c0,.09,0,.18,.02,.27,.58-1.08,1.72-1.82,3.04-1.82s2.45,.74,3.02,1.83c.62-.89,1.65-1.49,2.82-1.49s2.24,.6,2.85,1.52c.63-.91,1.67-1.52,2.85-1.52s2.21,.6,2.84,1.49c.57-1.09,1.7-1.83,3.03-1.83s2.44,.72,3.02,1.79c0-.08,0-.16,0-.24,0-4.08-5.24-8.64-11.74-8.64s-11.75,4.55-11.75,8.64Z"/></g><g><path class="cls-12" d="M2886.15,1924.8l3.7,4.64c1.59-3.23,2.08-7.49,2.08-10.53,0-.16,0-.3-.02-.45h-5.58l4.26,6.33h-4.45Z"/><path class="cls-12" d="M2874.76,1918.91c0,5.5,1.74,15.16,8.59,15.16,2.43,0,4.2-1.18,5.5-2.95l-6.48-8.14h4.82l-3.03-4.52h-9.39c-.01,.15-.01,.29-.01,.45Z"/><rect class="cls-12" x="2882.43" y="1931.44" width="1.83" height="10.6"/><rect class="cls-12" x="2879.81" y="1941.07" width="7.06" height="2.17"/></g></g><rect class="cls-35" x="2962.76" y="1763.67" width="30.21" height="205.66"/></g><rect class="cls-22" x="3095.31" y="1763.67" width="25.2" height="205.56"/><rect class="cls-5" x="2861.08" y="1763.67" width="234.23" height="5.55"/></g><g><g><rect class="cls-5" x="2861.08" y="1443.88" width="234.23" height="319.79"/><g><g><g><polygon class="cls-12" points="3074.82 1485.45 3077.82 1490.28 3076.85 1490.28 3076.85 1505.15 3072.79 1505.15 3072.79 1490.28 3071.82 1490.28 3074.82 1485.45"/><polygon class="cls-12" points="3064.92 1485.45 3067.92 1490.28 3066.96 1490.28 3066.96 1505.15 3062.89 1505.15 3062.89 1490.28 3061.92 1490.28 3064.92 1485.45"/></g><rect class="cls-12" x="3058.89" y="1507.42" width="21.97" height="2.17"/></g><g><path class="cls-12" d="M3044.63,1509.59c2.33,0,3.83-1.6,3.83-4.08h-1.86c0,.83-.26,2.22-1.97,2.22-1.82,0-2.39-.16-2.39-3.57v-18.51h-1.87v18.51c0,3.52,.67,5.43,4.26,5.43Z"/><path class="cls-12" d="M3029.55,1495.4c0,.09,0,.18,.02,.27,.57-1.09,1.72-1.82,3.03-1.82s2.45,.73,3.02,1.83c.63-.89,1.66-1.49,2.82-1.49s2.24,.6,2.85,1.51c.64-.9,1.67-1.51,2.85-1.51s2.21,.6,2.84,1.49c.57-1.09,1.7-1.83,3.02-1.83s2.44,.72,3.02,1.79c0-.08,0-.17,0-.24,0-4.08-5.25-8.62-11.74-8.62s-11.75,4.54-11.75,8.62Z"/></g><g><path class="cls-12" d="M3016.17,1491.14l3.71,4.64c1.59-3.23,2.08-7.5,2.08-10.52,0-.16,0-.3-.02-.45h-5.57l4.26,6.33h-4.45Z"/><path class="cls-12" d="M3004.79,1485.26c0,5.49,1.74,15.16,8.59,15.16,2.43,0,4.2-1.19,5.5-2.95l-6.48-8.14h4.81l-3.03-4.51h-9.39c0,.15,0,.29,0,.45Z"/><rect class="cls-12" x="3012.46" y="1497.78" width="1.83" height="10.6"/><rect class="cls-12" x="3009.84" y="1507.42" width="7.06" height="2.17"/></g></g><rect class="cls-35" x="2962.76" y="1443.88" width="30.21" height="319.79"/></g><rect class="cls-22" x="3095.31" y="1443.88" width="25.2" height="319.63"/><rect class="cls-5" x="2861.08" y="1443.88" width="234.23" height="8.64"/></g><g><g><rect class="cls-5" x="2517.89" y="1697.26" width="309.86" height="272.07"/><g><g><g><polygon class="cls-12" points="2628.63 1902.88 2632.6 1909.29 2631.32 1909.29 2631.32 1928.95 2625.94 1928.95 2625.94 1909.29 2624.66 1909.29 2628.63 1902.88"/><polygon class="cls-12" points="2615.54 1902.88 2619.5 1909.29 2618.23 1909.29 2618.23 1928.95 2612.85 1928.95 2612.85 1909.29 2611.57 1909.29 2615.54 1902.88"/></g><rect class="cls-12" x="2607.55" y="1931.95" width="29.06" height="2.87"/></g><g><path class="cls-12" d="M2588.69,1934.83c3.08,0,5.06-2.13,5.06-5.41h-2.47c0,1.1-.34,2.93-2.59,2.93-2.41,0-3.17-.21-3.17-4.72v-24.48h-2.47v24.48c0,4.66,.89,7.19,5.64,7.19Z"/><path class="cls-12" d="M2568.73,1916.05c0,.12,0,.24,.03,.37,.76-1.44,2.27-2.42,4.01-2.42s3.24,.98,4,2.42c.82-1.18,2.19-1.97,3.73-1.97s2.96,.8,3.77,2.01c.84-1.2,2.21-2.01,3.77-2.01s2.92,.8,3.76,1.97c.74-1.44,2.24-2.42,3.99-2.42s3.23,.96,4,2.38c.02-.1,.02-.22,.02-.32,0-5.4-6.94-11.41-15.53-11.41s-15.55,6.02-15.55,11.41Z"/></g><g><path class="cls-12" d="M2551.05,1910.41l4.89,6.14c2.11-4.26,2.75-9.91,2.75-13.91,0-.21,0-.4-.02-.6h-7.38l5.64,8.38h-5.89Z"/><path class="cls-12" d="M2535.99,1902.64c0,7.27,2.3,20.05,11.37,20.05,3.21,0,5.56-1.57,7.27-3.9l-8.57-10.77h6.37l-4.01-5.98h-12.43c0,.21,0,.39,0,.6Z"/><rect class="cls-12" x="2546.12" y="1919.21" width="2.43" height="14.02"/><rect class="cls-12" x="2542.66" y="1931.95" width="9.35" height="2.87"/></g></g><rect class="cls-35" x="2652.4" y="1697.26" width="39.97" height="272.07"/></g><rect class="cls-5" x="2827.75" y="1697.26" width="33.33" height="271.93"/><polygon class="cls-5" points="2861.08 1969.2 2804.89 1969.42 2827.75 1697.26 2861.08 1697.26 2861.08 1969.2"/><rect class="cls-5" x="2517.89" y="1697.26" width="309.86" height="7.35"/></g></g><rect class="cls-10" x="946.9" y="1655.64" width="232.07" height="9.9"/><rect class="cls-32" x="2935.59" y="988.69" width="635.54" height="1009.99"/><path class="cls-10" d="M1939.46,1371.2h-34.82c-4.47,0-8.12-3.66-8.12-8.12h0c0-4.47,3.66-8.12,8.12-8.12h34.82c4.47,0,8.12,3.66,8.12,8.12h0c0,4.47-3.66,8.12-8.12,8.12Z"/><rect class="cls-7" x="2887.99" y="965.49" width="635.54" height="1009.99"/><g><ellipse class="cls-19" cx="3016.26" cy="1531.5" rx="34.13" ry="20.97"/><path class="cls-32" d="M3042.78,1528.49l-69.92-2.8v14.22l68.21-2.05c2.61-.08,4.69-2.22,4.69-4.83v-1.44c0-1.67-1.31-3.03-2.98-3.1Z"/><path class="cls-32" d="M2977.6,1528.97v-2.22c0-2.6-2.11-4.71-4.71-4.71h-19.79c-1.97,0-3.57,1.6-3.57,3.57v11.06c0,3.59,2.91,6.51,6.51,6.51h18.07c1.93,0,3.49-1.56,3.49-3.49v-10.73Z"/><circle class="cls-17" cx="2963.92" cy="1530.62" r="4.83"/></g><path class="cls-10" d="M730.76,1674.57c-.74,16.11-14.08,30.3-33.68,39.03,.47-3.59,.69-7.2,.63-10.84-.24-15.43,.9-30.8,3.03-45.91,.45-3.16,.92-6.3,1.45-9.44,22.34,4.51,29.09,15.24,28.56,27.16Z"/><path class="cls-13" d="M700.53,1912.8v10.67c0,5.94-4.83,10.77-10.74,10.77h-24.67c-1.42-5.8-2.71-11.4-3.86-16.82-.83-4-1.63-7.89-2.36-11.71-.24-1.22-.49-2.43-.69-3.65h31.59c5.91,0,10.74,4.8,10.74,10.74Z"/><path class="cls-8" d="M3635.44,921.37h-1576.43c-3.57,0-6.5-2.92-6.5-6.5h0c0-3.57,2.92-6.5,6.5-6.5h1576.43c3.57,0,6.5,2.92,6.5,6.5h0c0,3.57-2.92,6.5-6.5,6.5Z"/></g><g><path class="cls-27" d="M3469.96,2247.45c0,12.92-116.42,23.43-260.02,23.43-111.12,0-205.96-6.3-243.17-15.13h-.04c-10.88-2.58-16.81-5.37-16.81-8.3,0-10.95,82.93-20.14,195.16-22.72,10.34-.25,20.93-.43,31.73-.57,10.84-.11,21.9-.18,33.13-.18h3.79c7.58,0,15.06,.04,22.47,.11h.04c2.29,.04,4.54,.07,6.83,.07,1.07,.04,2.18,.04,3.29,.07,19.07,.21,37.49,.64,54.99,1.25,10.09,.32,19.89,.72,29.34,1.18,13.7,.64,26.69,1.4,38.78,2.25,17.75,1.25,33.67,2.68,47.3,4.29,.75,.11,1.5,.18,2.22,.25,4.76,.61,9.23,1.22,13.42,1.82,23.83,3.54,37.57,7.73,37.57,12.16Z"/><g><g><path class="cls-24" d="M3198.65,2233.91c-.03,3.68,3.4,7.28,9.3,9.22,10.19,3.35,54.07,3.45,62.1,0,8.03-3.45,24.72-7.67,24.72-7.67l2.47,2.47s16.99-1.85,21.63-1.85,10.19,1.85,11.12-2.17c.56-2.42,.79-7.1,.68-10.69-.08-2.36-.3-4.26-.68-4.74-.92-1.22-3.65-21.57-3.65-21.57l-52.9-11.2c-4.63,4.32-27.19,25.65-33.37,29.36-6.17,3.71-25.95,6.17-35.53,11.29-4.05,2.15-5.88,4.87-5.9,7.55Z"/><path class="cls-23" d="M3198.65,2233.91c-.03,3.68,3.4,7.28,9.3,9.22,10.19,3.35,54.07,3.45,62.1,0,8.03-3.45,24.72-7.67,24.72-7.67l2.47,2.47s11.46,.41,16.1,.41,15.72-.41,16.65-4.44c.56-2.42,.79-7.1,.68-10.69-7.72-.77-19.39-.1-26.94,1.63-9.88,2.27-25.65,9.69-40.48,12.77-14.83,3.09-55.65,1.86-64.59-3.71h-.01Z"/><path d="M3226.85,2226.15c4.95,0,10.33-.21,14.9-.91,6.08-.92,15.29-4.62,22.69-7.59,4.74-1.9,8.84-3.54,10.71-3.9,.47-.09,.78-.54,.69-1.02-.09-.47-.54-.78-1.02-.7-2.04,.38-6.01,1.97-11.03,3.99-7.32,2.94-16.43,6.59-22.31,7.48-9.58,1.45-22.91,.74-27.93,.47l-.32-.02c-.52-.06-.89,.34-.92,.82-.03,.48,.34,.89,.82,.92l.32,.02c2.69,.14,7.76,.42,13.38,.42Z"/><path d="M3274.99,2201.67c.52,0,1.03-.23,1.38-.67,.59-.76,.45-1.85-.3-2.44-2.88-2.24-10.28-6.04-10.6-6.2-.86-.44-1.91-.1-2.35,.76-.44,.86-.1,1.91,.76,2.34,.07,.04,7.43,3.82,10.05,5.85,.32,.25,.69,.37,1.07,.37Z"/><path d="M3269.24,2206.97c.52,0,1.03-.23,1.38-.67,.59-.76,.45-1.85-.31-2.44-2.88-2.24-10.28-6.05-10.6-6.2-.85-.44-1.91-.1-2.34,.76-.44,.86-.1,1.91,.76,2.34,.07,.04,7.43,3.82,10.05,5.85,.32,.25,.69,.37,1.07,.37Z"/><path d="M3263.66,2212.51c.52,0,1.03-.23,1.38-.67,.59-.76,.45-1.85-.3-2.44-2.88-2.24-10.28-6.05-10.6-6.2-.85-.44-1.91-.1-2.35,.76-.44,.86-.1,1.91,.76,2.34,.07,.04,7.43,3.82,10.05,5.85,.32,.25,.69,.37,1.07,.37Z"/></g><g><path class="cls-24" d="M3368.34,2258.73c3.67,.34,41.03,2,44.7,0,3.67-2.01,17.35-3.35,17.68-4.34,.15-.48,1.01-6.49,1.45-13.38,.46-7.35,.45-15.69-1.45-19.3-3.68-7.01-3.01-19.36-3.01-28.03l-45.31,1.52s-16.04,35.41-15.74,48.13v.06c-5.34,4.34-2,15.01,1.67,15.35Z"/><path class="cls-23" d="M3368.34,2258.73c3.67,.34,41.03,2,44.7,0,3.67-2.01,17.35-3.35,17.68-4.34,.15-.48,1.01-6.49,1.45-13.38-6.09,4.5-16.81,9.32-19.47,10.39-3.33,1.34-34.69,0-39.7,0s-6.54-4.78-6.34-8.01c-5.34,4.34-2,15.01,1.67,15.35Z"/><path d="M3387.42,2243.86c6.49,0,14.19-.93,21.59-3.62,15.29-5.56,15.66-20.09,14.59-24.75-.11-.49-.61-.8-1.09-.68-.49,.11-.8,.6-.68,1.09,.98,4.25,.61,17.51-13.43,22.62-14.73,5.36-30.57,3.37-34.7,1.64-.46-.19-1,.02-1.19,.49-.2,.47,.02,1,.49,1.19,2.5,1.05,7.84,2.01,14.44,2.01Z"/><path d="M3382.42,2218.86c.12,0,.23-.01,.35-.03,3.2-.63,15.81-.63,19.27,0,1,.19,1.94-.48,2.12-1.47,.18-.99-.48-1.94-1.47-2.12-3.89-.71-17-.71-20.62,0-.99,.19-1.63,1.15-1.44,2.14,.17,.87,.93,1.47,1.79,1.47Z"/><path d="M3382.42,2211.4c.12,0,.23-.01,.35-.03,3.2-.62,15.81-.62,19.27,0,1,.18,1.94-.48,2.12-1.47,.18-.99-.48-1.94-1.47-2.12-3.89-.7-17-.7-20.62,0-.99,.19-1.63,1.15-1.44,2.14,.17,.87,.93,1.47,1.79,1.47Z"/><path d="M3384.75,2205.03c.12,0,.23-.01,.35-.03,3.2-.63,15.81-.62,19.27,0,1,.18,1.94-.48,2.12-1.47,.18-.99-.48-1.94-1.47-2.12-3.89-.7-17-.7-20.62,0-.99,.19-1.63,1.15-1.44,2.14,.17,.87,.93,1.47,1.79,1.47Z"/></g><path class="cls-30" d="M3477.17,1591.19s-13.27,218.94-17.7,241.47c-4.43,22.53-5.23,54.72,0,77.25,5.23,22.53-4.77,205.14-27.3,295.12l-59.75-7.57s11.78-232.36,7.77-257.54c-4.01-25.18-18.49-66.87-21.71-93.5-3.22-26.63-21.63-107.09-21.63-107.09,0,0-55.62,144.5-57.23,161.57-1.61,17.06,46.18,260.09,46.71,296.02,0,0-35.13-2.95-60.87-4.56-9.66-37.01-60.29-223.55-73.75-257.83-13.47-34.27-10.67-74.71,0-125.3,10.67-50.59,49.3-232.83,49.3-232.83l236.16,14.8Z"/><rect class="cls-31" x="3331.59" y="1682.29" width="2.68" height="57.3" transform="translate(-203.01 472.85) rotate(-7.88)"/><path class="cls-10" d="M3237.85,1591.3s94.13,6.68,139.26,10.69c45.13,4,100.06-10.8,100.06-10.8l2.38-78.51-11.61-70.3-3.39-51.4-.59-8.83c13.51,6.02,72.81,7.02,72.81,7.02,0,0,6.03-43.16,6.03-84.32s-16.46-80.12-37.54-98.19c-5.39-4.62-10.31-8.48-15.04-11.82-6.56-4.64-12.78-8.3-19.48-11.7-7.36-3.73-15.31-7.16-24.93-11.23l-95.3-7.09-9.62,2.17-24.32,5.48-43.88,9.89-12.07,124.05v.02l-15.97,164.05-6.79,120.81Z"/><path class="cls-6" d="M3393.26,1193.27c36.93,3.56,52.54-21.36,52.54-21.36,0,0-7.33-8.49-8.49-12.74-.71-2.6,1.03-16.02,2.5-26.05,.3-2.03,.58-3.92,.83-5.55,.53-3.5,.91-5.82,.91-5.82l-73.71-1.54s0,4.99-.16,11.19c-.15,5.75-.44,12.54-.99,17.37-1.16,10.04-6.17,9.89-16.2,16.07,0,0,11.13,25.4,42.77,28.45Z"/><path class="cls-34" d="M3367.69,1131.39l-.82,15.74s29.84,26.89,72.95-14c.3-2.03,.58-3.92,.83-5.55l-72.96,3.82Z"/><path class="cls-6" d="M3430.83,995.23c-29.05-3.85-69.73-20.63-77.59,59.91-7.86,80.54,23.57,90.36,32.41,93.31,8.84,2.95,63.84-.98,74.65-51.07,10.8-50.09,8.39-97.14-29.47-102.15Z"/><path class="cls-26" d="M3424.38,1067.82c-.81,4.25,.83,8.13,3.66,8.67,2.83,.54,5.79-2.46,6.6-6.71,.81-4.25-.83-8.13-3.66-8.67-2.83-.54-5.79,2.46-6.6,6.71Z"/><path class="cls-26" d="M3373.38,1061.69c-.81,4.25,.83,8.13,3.66,8.67,2.83,.54,5.79-2.46,6.6-6.71,.81-4.25-.83-8.13-3.66-8.67-2.83-.54-5.79,2.46-6.6,6.71Z"/><path class="cls-33" d="M3403.61,1089.59c.43,0,.8-.33,.83-.77,.04-.46-.3-.87-.76-.9l-4.82-.4c-4.23-.35-9.05-1.71-9.78-3.38-.07-.15-.25-.56,.33-1.3,2.94-3.78,10.93-14.58,12.58-19.11,.16-.43-.07-.92-.5-1.07-.43-.16-.91,.07-1.07,.5-1.56,4.3-9.62,15.18-12.33,18.65-.98,1.26-.83,2.33-.54,3,1.55,3.53,10.78,4.34,11.17,4.37l4.82,.4s.05,0,.07,0Z"/><path class="cls-10" d="M3415.66,1107.63c-14.86,13.66-34.54,7.23-40.17-9.24,13.98,6.02,24.5,8.33,40.17,9.24Z"/><path class="cls-26" d="M3472.36,1083.81c2.75-5.56-.28-24.9,1.92-33.97,5.51-22.7,16.8-48.82-4.25-66.32-29.47-24.5-80.24-38.95-94.53-2.01-21.69-7.63-23.62,31.24-22.12,71.26,0,0,1.18-11.85,7.2-22.69,6.03-10.84,13.61-30.81,13.61-30.81,16.98,14.37,45.9,6.34,60.36,10.76,14.46,4.42,26.79,15.17,26.79,30.43s-2.2,40.98-2.2,40.98l13.24,2.38Z"/><path class="cls-26" d="M3440.19,1060.17c.75,0,1.49-.27,2.08-.81,1.25-1.15,1.32-3.09,.17-4.34-4.7-5.09-15.66-5.92-22.31-3.26-1.57,.63-2.34,2.42-1.71,3.99,.63,1.57,2.42,2.34,3.99,1.71,4.44-1.78,12.76-1.26,15.52,1.72,.61,.66,1.43,.99,2.26,.99Z"/><path class="cls-26" d="M3389.47,1050.05c1.18,0,2.3-.68,2.81-1.82,.69-1.55,0-3.36-1.56-4.05l-.16-.07c-4.16-1.85-12.82-5.7-19.66-2.28-1.52,.76-2.13,2.6-1.37,4.12,.76,1.52,2.6,2.13,4.12,1.37,4.25-2.12,11.38,1.05,14.42,2.4l.16,.07c.41,.18,.83,.27,1.25,.27Z"/><path class="cls-30" d="M3237.85,1591.3s92.51,22.02,137.64,26.04c45.13,4,101.68-26.14,101.68-26.14l2.38-78.51-11.61-70.3-3.39-51.4-11.74-2.11,5.56-35.96s0-91.43,31.84-158.06c-6.56-4.64-12.78-8.3-19.48-11.7-22.58,43.72-42.8,138.63-42.8,138.63l-100.26-17.77c-2.27-58.58,7.24-110.81,13.2-137.01l-24.32,5.48c-16.17,58.97-20.37,119.42-20.37,119.42l-35.58,14.52v.02l-15.97,164.05-6.79,120.81Z"/><polygon class="cls-9" points="3296.82 1331.52 3447.02 1359.26 3467.94 1209.43 3312.91 1182.37 3296.82 1331.52"/><polygon class="cls-18" points="3272.67 1558.72 3441.56 1576.4 3467.94 1364.36 3447.02 1359.26 3296.82 1331.52 3296.23 1337 3295.17 1346.89 3272.67 1558.72"/><polygon class="cls-5" points="3046 1525.3 3272.67 1558.72 3295.17 1346.89 3296.23 1337 3296.82 1331.52 3095.28 1308.58 3064.27 1306.43 3046 1525.3"/><polygon class="cls-4" points="3095.28 1308.58 3296.82 1331.52 3312.91 1182.37 3108.25 1167.27 3095.28 1308.58"/><path class="cls-6" d="M3392.93,1531.36s101.67-26.5,117.74-36.16c16.06-9.65,14.05-19.69,18.07-41.78,4.02-22.09,8.03-64.25,8.03-64.25l-72.82-7.03-4.48,66.26s-16.13,16.06-28.14,24.09c-12.01,8.03-45.97,23.08-45.97,23.08l7.57,35.79Z"/><path class="cls-33" d="M3460.02,1448.99c10.63-9.98,36.45-13.81,36.71-13.84l-.23-1.59c-1.08,.16-26.58,3.94-37.58,14.26l1.1,1.17Z"/><path class="cls-6" d="M3392.93,1531.36c-9.32,3.1-23.3,12.72-29.85,20.58-6.55,7.87-14.42,19.75-20.1,22.55-5.68,2.8-26.65,6.58-29.71,5.56-3.06-1.02-17.04-8.55-17.04-8.55,0,0-17.92-.71-21.85-4.67-3.93-3.97-.87-9.65,6.99-7.9,7.87,1.75,20.1-.6,24.47-3.14,4.37-2.54,26.65-32.69,29.71-36.19-14.86,6.12-19.23,6.12-24.91,5.68-5.68-.44-9.61-5.68-3.93-8.74,5.68-3.06,17.65-10.92,26.09-17.04,8.43-6.12,20.67-9.18,29.41-6.55,8.74,2.62,14.42,4.81,23.16,2.62l7.57,35.79Z"/><path class="cls-33" d="M3296.27,1572.31c16.49-.82,24.27-9.48,29.95-15.81,1.18-1.31,2.29-2.55,3.33-3.54l-1.11-1.17c-1.09,1.03-2.22,2.3-3.42,3.63-5.49,6.12-13.02,14.49-28.84,15.28l.08,1.61Z"/><path class="cls-33" d="M3310.53,1579.52c6.99,0,22.15-13.29,22.8-13.87l-1.06-1.21c-4.41,3.88-16.96,13.88-22.03,13.45l-.13,1.6c.14,.01,.28,.02,.42,.02Z"/><path class="cls-33" d="M3323.4,1580.15c6.78-.82,13.75-7.79,14.04-8.08l-1.14-1.13c-.07,.07-6.87,6.87-13.09,7.62l.19,1.6Z"/><path class="cls-6" d="M3461.06,1077.59c-4.48,7.01-4.1,15.26,.85,18.42,4.95,3.17,12.6,.06,17.08-6.95,4.48-7.01,4.1-15.26-.85-18.42-4.95-3.17-12.6-.06-17.08,6.95Z"/><path class="cls-6" d="M3345.36,1061.31c0,6.82,2.97,12.35,6.63,12.35s6.63-5.53,6.63-12.35-2.97-12.35-6.63-12.35-6.63,5.53-6.63,12.35Z"/><g><path class="cls-30" d="M3348.54,1021.45c1.36-3.95,23.01-36.57,58.38-29.09,25.9,5.48,42.14,22.74,51.44,36.93,7.48,11.37,15.91,20.55,15.91,20.55,9.1-21.47,10.89-41.61-2.16-65.42-11.28-20.58-38.31-34.7-61.04-34.48-21.7,.21-45.66,22.83-50.43,29.92-3.26,4.74-7.56,21.88-10.15,32.73-.97,4.4-1.71,7.8-1.95,8.87Z"/><path class="cls-29" d="M3330.61,1038.79c9.47-5.41,19.34-7.46,32.69-8.25,25.67-1.53,41.85,25.93,53.71,20.09,11.42-5.7,41.36-21.34,41.36-21.34-9.3-14.18-25.43-32.02-51.44-36.93-29.45-5.57-49.22,13.7-56.43,20.22l-20.82,23.79s-5.73,6.26,.93,2.42Z"/></g></g></g></g></g></g></g></g></svg>