<?xml version="1.0" encoding="UTF-8"?><svg id="Layer_1" xmlns="http://www.w3.org/2000/svg" viewBox="0 0 83.74 58.99"><defs><style>.cls-1{fill:#e7a552;}.cls-2{fill:#fff;}.cls-3{fill:#2877bd;}.cls-4{fill:#388bf0;}</style></defs><path class="cls-4" d="M41.87,15.92C18.75,15.92,0,18.34,0,21.31c0,.45,.43,.88,1.23,1.3,.62-2.82,18.58-5.08,40.64-5.08s40.02,2.26,40.64,5.08c.8-.42,1.23-.85,1.23-1.3,0-2.98-18.75-5.39-41.87-5.39Z"/><path class="cls-4" d="M41.87,19.27c-20.56,0-37.22,1.95-37.22,4.37,0,.81,1.87,1.56,5.12,2.21,1.11-.21,2.69-.35,4.44-.35,3.35,0,6.07,.49,6.07,1.09,0,.19-.28,.38-.78,.54,6.23,.55,13.97,.88,22.37,.88s15.54-.3,21.63-.81c-.63-.17-1-.38-1-.6,0-.6,2.72-1.09,6.07-1.09,2.01,0,3.79,.17,4.89,.44,3.56-.67,5.62-1.46,5.62-2.31,0-2.41-16.67-4.37-37.22-4.37h.01Zm0,1.12c2.31,0,4.18,.34,4.18,.75s-1.87,.75-4.18,.75-4.18-.34-4.18-.75,1.87-.75,4.18-.75Zm-23.84,1.9c0-.52,2.37-.95,5.29-.95s5.29,.43,5.29,.95-2.37,.95-5.29,.95-5.29-.43-5.29-.95Zm23.84,5.17c-10.28,0-18.61-.98-18.61-2.18s8.33-2.18,18.61-2.18,18.61,.98,18.61,2.18-8.33,2.18-18.61,2.18Zm18.51-4.22c-2.92,0-5.29-.43-5.29-.95s2.37-.95,5.29-.95,5.29,.43,5.29,.95-2.37,.95-5.29,.95Z"/><path class="cls-4" d="M41.87,0c-9.52,0-17.27,6.71-17.61,15.11,3.72-.6,10.22-1,17.61-1s13.89,.4,17.61,1c-.34-8.4-8.1-15.11-17.61-15.11Zm-8.3,3.98c-1.37,1.53-2.04,3.51-1.82,5.45,.14,1.31,.68,2.57,1.53,3.63-2.84,.13-5.39,.33-7.47,.58,.5-3.17,2.17-6.08,4.79-8.34,1.45-1.25,3.12-2.23,4.94-2.92-.74,.43-1.39,.96-1.97,1.59h0Z"/><path class="cls-4" d="M41.87,31.06c-8.42,0-15.25,.8-15.25,1.79s6.83,1.79,15.25,1.79,15.25-.8,15.25-1.79-6.83-1.79-15.25-1.79Zm0,3.43c-6.95,0-12.58-.62-12.58-1.39s5.63-1.39,12.58-1.39,12.58,.62,12.58,1.39-5.63,1.39-12.58,1.39Z"/><path class="cls-3" d="M55.14,48.81h-.02v.35h.02v-.36h0Z"/><path class="cls-3" d="M55.14,48.81h-.02v.35h.02v-.36h0Z"/><rect class="cls-2" x="38" y="34.29" width="2.14" height=".37" transform="translate(-8.25 12.65) rotate(-16.66)"/><g><polygon class="cls-1" points="35.43 40.28 35.43 40.28 35.43 43.72 32.98 42.67 32.98 39.26 32.98 39.26 32.98 39.26 29.19 37.68 29.19 37.68 29.19 37.68 29.19 54.3 40.06 58.99 40.06 42.21 35.43 40.28"/><polygon class="cls-1" points="32.98 39.26 32.98 42.67 35.43 43.72 35.43 40.28 35.42 40.28 32.98 39.26"/><path class="cls-1" d="M40.06,42.21v16.78h0l14.49-4.69h0v-16.62l-7.39,2.31s-7.1,2.22-7.1,2.22Z"/><path class="cls-1" d="M47.4,55.02l2.47-.8v-2.47l-2.47,.8v2.47Zm1.82-1.03l-1.17,.38v-.11l1.17-.38v.11Z"/><polygon class="cls-1" points="40.06 42.21 47.16 39.99 40.06 42.2 35.47 40.29 35.43 40.28 35.43 40.28 40.06 42.21"/><polygon class="cls-1" points="43.63 33.24 29.19 37.68 29.19 37.68 43.63 33.24 47.15 34.82 47.34 34.76 49.23 35.52 43.63 33.24"/><polygon class="cls-1" points="49.56 35.89 54.55 37.68 54.55 37.68 49.86 35.77 49.52 35.88 49.56 35.89"/><polygon class="cls-1" points="54.55 37.68 54.55 37.68 49.56 35.89 49.52 35.88 35.43 40.28 35.47 40.29 40.06 42.2 47.16 39.99 54.55 37.68 54.55 37.68 54.55 37.68"/><path class="cls-1" d="M43.63,33.24l-14.43,4.44h0l3.79,1.58s0,0,0-.02h0l14.15-4.42-3.53-1.58h0Z"/><path class="cls-1" d="M49.23,35.52l-1.89-.76-.19,.06-14.15,4.43h0s2.44,1.03,2.44,1.03h0l14.09-4.4,.33-.1h0l-.62-.25h0Z"/><path class="cls-1" d="M47.23,55.25l2.82-.92v-2.82m-.17,2.7l-2.47,.8"/></g><path class="cls-2" d="M41.87,43.72c-4.71,0-9.16,.13-13.1,.36v1.32c3.78-.27,8.27-.42,13.1-.42s9.46,.16,13.27,.44v-1.32c-3.99-.24-8.49-.37-13.27-.37h0Z"/><path class="cls-2" d="M42.3,41.36c-4.71,0-9.16,.13-13.1,.36v1.32c3.78-.27,8.27-.42,13.1-.42s9.46,.16,13.27,.44v-1.32c-3.99-.24-8.49-.37-13.27-.37h0Z"/><path class="cls-4" d="M20.54,38.56c0,.8,3.23,1.51,8.23,1.97v-.33c-2.78-.34-4.49-.79-4.49-1.29s1.85-.99,4.85-1.33v-1.02c-5.2,.46-8.58,1.18-8.58,2h-.01Z"/><path class="cls-2" d="M55.12,37.27c-3.64-.34-8.24-.54-13.25-.54s-9.19,.19-12.75,.5v1.02c3.21-.37,7.73-.61,12.75-.61,5.29,0,10.02,.26,13.25,.67,0,0,0-1.04,0-1.04Z"/><path class="cls-2" d="M55.12,36c-3.64-.34-8.24-.54-13.25-.54s-9.19,.19-12.75,.5v1.02c3.21-.37,7.73-.61,12.75-.61,5.29,0,10.02,.26,13.25,.67,0,0,0-1.04,0-1.04Z"/><path class="cls-4" d="M55.12,36.6c-3.64-.34-8.24-.54-13.25-.54s-9.19,.19-12.75,.5v1.02c3.21-.37,7.73-.61,12.75-.61,5.29,0,10.02,.26,13.25,.67,0,0,0-1.04,0-1.04Z"/><path class="cls-4" d="M55.12,36.6v1.04c2.7,.34,4.35,.79,4.35,1.27s-1.64,.93-4.33,1.27v.33c4.91-.46,8.06-1.16,8.06-1.96s-3.16-1.5-8.08-1.96h0Z"/><path class="cls-3" d="M28.77,44.33v-1.32c-9.64,.56-16.27,1.73-16.27,3.08s6.34,2.46,15.62,3.04v-.36c-6.33-.48-10.48-1.28-10.48-2.2s4.44-1.77,11.13-2.25h0Z"/><path class="cls-4" d="M71.24,46.09c0-1.34-6.55-2.5-16.11-3.07v1.32c6.6,.48,10.96,1.3,10.96,2.23s-4.36,1.76-10.96,2.23v.36c9.55-.57,16.11-1.73,16.11-3.07Z"/><path class="cls-3" d="M41.87,42.65c-4.71,0-9.16,.13-13.1,.36v1.32c3.78-.27,8.27-.42,13.1-.42s9.46,.16,13.27,.44v-1.32c-3.99-.24-8.49-.37-13.27-.37h0Z"/><path class="cls-4" d="M28.77,44.33v-1.32c-9.64,.56-16.27,1.73-16.27,3.08s6.34,2.46,15.62,3.04v-.36c-6.33-.48-10.48-1.28-10.48-2.2s4.44-1.77,11.13-2.25h0Z"/><path class="cls-4" d="M41.87,42.65c-4.71,0-9.16,.13-13.1,.36v1.32c3.78-.27,8.27-.42,13.1-.42s9.46,.16,13.27,.44v-1.32c-3.99-.24-8.49-.37-13.27-.37h0Z"/></svg>