<?xml version="1.0" encoding="UTF-8"?><svg id="Layer_2" xmlns="http://www.w3.org/2000/svg" viewBox="0 0 4689.05 1680.69"><defs><style>.cls-1{fill:#e00;}</style></defs><g id="svg8"><g id="layer1"><path id="path892" class="cls-1" d="M22.4,1044.01c-28.6,23.15-21.65,68.34-21.65,68.34l9.66,25.52,.89,3.92,1.58,23.54,16.27,36.06,1.14,11.52-4.71,10.49,20.07,51.43,.45,19.93,4.81,3.03-.1,36.04,35.77,119.86-3.92,.89,1.77,7.84,4.83,2.7-.35,16.35,10.08,25.77,16.49,108.39s16.98,43.48,31.42,55c14.44,11.51,29.64,12.43,53.65,6.38l36.81-5.33-11.05-4.64c12.74-58.85-30.06-4.66-38.74-30.1-.11-21.44-31.9-30.42-26.41-31.73-8.24-36.17-18.55-57.9-30.91-65.29l-1.68-7.61c12.77-2.91,11.18-38.53-4.41-106.96l-12.42-1.35-.89-3.92,7.61-1.68-7.07-14.32-.89-3.92,2.79-4.5-18.93-47.93-1.68-7.61,5.82-9.3-21.06-75.47c-2.51-10.98-5.6-20.13-9.06-27.56,4.08-2.85,4.39-17.33,.72-43.57l-14.69-12.52c4.16-5.15,3.81-23.64-.94-55.46l-12.79-20.94,15.28-26.88,27.23-15.79-8.66-32.36c-.22-.02-23.57,.59-52.17,23.74h0Z"/><path id="path897" class="cls-1" d="M4633.88,652.85l-10.62-37.05,21.23-45.43-2.32-26.34-.86-3.81-8.61-21.2-1.12-38.4-3.94-10.57-8.59-7.11-4.15-53.49-8.05-17.63,2.94-4.67-15.24-31.45-19.4-119.94-3.81,.86-1.72-7.61,3.02-4.34-7.27-14.15-2.07-26.74-31.35-101.71-31.16-44.28-47.36-2.93,12.42-23.95s41.94-11.71,53.4-10.88c11.46,.83,15.58,9.07,15.58,9.07l24.66,8.96c-3.41,7.72-7.91,1.49-4.59,27.37,9.02,18.78,16.2,27.58,21.53,26.31,8,35.13,8.22,58.52,.65,70.17l1.63,7.39c12.4-2.82,26.12,28.93,41.37,95.39l-10.34,6.41,.86,3.81,7.39-1.63-.09,15.47,.86,3.81,4.37,2.71,3.69,49.93,1.63,7.39,9.03,5.65,13.49,74.85c2.43,10.66,3.7,19.94,3.79,27.95,4.74,.71,11.18,13.3,19.1,37.74l-7.49,17.21c5.75,2.71,13.27,19.02,22.66,48.92l-2.27,23.72,1.96,39.86-23.33,24.23-31.54,20.14Z"/><path id="path850" class="cls-1" d="M409.45,933.1l24.78,5.97,7.51-1.74c13.07-3.02,23.43-9.31,31.08-18.88l3.59-.83,9.25,5.78,6.87,29.73-5.78,9.25-22.22,5.13-15.93-.45-13.8,7.32c-10.02,2.31-15.61,.97-16.76-4.04l-90.54,32.62-23.05,1.54-26.14,6.04-21.38,8.73-12.84-4.95-25.23,9.96-67.88,11.55-68.83,23.82-12.26-.95-6.04-26.14c-1.36-5.88,9-12.17,31.08-18.88l4.42,2.76,3.92-.91,20.48-12.65,23.12-1.21,40.26-13.43,8.92,5.85,3.92-.91,57.72-21.25,26.14-6.04,31.47,.64,39.1-16.95,23.45-1.29,31.59-15.21Zm-129.59,133.18l8.85,5.53,6.87,29.73-25.55,41.35,9.31,56.69,14.06,28.07c-5.82,31.4-7.15,53.96-3.98,67.68l26.2,44.88,5.84,41.67,18.36,46.69-3.41,35.89c19.24,15.74,30.67,31.46,34.29,47.14l9.7-10.16,3.59-.83,9.25,5.78c.81,15.41-1.18,23.67-5.97,24.78-18.18,.76-27.75-.93-28.7-5.07l-25.31,9.63-11.11,2.57-94-33,3.09-4.5-.91-3.92-6.49-10.2,59.78-13.81,16.06-15.41-1.74-7.51-7.51,1.74-9.37,10.08c-25.23,3.99-39.36-.54-42.38-13.61l-18.62,4.3c1.71,7.4,.06,11.69-4.95,12.84l-7.51,1.74c-5.96,0-18.87-16.63-38.72-49.9,9.5-3.57,16.09-14.27,19.77-32.1l-6.99-13.87c19.82-4.58,28.29-13.08,25.43-25.49,20.04-4.63,34.42-15.87,43.14-33.71l26.14-6.04-2.57-11.11-4.75-2.69-.91-3.92c-32.23,7.45-50.62,18.23-55.16,32.36-12.2,2.82-22.87,13.2-32.03,31.15l-11.11,2.57,8.22,17.72-11.43,2.64c-4.79,1.11-15.15-21.39-31.08-67.5-4.98-21.56,2.58-45.45,22.67-71.66l-1.74-7.51-9.96-25.23c11.76-2.72,27.69-24.64,47.78-65.76l30.68-19.13-1.66-7.19-7.51,1.74-.91-3.92c2.74-10.96,9.13-17.59,19.14-19.91l11.94,1.03c15.16-4.88,26.44-12.65,33.85-23.31h0Zm64.71-7.38l54.39,14.96,3.92-.91c21.36-8.84,30.76-18.81,28.19-29.91l7.51-1.74c7.96,.68,13.37,7.23,16.24,19.65l-.12,15.86,20.35,53.8,5.59,42.07,13.48,24.07c-2.41,16.39-9.38,25.91-20.93,28.58-2.43-6.55-9.8-10.13-22.09-10.73-30.21-66.21-58.06-96.36-83.54-90.48-3.98-17.21-14.68-23.8-32.1-19.77l-17.34-8.04-1.66-7.19,22.34-20.99,5.78-9.25Zm175.43,300.5l9.25,5.78c9.01,38.99,3.23,65.1-17.34,78.34,3.07,13.29-14.89,31.89-53.87,55.81l-17.08,27.35-14.7,3.4c-10.92-1.61-17.95-9.16-21.07-22.66l69.47-55.28c8.12-26.42,23.23-57.33,45.34-92.72Zm-219.16,251.96l8.92,5.85,37.24-8.61,55.03-16.5,6.16,10.28,16.89-11.82,23.37-1.61,2.76-4.42-.83-3.59,50.01-3.98,62.55-18.24,11.11-2.57,9.37-10.08,11.11-2.57c5.01-1.16,8.37,1.97,10.08,9.37l7.51-1.74,9.45-9.75,7.51-1.74,7.7,33.32-5.78,9.25-23.05,1.54-51.44,15.67-11.11,2.57-19.45,.71-21.38,8.73-11.11,2.57-23.37,1.61-2.76,4.42-3.92,.91-23.05,1.54-3.59,.83-14.2,7.07-26.97,2.45-48.35,11.17-32.49,11.29-15.86-.12-47.52,14.77c-27.22,6.29-41.99,4.43-44.31-5.59l1.03-11.94-4.42-2.76c14.06-6.69,20.61-12.1,19.65-16.24l26.97-2.45,50.53-19.59Z"/><path id="path852" class="cls-1" d="M501.35,915.31l15.35-3.55c15.25-3.52,24.03-.27,26.34,9.74l28.32-14.46,4.83,3.01,77.07-29.85,25.18,6.23,39.17-21.1,66.09-7.36,14.52-7.14,57.67-9.54,14.2-7.07,24.6,2.23,22.87-5.28,12.39-14.91,14.08,8.79,5.21,22.54c1.46,6.32-3.98,11.59-16.31,15.81l-23.7,1.69-108.03,32.88-54.99,4.79-15.03,3.47-32.57,15.44-62.17,6.45-3.09,4.5-3.92,.91-12.26-.95-14.2,7.07-15.86-.12-18.12,7.97-19.78,.78-22.04,8.88-27.29,2.52-18.12,7.97-4.75-2.69-2.64-11.43,3.01-4.83c-.86-3.7,6.08-7.94,20.81-12.72-2.92-12.63-1.87-19.53,3.14-20.68h0Zm180.49,54.31l4.75,2.69,.91,3.92c3.22,13.94-16.93,47.85-60.46,101.72,.6,2.61-15.26,8.92-47.59,18.91-20.81,2.28-31.79,.92-32.95-4.09,10.57-23.78,39.39-54.41,86.48-91.91,21.26-18.22,37.55-28.64,48.87-31.25h0Zm92.88-13.55c13.72-3.17,31.2,3.46,52.43,19.89,25.26-5.84,45.51,6.81,60.73,37.93,13.94-3.22,38.41,33.68,73.41,110.71,7.6,32.89,2.58,51.37-15.06,55.44-12.63,2.92-17.49,10.69-14.57,23.33l-36.99,12.68-45.74,10.57,1.74,7.51c15.25-3.52,23.45-2.78,24.6,2.23,2.31,10.02-4.15,16.79-19.4,20.31l.91,3.92,39.13-4.91c28.97-6.69,48.66-19.27,59.07-37.74l7.51-1.74c-1.76-7.62-.14-12.01,4.87-13.17l3.92-.91,6.11,26.46c1.46,6.32-1.91,20.52-10.12,42.6,9.01,38.99-20.43,84.33-88.33,136.04-13.94,3.22-33.01,13.02-57.22,29.39l-3.92,.91-4.38-18.95c20.58-26.09,30-42.95,28.23-50.57l1.77-44.46-6.11-26.46-17.18-40.08-1.74-7.51,11.43-2.64-.91-3.92c-12.88,1.83-20.06-.41-21.51-6.73l-2.64-11.43c-1.58-35.65,2.86-56.64,13.33-62.96l12.26,.95,21.71-8.8-4.5-3.09-.91-3.92c-3.47-15.03,3.61-24.58,21.25-28.66l-.91-3.92-60.76,14.04,1.74,7.51,4.83,3.01,.91,3.92-3.09,4.5-3.59,.83c-14.01-13.97-22.05-25.42-24.11-34.35l-2.65-47.22c-5.08-4.1-13.87-24.78-26.38-62.04l-28.08-17.26-1.74-7.51,50.61-23.74Zm-101,99.05l7.51-1.74,13.13,56.84c-3.55,7.47-4.42,21.1-2.6,40.87l18.01,43.67-2.31,24.28,9.33,6.1,24.04,138.29,59.38,49.95c.42,18.71-2.52,28.8-8.84,30.26-102.49-5.69-158.99-31.29-169.51-76.81l-4.83-3.01-.83-3.59,8.79-14.08-.91-3.92c-20.25,4.68-37.39-5.93-51.4-31.83l-13.75-8.87-1.74-7.51c5.04-11.95,6.1-24.24,3.18-36.87l-11.44-33.15c3.25-8.78,3.7-35.61,1.36-80.5,40.44-14.62,65.28-28.27,74.5-40.96,27.66-6.39,40.03-15.9,37.11-28.53,10.24-2.37,14.17-8.67,11.81-18.9h0Zm250.17,409.53c6.14,14.64,14.32,20.78,24.56,18.41,28.26-15.71,41.94-25.52,41.03-29.44l46.32-6.57,14.45-7.47,4.5,3.09,3.92-.91,14.12-7.39,10.16,9.7,6.11,26.46-2.69,4.75,.83,3.59-23.7,1.69-29.55,10.61-24.28-2.31-18.95,4.38-21.13,12.8-15.86-.12-14.52,7.14-81.45,10.9-36.16,16.27-19.78,.78-79.71,18.42c-12.63,2.92-18.37,6.88-17.21,11.89l-54.66,4.71-22.87,5.28-9.25-5.78-4.38-18.95,26.83-22.37,15.03-3.47,31.29-3.1,29.48-10.94,4.83,3.01,.83,3.59-8.79,14.08c4.76,9.68,12.26,13.34,22.5,10.98,4.03-22.27,29.46-38.81,76.29-49.63l3.01-4.83,3.59-.83,9.58,5.7,26.46-6.11,9.7-10.16,19.85-.46,39.68-17.43Z"/><path id="path854" class="cls-1" d="M928.92,816.17l4.42,2.76,3.92-.91,2.76-4.42,3.59-.83,11.94,1.03,3.09-4.5,3.59-.83,20.36,3.21,36.34-12.53,87.33-12.26,49.38-23.11,14.7-3.4,9.25,5.78-.2,15.53c11.08,5.24,23.04,6.38,35.89,3.41l3.92-.91c-2.82-12.2,.67-19.43,10.47-21.69-1.76-7.62-.14-12.01,4.87-13.17l14.7-3.4,13.17,4.87c24.64-13.49,46-22.33,64.08-26.51l52.27-12.08,2.57,11.11-43.85,14.26-11.11,2.57,.83,3.59c2.88,5.53,13.03,9.72,30.44,12.58,12.63-2.92,43.77-20.55,93.43-52.9l5.96,25.81c-.85,8.23-7.38,13.75-19.57,16.57l-18.62,4.3-19.53,.38-21.31,9.05-3.92,.91-52.85,8.08-28.82,10.79-41.74,5.52-66.07,19.39-38.15,4.68-25.23,9.96-23.12,1.21-28.82,10.79-52.85,8.08-3.01,4.83-3.59,.83-4.5-3.09-3.92,.91-10.2,6.49-41.74,5.52-15.03,3.47-2.04-26.71-9.25-5.78,5.78-9.25Zm89.16,80.57c41.95,.86,63.79,4.99,65.5,12.4l.83,3.59,14.7-3.4-.83-3.59c-7.4,1.71-11.69,.06-12.84-4.95l38.27-20.54c3.27-.75,14.67,14.85,34.22,46.81l-5.45,9.17,3.4,14.7,9.45-9.75c1.71,7.41,7.47,9.98,17.27,7.71l3.28,30.56c17.04,17.17,27.25,33.05,30.62,47.64l4.3,18.62,11.11-2.57c-3.42-14.81,1.29-34.14,14.13-57.98l27.53,52.14c2.62,23.25-2.47,51.85-15.28,85.78,2.52,10.89,.61,30.95-5.71,60.17l7.9,17.79,6.04,26.14-6.17,40.31,7.07,14.2c-7.99,7.12-14.45,24.33-19.39,51.63l-3.59,.83c-11.33,2.62-32.11-25.27-62.35-83.67-4.56,.14-17.27-15.17-38.14-45.91l-2.45-26.97c-28.24-27.89-52.48-65.3-72.74-112.24-6.1,1.41-14.83-13.55-26.2-44.88-3.48,.81-17.25-19.53-41.28-61.01-13.07,3.02-26-1.79-38.78-14.44l-1.74-7.51c1.82-10.97,9.38-18,22.66-21.07l12.84,4.95,3.59-.83c-2.87-12.41,3.21-20.36,18.24-23.83h0Zm314.56-60.98c20.41,1.94,33.64,8.06,39.69,18.36l-4.95,12.84c13.14,11.19,20.71,21.14,22.73,29.85,25.29-37.5,36.83-61.05,34.61-70.63l7.19-1.66,7.39,14.12c-18.76,21.08-28.61,35.06-29.54,41.93l3.47,15.03,11.29,32.49,4.18,34.48,14.77,47.52-7,36.72,31.65,35.7c-5.85,8.46-7.3,24.51-4.36,48.15-19.73,5.94-28.04,15.66-24.92,29.16l-17.46,7.82,1.74,7.51,17.27,7.71c12.41-2.87,19.42-12.29,21-28.25l10.28-6.16,18.81,30.76,1.54,23.05,3.47,15.03,34.41,31.28c-2.46,16.17-8.15,25.28-17.08,27.35l-50.09,3.66-2.69,4.75-3.92,.91-31.47-.64-41.03,24.97c-47.16-.57-71.2-2.82-72.11-6.74l-.83-3.59c-.96-4.14,11.56-17.47,37.56-40l-15.67-51.44-23.88-119.75c23.57-8.2,37.98-19.33,43.22-33.39,19.17-4.43,31.56-24.27,37.18-59.52l-6.16-10.28-7.51,1.74c-20.87,38.78-38.16,59.75-51.88,62.92,1.31,5.66-4.04,10.8-16.06,15.41l-14.38-27.99-20.61-89.19-10.99-13.29c-7.45-32.23-7.47-49.21-.06-50.92l41.16-9.51c-4.58-19.82,5.44-32.57,30.05-38.26h0Zm63.38-14.64c18.03-1.41,27.6,.28,28.7,5.07l-37.24,8.61-1.66-7.19,10.2-6.49Zm-155.2,141.51l11.11-2.57,.91,3.92-5.78,9.25-4.5-3.09-1.74-7.51Zm139.27-24.26l-3.01,4.83,2.57,11.11,9.88,24.9,3.59-.83,5.85-8.92-2.57-11.11c-3.02-13.07-8.46-19.73-16.32-19.98h0Zm-328.76,154.42c10.74,8.76,21.25,25.95,31.53,51.56l5.96,25.81c9.52,7.44,17.22,23.9,23.11,49.38l5.72,57.53,3.59-.83,38.33,30.37c8.93-2.06,20.55,3.05,34.86,15.35l.91,3.92c1.21,5.23-10.69,15.78-35.7,31.65l-29.73,6.87-12.84-4.95-26.14,6.04-24.9,9.88-4.83-3.01-4.3-18.62,36.15-47.58-8.15-17.39-2.64-11.43c-4.03-17.42-4.67-31.61-1.92-42.57l-29.86-94.96,3.09-4.5-.83-3.59-9.13-21.64-.83-3.59,8.54-13.67Zm361.88,108.07l.91,3.92,9.25,5.78,8.47-14-6.16-10.28-3.92,.91-8.54,13.67Zm-330.82,228.89l38.07-5.01,24.98-9.56,2.57,11.11c-10.24,2.37-18.43,12.06-24.6,29.08l-44.43,10.27-9.17-5.45-2.57-11.11,15.15-19.33Zm170.86-39.48c17.42-4.03,27.85,1.37,31.27,16.18,1.16,5.01,6.75,6.36,16.76,4.04,11.54-2.67,35.17-18.57,70.88-47.69l12.26,.95,58.63-17.33,7.19-1.66,2.57,11.11-18.29,4.23,.91,3.92c11.54-2.67,20.7-2.26,27.47,1.22l10.28-6.16,4.75,2.69,5.21,22.54-3.92,.91-30.63,2.95-2.69,4.75-3.59,.83-12.34-1.28-43.52,14.19-34.56,3.85-16.56,11.74-46.49,2.83-28.82,10.79-19.53,.38-32.42,11.62-26.14,6.04c-32.23,7.45-49.23,7.36-50.99-.26,36.54-11.65,53.45-23.36,50.73-35.12l51.94-12,19.65-16.24Zm234.24-54.12l43.4,1.67,27.16-17.98,22.54-5.21,13.67,8.54,6.04,26.14-3.09,4.5,.91,3.92-7.19,1.66-.91-3.92-36.34,12.53-48.35,11.17-19.33-15.15,.45-15.93-9.25-5.78,2.76-4.42,7.51-1.74Z"/><path id="path856" class="cls-1" d="M1549.51,670.72l56.07,2.87,51.19-19.74,19.85-.46,21.13-12.8,4.42,2.76,7.02,30.38c1.16,5.01-2.08,8.39-9.7,10.16l-38.48,4.76-3.01,4.83-3.59,.83-23.77,1.36-29.15,10.86-12.34-1.28-59.53,17.89-22.54,5.21-16.26-.37-50.86,19.67-4.75-2.69-6.11-26.46c-1.41-6.1,10.34-12.83,35.25-20.19l68.86-11.78c-1.01-4.36,4.43-9.63,16.31-15.81h0Zm31.79,91.42l26.46-6.11,13.17,4.87,2.69-4.75,3.92-.91,4.83,3.01,3.59-.83,24.73-13.63c18.05,9.6,28.18,19.18,30.39,28.77-25.05,5.79-34.1,23.71-27.15,53.76l-1.4,28.2,7.02,30.38c4.43,19.17,12.05,29.33,22.88,30.5l.46,19.85,8.68,37.57,11.77,33.07-5.37,45.29,37.22,74.68,3.93,34.88c20.56,8.56,31.72,16.65,33.48,24.27-3.65,21.95-10.15,34.01-19.52,36.17l-42.2-9.87-35.83,16.19-35.71,.34-35.33,19.86c-21.34,4.93-38.22,.92-50.62-12.05l-.91-3.92,5.78-9.25,18.95-4.38c2.22-36.07-1.5-75.02-11.16-116.83l15.35-3.55-8.22-17.72c-1.76-7.62,6.18-13.47,23.82-17.55l-.91-3.92c-30.27,6.99-47.45,1.67-51.52-15.97l-9.59-41.49-13.18-40.66-1.24-39.63-7.39-14.12-3.93-34.88-5.21-22.54-41.83-26.13-.91-3.92c-1.76-7.62,32.98-23.57,104.23-47.83l5.78-9.25Zm48.11,310.99c1.76,7.62-1.17,12.32-8.79,14.08l.83,3.59c24.18-5.59,42.42-7.05,54.74-4.39l21.64-9.13,7.84-1.81-4.38-18.95-71.87,16.61Zm45.7,218.63c5.01-1.16,8.37,1.97,10.08,9.37l11.43-2.64,12.46-14.58,38.4-5.09,25.63-9.71,34.81-4.26,33.47-11.52,4.42,2.76,4.38,18.95c1.16,5.01-11.79,12.02-38.85,21.02l4.42,2.76,.91,3.92-2.76,4.42-11.43,2.64-23.37,1.61-9.7,10.16-27.37,2.19-26.46,6.11-18.04,8.3-97.06,10.38-16.89,11.82-4.75-2.69-1.74-7.51c-4.18-18.08,10.85-33.48,45.07-46.2l52.93-12.23Z"/><path id="path858" class="cls-1" d="M1706.72,634.74l28.2,1.4,3.01-4.83,3.59-.83c15.88,.23,24.28,2.31,25.18,6.23l73.73-24.95,23.7-1.69,29.23-10.54,34.81-4.26,33.15-11.44,15.86,.12,17.21-11.89c16.79,4.15,32.7,4.49,47.73,1.02l20.81-12.72,23.7-1.69,4.95-12.84c27.66-6.39,42.65-4.58,44.96,5.44l-1.35,12.01,3.92-.91,21.71-8.8,4.42,2.76,3.47,15.03-5.7,9.58-24.35-2.63-43.27,18.26-20.76-3.46-35.25,20.19-93.14,9.47-62.22,22.64-7.51,1.74-46.9,2.58-36.08,16.6-19.85,.46-17.72,8.22-34.88,3.93-21.64,9.13-4.83-3.01-6.11-26.46c-1.16-5.01,3.27-8.67,13.29-10.99-1.71-7.41-.06-11.69,4.95-12.84h0Zm37.09,90.54l11.11-2.57,48.88,4.54,4.95-12.84c82.98-19.17,127.67-14.93,134.06,12.73,2.01,8.71,18.01,20.85,47.99,36.4l67.61,103.45c59.62,40.6,92.2,72.87,97.74,96.83l-2.76,4.42,7.97,18.12,6.11,26.46c9.94,8.26,16.64,19.9,20.12,34.93,5,38.53,.54,59.41-13.4,62.63l-7.51,1.74c1.76,7.62,.14,12.01-4.87,13.17-46.06,1.24-76.64-5.01-91.74-18.72l-1.74-7.51,7.51-1.74-1.74-7.51-7.51,1.74,1.74,7.51-19.33-15.15,2.69-4.75-.83-3.59c-5.01,1.16-11.78-5.31-20.31-19.4-13.64-7.4-26.24-21.7-37.78-42.89-15.18-3.15-39.96-30.46-74.34-81.93,12.63-2.92,17.79-9.39,15.48-19.41,24.74-7.09,34.93-20.11,30.55-39.06l-2.57-11.11-12.34-1.28c-7.41,1.71-9.65,8.88-6.73,21.51l-51.19,19.74c-32.6-26.88-59.86-59.01-81.81-96.38-44.59-32.14-74.68-47.67-90.26-46.59l-2.64-11.43c19.95-5.99,28.92-13.34,26.91-22.05h0Zm310.79-63.89c11.18,2.69,25.58,2,43.23-2.07l5.78-9.25,7.51-1.74c19.55-1.76,30.73,.93,33.53,8.08l2.64,11.43c-27.44,30.2-39.69,51.61-36.78,64.25l7.77,33.65,9.2,21.96c6.94,69.75,7.25,105.35,.93,106.81-14.95-7.1-23.88-16.97-26.8-29.6l-1.17-39.31-22.76-46.36,1.73-28.27-28.98-21.18c-6.39-27.66-14.6-40.33-24.61-38.02l-4.42-2.76-2.64-11.43,7.51-1.74,28.32-14.46Zm-248.38,180.59c27.5,26.68,44.02,52,49.56,75.96l7.4,49.91,22.76,46.36,5.1,74.19c10.54,10.87,17.55,23.82,21.02,38.85l11.11-2.57c13.94-3.22,23.92-.25,29.93,8.91l2.64,11.43c2.92,12.63,.95,21-5.9,25.11l-72.7,13.01-10.28,6.16c-25.82,3.44-39.61,1.35-41.37-6.27-1.16-5.01,3.27-8.67,13.29-10.99,3.4-14.09,9.28-23.37,17.66-27.83l-4.83-3.01-.83-3.59c-4-40.14-1.29-68.64,8.12-85.5l.12-15.86-42.55-81.37-9.59-41.49,18.95-4.38-.91-3.92c-10.02,2.31-15.61,.97-16.76-4.04l-2.64-11.43,4.95-12.84-.91-3.92-10.08-9.37-1.74-7.51,8.47-14Zm157.88-4.82l3.47,15.03,3.92-.91-3.47-15.03-3.92,.91Zm65.71,163.77l.83,3.59,22.42,10.65,9.37-10.08,79.39-18.34-1.74-7.51-4.75-2.69-.91-3.92-36.66,12.6-3.92,.91-9.25-5.78c-1.46-6.32,2.67-11.28,12.39-14.91l-.91-3.92-27.29,2.52c-7.4,1.71-15.96,10.34-25.68,25.89-10.02,2.31-14.45,5.98-13.29,10.99h0Zm-200.86,247.73l3.59-.83,14.08,8.79,2.69-4.75,58.33-5.22c-1.76-7.62,10.89-15.94,37.94-24.94l6.56,10.53,3.92-.91,9.37-10.08,15.03-3.47c25.26-5.84,38.48-6.25,39.63-1.24l84.84-27.52,4.75,2.69,.91,3.92c1.76,7.62-3.67,12.89-16.31,15.81l3.47,15.03,26.46-6.11,35.38-36.05,26.46-6.11,50.86-19.67,29.1,5.32,33.07-11.77,4.5,3.09,6.04,26.14-2.69,4.75,.83,3.59-27.29,2.52-43.35,17.93c-44.06,4.9-106.28,16.64-186.64,35.21l-26.46,6.11-14.2,7.07-4.42-2.76-3.92,.91-3.09,4.5-3.59,.83-24.28-2.31c-9.08,7.37-22.33,13.07-39.75,17.1l-23.7,1.69-21.71,8.8-4.42-2.76-3.92,.91-14.2,7.07-7.51,1.74c-17.64,4.08-29.66-7.72-36.05-35.38l9.7-10.16Z"/><path id="path860" class="cls-1" d="M2213.6,516.93l30.06-6.94c7.4-1.71,12.54,3.64,15.41,16.05l3.09-4.5,18.62-4.3,12.84,4.95,3.92-.91-.91-3.92-6.49-10.2,9.7-10.16c19.82-4.58,30.89-1.86,33.2,8.16l23.49-17.47,20.36,3.21,25.63-9.71,41.67-5.84c41.16-9.51,65.25-18.98,72.25-28.39l7.51-1.74,15.86,.12,10.28-6.16c4.63,20.04,18.16,27.46,40.59,22.28l9.17,5.45c1.41,6.1-8.93,12.5-31.01,19.21l-20.36-3.21c-14.63,5.21-21.56,9.46-20.81,12.72l-38.15,4.68-56.19,12.98-60.61,10.22-10.28,6.16-34.48,4.18-10.6,6.24-15.53-.2-32.82,11.37-23.37,1.61-47.85,14.84-11.11,2.57c-18.29,4.23-29.17,2.84-32.62-4.16l-3.47-15.03c-1.36-5.88,7.8-11.9,27.49-18.05l30.89-3.35c-1.71-7.41-.17-11.66,4.62-12.77h0Zm115.63,74.46l3.92-.91,33.2,8.16,1.74,7.51c-14.68,38.72-20.44,64.95-17.27,78.67l7.39,14.12,2.12,27.04,15.17,47.77,2.95,30.63,6.56,10.53-.64,31.47,19.02,82.33c1.31,5.66-12.45,14.12-41.28,25.37,1.71,7.41,.06,11.69-4.95,12.84l-18.62,4.3-44.18,14.34c-5.05-11.91-20.01-25.55-44.9-40.9l-4.56-54.01-9.25-5.78-6.94-30.06,2.83-39.88,3.59-.83-7.07-14.2c-7.1-30.71,6.4-74.55,40.5-131.53-.91-3.92,9.5-15.5,31.2-34.74l-6.04-26.14,17.79-7.9,6.49,10.2,3.59-.83c-1.01-10.32,1.54-16.19,7.64-17.59Zm198.3-45.82l18.5,11.56,9.51,41.16,21.45,42.19c5.96,48.64,3.93,74.11-6.09,76.43l-14.7,3.4c-6.97,1.61-21.17-20.12-42.59-65.18l-81.11-44.23c-13.5,3.12-23.48,.15-29.93-8.91l-1.74-7.51,5.85-8.92,37.57-8.68c8.93-2.06,19.97,.55,33.13,7.83l15.03-3.47c13.18-21.4,24.89-33.28,35.12-35.65h0Zm-61.83,73.48l.83,3.59,15.03-3.47-.83-3.59-15.03,3.47Zm-200.97,204.05l.83,3.59c7.14,21.98,15.94,31.76,26.4,29.35,10.02-2.31,14.6-11.29,13.74-26.92,11.71-5.92,17.06-11.05,16.06-15.41l-.83-3.59-56.19,12.98Zm309-59.7c13.29-3.07,29.3,3.67,48.03,20.22l-5.19,44.56,7.07,14.2,.26,35.39,8.61,37.24,7.39,14.12c6.34,27.44-4.21,44.33-31.65,50.67-17.13,24.15-51.15,47.72-102.04,70.72-12.43-2.17-19.77-5.64-22.02-10.4l-.91-3.92,34.29-39.24-27.82-104.04-2.45-26.97c-16.41-22.36-33-31.61-49.77-27.73l-1.74-7.51c-1.36-5.88,21.22-16.38,67.75-31.48l5.78-9.25,61.52-6.3c-2.87-12.41-1.91-19.18,2.88-20.28h0Zm-157.63,186.12l21.45,42.19-.12,15.86,27.35,17.08c4.03,17.42-2.67,28.15-20.1,32.17-78.73-.16-121.82-16.36-129.27-48.6l12.39-14.91,7.51-1.74,.91,3.92,25.23-9.96,26.14-6.04c8.34-17.53,17.84-27.52,28.52-29.99h0Zm-61.2,183.45l4.83,3.01,25.23-9.96c24.98-5.08,37.97-5.45,38.98-1.09l69.48-23.97,29.73-6.87-30.3,38.66-56.19,12.98,4.75,2.69,2.64,11.43-18.12,7.97-68.71,7.96-54.46,20.5-10.08-9.37c-4.03-17.42,1.48-27.87,16.5-31.34l2.69-4.75-.83-3.59,26.97-2.44,7.51-1.74,9.37-10.08Zm265.6-61.37l29.73-6.87,9.25,5.78,4.3,18.62,26.14-6.04c12.85-2.97,23.66-13.27,32.44-30.9l3.59-.83,9.25,5.78,5.13,22.22c1.01,4.36-14.06,13.11-45.2,26.27l-109.87,17.47-14.12,7.39-49.58,7.33-3.59,.83-9.25-5.78c3.85-6.17,19.11-13.59,45.78-22.28-1.36-5.88,7.5-13.2,26.58-21.97l23.45-1.29,3.59-.83,12.39-14.91Z"/><path id="path878" class="cls-1" d="M2806.85,383.3l34.48-4.18,18.12-7.97,6.16,10.28,3.09-4.5,3.59-.83,11.94,1.03,73.4-24.88,31.47,.64c26.89-8.74,42.26-16.19,46.11-22.35l25.11,5.9c33.2-10.2,51.08-18.23,53.62-24.09l3.59-.83,9.25,5.78,6.94,30.06-5.85,8.92-52.27,12.08-40.26,13.43-35.39,.26-21.71,8.8-4.75-2.69-17.79,7.9-29.73,6.87-15.86-.12-10.6,6.24-11.94-1.03-10.28,6.16-34.48,4.18-81.82,22.69-4.42-2.76-4.3-18.62c-.86-3.7,17.34-15.82,54.58-36.36h0Zm106.17,66.32l13.67,8.54,10.53-6.56,4.5,3.09,1.74,7.51c3.17,13.72-7.1,31.81-30.82,54.27l-.57,31.79c26.63,35.83,59.99,49.12,100.06,39.86l29.61,8.99,1.74,7.51c-.23,15.88-7.21,25.41-20.93,28.58l-33.15,11.44-15.53-.2,1.74,7.51c14.81-3.42,23.93,2.27,27.35,17.08l-2.69,4.75,33.65-7.77c-2.31-10.02,5.24-17.04,22.66-21.07l17.33-27.75c17.42-4.03,40.25,3.89,68.47,23.76l4.3,18.62c7.62-1.76,12.01-.14,13.17,4.87l-1.35,12.01c10.54,10.87,17.25,22.51,20.11,34.93l.83,3.59c5.96,48.64,.94,83.98-15.08,106.04-11.38,42.09-30.79,66.31-58.24,72.65-19.42,12.29-38.49,20.59-57.22,24.92l-11.82-16.89c-2.32-10.02,15.02-25.84,52.01-47.46l-9.51-41.16c-9.21-39.86-39.33-56.53-90.36-50.01l-113.93-32.87-61.92-80.33c6.32-1.46,8.01-11.03,5.07-28.7l-13.55-24.4,28.89-46.25-15.03,3.47-.83-3.59c4.23-15.43,26.15-40.23,65.75-74.38l15.03-3.47c-2.87-12.41,1.9-20.06,14.32-22.92h0Zm161.56-33.54l11.43-2.64,14.46,28.32,4.3,18.62,1.09,38.98,22.35,46.11c-1.09,12.18-6.56,22.74-16.43,31.67l-7.19,1.66c-5.01,1.16-12.29-12.99-21.85-42.44-24.62-27.12-63.41-47.06-116.38-59.83l-1.74-7.51c-1.71-7.4,9.38-16.51,33.27-27.3,20.34-3.32,38-.86,52.98,7.37l7.51-1.74c12.5-13.44,17.89-23.86,16.18-31.27Zm-201.71,354.26c17.68,8.99,29.39,25.9,35.12,50.73,5.01-1.16,19.36,15.26,43.04,49.25,12.41-2.87,35.51,6.25,69.3,27.35l2.64,11.43c-.68,7.96-7.23,13.37-19.65,16.24l-7.51,1.74-26.01-9.82-3.01,4.83-3.59,.83-21.26-7.13-3.92,.91c-11.11,2.57-20.59,12.67-28.44,30.32l-3.59,.83c-6.32,1.46-19.32-20.54-39-66.01l-5.92-41.99-6.87-29.73c-2.92-12.63,2.28-24.39,15.6-35.26l3.09-4.5Zm274.78-55.92c2.32,10.02-4.94,18.35-21.76,24.99l1.74,7.51,25.69,9.9c12.71-13.49,17.91-25.25,15.6-35.26l-6.24-10.6-15.03,3.47Zm-242.53,162.72c1.71,7.4-5.57,15.63-21.83,24.66l.91,3.92,14,8.47,26.14-6.04-6.04-26.14,2.69-4.75-.83-3.59-15.03,3.47Zm-5.87,128l4.83,3.01,3.59-.83,10.53-6.56,58.76-1.88c19.57-5.67,28.62-11.66,27.16-17.98l12.34,1.28,28.82-10.79,80.47-10.68,80.59-26.54,4.5,3.09,.83,3.59c2.62,11.33-3.05,20.55-17.01,27.67l.83,3.59,4.5,3.09,.83,3.59-16.89,11.82-46.82,2.9-13.29,10.99-98.76,14.9-36.66,12.6-4.5-3.09-18.04,8.3-59.78,13.81-9.25-5.78-6.94-30.06c-1.16-5.01,1.97-8.37,9.37-10.08h0Zm357.5-74.69l11.11-2.57,6.94,30.06c1.41,6.1-13.96,13.55-46.11,22.35l-3.47-15.03,3.09-4.5c-1.16-5.01,6.98-9.53,24.4-13.55-2.31-10.02-.97-15.61,4.04-16.76h0Z"/><path id="path880" class="cls-1" d="M3141.23,305.35l15.35-3.55c15.25-3.52,24.03-.27,26.34,9.74l28.32-14.46,4.83,3.01,77.07-29.85,25.18,6.23,39.17-21.1,66.09-7.36,14.52-7.14,57.67-9.54,14.2-7.07,24.6,2.23,22.87-5.28,12.39-14.91,14.08,8.79,5.21,22.54c1.46,6.32-3.98,11.59-16.31,15.81l-23.7,1.69-108.03,32.88-54.99,4.79-15.03,3.47-32.57,15.44-62.17,6.45-3.09,4.5-3.92,.91-12.26-.95-14.2,7.07-15.86-.12-18.12,7.97-19.78,.78-22.04,8.88-27.29,2.52-18.12,7.97-4.75-2.69-2.64-11.43,3.01-4.83c-.86-3.7,6.08-7.94,20.81-12.72-2.92-12.63-1.87-19.53,3.14-20.68h0Zm180.49,54.31l4.75,2.69,.91,3.92c3.22,13.94-16.93,47.85-60.46,101.72,.6,2.61-15.26,8.92-47.59,18.91-20.81,2.28-31.79,.92-32.95-4.09,10.57-23.78,39.39-54.41,86.48-91.91,21.26-18.22,37.55-28.64,48.87-31.25Zm92.88-13.55c13.72-3.17,31.2,3.46,52.43,19.89,25.26-5.84,45.51,6.81,60.73,37.93,13.94-3.22,38.41,33.68,73.42,110.71,7.6,32.89,2.58,51.37-15.06,55.44-12.63,2.92-17.49,10.69-14.57,23.33l-36.99,12.68-45.74,10.57,1.74,7.51c15.25-3.52,23.45-2.78,24.6,2.23,2.31,10.02-4.15,16.79-19.4,20.31l.91,3.92,39.13-4.91c28.97-6.69,48.66-19.27,59.07-37.74l7.51-1.74c-1.76-7.62-.14-12.01,4.87-13.17l3.92-.91,6.11,26.46c1.46,6.32-1.91,20.52-10.12,42.6,9.01,38.99-20.43,84.33-88.33,136.04-13.94,3.22-33.01,13.02-57.22,29.39l-3.92,.91-4.38-18.95c20.58-26.09,30-42.95,28.23-50.57l1.77-44.46-6.11-26.46-17.18-40.08-1.74-7.51,11.43-2.64-.91-3.92c-12.88,1.83-20.06-.41-21.51-6.73l-2.64-11.43c-1.58-35.65,2.86-56.64,13.33-62.96l12.26,.95,21.71-8.8-4.5-3.09-.91-3.92c-3.47-15.03,3.61-24.58,21.25-28.66l-.91-3.92-60.76,14.04,1.74,7.51,4.83,3.01,.91,3.92-3.09,4.5-3.59,.83c-14.01-13.97-22.05-25.42-24.11-34.35l-2.65-47.22c-5.08-4.1-13.87-24.78-26.38-62.04l-28.08-17.26-1.74-7.51,50.61-23.74Zm-101,99.05l7.51-1.74,13.13,56.84c-3.55,7.47-4.42,21.1-2.6,40.87l18.01,43.67-2.31,24.28,9.33,6.1,24.04,138.29,59.38,49.95c.42,18.71-2.52,28.8-8.84,30.26-102.49-5.69-158.99-31.29-169.51-76.81l-4.83-3.01-.83-3.59,8.79-14.08-.91-3.92c-20.26,4.68-37.39-5.93-51.4-31.83l-13.75-8.87-1.74-7.51c5.04-11.95,6.1-24.24,3.18-36.87l-11.44-33.15c3.25-8.78,3.7-35.61,1.36-80.5,40.44-14.62,65.28-28.27,74.5-40.96,27.66-6.39,40.03-15.9,37.11-28.53,10.24-2.37,14.17-8.67,11.81-18.9h0Zm250.17,409.53c6.14,14.64,14.32,20.78,24.56,18.41,28.26-15.71,41.94-25.52,41.03-29.44l46.32-6.57,14.45-7.47,4.5,3.09,3.92-.91,14.12-7.39,10.16,9.7,6.11,26.46-2.69,4.75,.83,3.59-23.7,1.69-29.55,10.61-24.28-2.31-18.95,4.38-21.13,12.8-15.86-.12-14.52,7.14-81.45,10.9-36.16,16.27-19.78,.78-79.71,18.42c-12.63,2.92-18.37,6.88-17.21,11.89l-54.66,4.71-22.87,5.28-9.25-5.78-4.38-18.95,26.83-22.37,15.03-3.47,31.29-3.1,29.48-10.94,4.83,3.01,.83,3.59-8.79,14.08c4.76,9.68,12.26,13.34,22.5,10.98,4.03-22.27,29.46-38.81,76.29-49.63l3.01-4.83,3.59-.83,9.58,5.7,26.46-6.11,9.7-10.16,19.85-.46,39.68-17.43Z"/><path id="path882" class="cls-1" d="M3594.68,200.58l15.35-3.55c15.25-3.52,24.03-.27,26.34,9.74l28.32-14.46,4.83,3.01,77.07-29.85,25.18,6.23,39.17-21.1,66.09-7.36,14.52-7.14,57.67-9.54,14.2-7.07,24.6,2.23,22.87-5.28,12.39-14.91,14.08,8.79,5.21,22.54c1.46,6.32-3.98,11.59-16.31,15.81l-23.7,1.69-108.03,32.88-54.99,4.79-15.03,3.47-32.57,15.44-62.17,6.45-3.09,4.5-3.92,.91-12.26-.95-14.2,7.07-15.86-.12-18.12,7.97-19.78,.78-22.04,8.88-27.29,2.52-18.12,7.97-4.75-2.69-2.64-11.43,3.01-4.83c-.86-3.7,6.08-7.94,20.81-12.72-2.92-12.63-1.87-19.53,3.14-20.68h0Zm180.49,54.31l4.75,2.69,.91,3.92c3.22,13.94-16.93,47.85-60.46,101.72,.6,2.61-15.26,8.92-47.59,18.91-20.81,2.28-31.79,.92-32.95-4.09,10.57-23.78,39.39-54.41,86.48-91.91,21.26-18.22,37.55-28.64,48.87-31.25h0Zm92.88-13.55c13.72-3.17,31.2,3.46,52.43,19.89,25.26-5.84,45.51,6.81,60.73,37.93,13.94-3.22,38.41,33.68,73.42,110.71,7.6,32.89,2.58,51.37-15.06,55.44-12.63,2.92-17.49,10.69-14.57,23.33l-36.99,12.68-45.74,10.57,1.74,7.51c15.25-3.52,23.45-2.78,24.6,2.23,2.32,10.02-4.15,16.79-19.4,20.31l.91,3.92,39.13-4.91c28.97-6.69,48.66-19.27,59.07-37.74l7.51-1.74c-1.76-7.62-.14-12.01,4.87-13.17l3.92-.91,6.11,26.46c1.46,6.32-1.91,20.52-10.12,42.6,9.01,38.99-20.43,84.33-88.33,136.04-13.94,3.22-33.01,13.02-57.22,29.39l-3.92,.91-4.38-18.95c20.58-26.09,30-42.95,28.23-50.57l1.77-44.46-6.11-26.46-17.18-40.08-1.74-7.51,11.43-2.64-.91-3.92c-12.88,1.83-20.06-.41-21.51-6.73l-2.64-11.43c-1.58-35.65,2.86-56.64,13.33-62.96l12.26,.95,21.71-8.8-4.5-3.09-.91-3.92c-3.47-15.03,3.61-24.58,21.25-28.66l-.91-3.92-60.76,14.04,1.74,7.51,4.83,3.01,.91,3.92-3.09,4.5-3.59,.83c-14.01-13.97-22.05-25.42-24.11-34.35l-2.65-47.22c-5.08-4.1-13.87-24.78-26.38-62.04l-28.08-17.26-1.74-7.51,50.61-23.74Zm-101,99.05l7.51-1.74,13.13,56.84c-3.55,7.47-4.42,21.1-2.6,40.87l18.01,43.67-2.31,24.28,9.33,6.1,24.04,138.29,59.37,49.95c.42,18.71-2.52,28.8-8.84,30.26-102.49-5.69-158.99-31.29-169.51-76.81l-4.83-3.01-.83-3.59,8.79-14.08-.91-3.92c-20.26,4.68-37.39-5.93-51.4-31.83l-13.75-8.87-1.74-7.51c5.04-11.95,6.1-24.24,3.18-36.87l-11.44-33.15c3.25-8.78,3.7-35.61,1.36-80.5,40.44-14.62,65.28-28.27,74.5-40.96,27.66-6.39,40.03-15.9,37.11-28.53,10.24-2.37,14.17-8.67,11.81-18.9h0Zm250.17,409.53c6.14,14.64,14.32,20.78,24.56,18.41,28.26-15.71,41.94-25.52,41.03-29.44l46.32-6.57,14.45-7.47,4.5,3.09,3.92-.91,14.12-7.39,10.16,9.7,6.11,26.46-2.69,4.75,.83,3.59-23.7,1.69-29.55,10.61-24.28-2.31-18.95,4.38-21.13,12.8-15.86-.12-14.52,7.14-81.45,10.9-36.16,16.27-19.78,.78-79.71,18.42c-12.63,2.92-18.37,6.88-17.21,11.89l-54.66,4.71-22.87,5.28-9.25-5.78-4.38-18.95,26.83-22.37,15.03-3.47,31.29-3.1,29.48-10.94,4.83,3.01,.83,3.59-8.79,14.08c4.76,9.68,12.26,13.34,22.5,10.98,4.03-22.27,29.46-38.81,76.29-49.63l3.01-4.83,3.59-.83,9.58,5.7,26.46-6.11,9.7-10.16,19.85-.46,39.68-17.43Z"/><path id="path884" class="cls-1" d="M4038.21,96.03l28.2,1.4,3.01-4.83,3.59-.83c15.88,.23,24.28,2.31,25.18,6.23l73.73-24.95,23.7-1.69,29.23-10.54,34.81-4.26,33.15-11.44,15.86,.12,17.21-11.89c16.79,4.15,32.7,4.49,47.73,1.02l20.81-12.72,23.7-1.69,4.95-12.84c27.66-6.39,42.65-4.58,44.96,5.44l-1.35,12.01,3.92-.91,21.71-8.8,4.42,2.76,3.47,15.03-5.7,9.58-24.35-2.63-43.27,18.26-20.76-3.46-35.25,20.19-93.14,9.47-62.22,22.64-7.51,1.74-46.9,2.58-36.08,16.6-19.85,.46-17.72,8.22-34.88,3.93-21.64,9.13-4.83-3.01-6.11-26.46c-1.16-5.01,3.27-8.67,13.29-10.99-1.71-7.41-.06-11.69,4.95-12.84h0Zm37.09,90.54l11.11-2.57,48.88,4.54,4.95-12.84c82.98-19.17,127.67-14.93,134.06,12.73,2.01,8.71,18.01,20.85,47.99,36.4l67.61,103.45c59.62,40.6,92.2,72.87,97.74,96.83l-2.76,4.42,7.97,18.12,6.11,26.46c9.94,8.26,16.64,19.9,20.11,34.93,5,38.53,.54,59.41-13.4,62.63l-7.51,1.74c1.76,7.62,.14,12.01-4.87,13.17-46.06,1.24-76.64-5.01-91.74-18.72l-1.74-7.51,7.51-1.74-1.74-7.51-7.51,1.74,1.74,7.51-19.33-15.15,2.69-4.75-.83-3.59c-5.01,1.16-11.78-5.31-20.31-19.4-13.64-7.4-26.24-21.7-37.78-42.89-15.18-3.15-39.96-30.46-74.34-81.93,12.63-2.92,17.79-9.39,15.48-19.41,24.74-7.09,34.93-20.11,30.55-39.06l-2.57-11.11-12.34-1.28c-7.4,1.71-9.65,8.88-6.73,21.51l-51.19,19.74c-32.59-26.88-59.86-59.01-81.81-96.38-44.59-32.14-74.68-47.67-90.26-46.59l-2.64-11.43c19.95-5.99,28.92-13.34,26.91-22.05h0Zm310.79-63.89c11.18,2.69,25.58,2,43.23-2.07l5.78-9.25,7.51-1.74c19.55-1.76,30.73,.93,33.53,8.08l2.64,11.43c-27.44,30.2-39.69,51.61-36.78,64.25l7.77,33.65,9.2,21.96c6.94,69.75,7.25,105.35,.93,106.81-14.95-7.1-23.88-16.97-26.8-29.6l-1.17-39.31-22.76-46.36,1.73-28.27-28.98-21.18c-6.39-27.66-14.6-40.33-24.61-38.02l-4.42-2.76-2.64-11.43,7.51-1.74,28.32-14.46Zm-248.38,180.59c27.5,26.68,44.02,52,49.56,75.96l7.4,49.91,22.76,46.36,5.1,74.19c10.54,10.87,17.55,23.82,21.02,38.85l11.11-2.57c13.94-3.22,23.92-.25,29.93,8.91l2.64,11.43c2.92,12.63,.95,21-5.9,25.11l-72.7,13.01-10.28,6.16c-25.82,3.44-39.61,1.35-41.37-6.27-1.16-5.01,3.27-8.67,13.29-10.99,3.4-14.09,9.28-23.37,17.66-27.83l-4.83-3.01-.83-3.59c-4-40.14-1.29-68.64,8.12-85.5l.12-15.86-42.55-81.37-9.59-41.49,18.95-4.38-.91-3.92c-10.02,2.31-15.61,.97-16.76-4.04l-2.64-11.43,4.95-12.84-.91-3.92-10.08-9.37-1.74-7.51,8.47-14Zm157.88-4.82l3.47,15.03,3.92-.91-3.47-15.03-3.92,.91Zm65.71,163.77l.83,3.59,22.42,10.65,9.37-10.08,79.39-18.34-1.74-7.51-4.75-2.69-.91-3.92-36.66,12.6-3.92,.91-9.25-5.78c-1.46-6.32,2.67-11.28,12.39-14.91l-.91-3.92-27.29,2.52c-7.41,1.71-15.96,10.34-25.68,25.89-10.02,2.31-14.45,5.98-13.29,10.99h0Zm-200.86,247.73l3.59-.83,14.08,8.79,2.69-4.75,58.33-5.22c-1.76-7.62,10.89-15.94,37.94-24.94l6.56,10.53,3.92-.91,9.37-10.08,15.03-3.47c25.26-5.84,38.48-6.25,39.63-1.24l84.84-27.52,4.75,2.69,.91,3.92c1.76,7.62-3.67,12.89-16.31,15.81l3.47,15.03,26.46-6.11,35.38-36.05,26.46-6.11,50.86-19.67,29.1,5.32,33.07-11.77,4.5,3.09,6.04,26.14-2.69,4.75,.83,3.59-27.29,2.52-43.35,17.93c-44.06,4.9-106.28,16.64-186.64,35.21l-26.46,6.11-14.2,7.07-4.42-2.76-3.92,.91-3.09,4.5-3.59,.83-24.28-2.31c-9.08,7.37-22.33,13.07-39.75,17.1l-23.7,1.69-21.71,8.8-4.42-2.76-3.92,.91-14.2,7.07-7.51,1.74c-17.64,4.08-29.66-7.72-36.05-35.38l9.7-10.16Z"/><path id="path860-9" class="cls-1" d="M2516.75,448.82l30.06-6.94c7.4-1.71,12.54,3.64,15.41,16.06l3.09-4.5,18.62-4.3,12.84,4.95,3.92-.91-.91-3.92-6.49-10.2,9.7-10.16c19.82-4.58,30.89-1.86,33.2,8.16l23.49-17.47,20.36,3.21,25.63-9.71,41.67-5.84c41.16-9.51,65.25-18.98,72.25-28.39l7.51-1.74,15.86,.12,10.28-6.16c4.63,20.04,18.16,27.46,40.59,22.28l9.17,5.45c1.41,6.1-8.93,12.5-31.01,19.21l-20.36-3.21c-14.63,5.21-21.56,9.46-20.81,12.72l-38.15,4.68-56.19,12.98-60.62,10.22-10.28,6.16-34.48,4.18-10.6,6.24-15.53-.2-32.82,11.37-23.37,1.61-47.85,14.84-11.11,2.57c-18.29,4.23-29.17,2.84-32.62-4.16l-3.47-15.03c-1.36-5.88,7.8-11.9,27.49-18.05l30.89-3.35c-1.71-7.4-.17-11.66,4.62-12.77h0Zm141.31,616.04l4.83,3.01,25.23-9.96c24.98-5.08,37.97-5.45,38.98-1.09l69.48-23.97,29.73-6.87-30.3,38.66-56.19,12.98,4.75,2.69,2.64,11.43-18.12,7.97-68.71,7.96-54.46,20.5-10.08-9.37c-4.03-17.42,1.48-27.87,16.5-31.34l2.69-4.75-.83-3.59,26.97-2.44,7.51-1.74,9.37-10.08Zm265.6-61.37l29.73-6.87,9.25,5.78,4.3,18.62,26.14-6.04c12.85-2.97,23.66-13.27,32.44-30.9l3.59-.83,9.25,5.78,5.13,22.22c1.01,4.36-14.06,13.11-45.2,26.27l-109.87,17.47-14.12,7.39-49.58,7.33-3.59,.83-9.25-5.78c3.85-6.17,19.11-13.59,45.78-22.28-1.36-5.88,7.5-13.2,26.58-21.97l23.45-1.29,3.59-.83,12.39-14.91Z"/></g></g></svg>