<?xml version="1.0" encoding="UTF-8"?><svg id="Layer_1" xmlns="http://www.w3.org/2000/svg" viewBox="0 0 91.5 91"><defs><style>.cls-1{fill:#e7a552;}.cls-2{fill:#fff;}.cls-3{fill:#388bf0;}</style></defs><rect id="bg" class="cls-3" width="91.5" height="91"/><path class="cls-2" d="M46.4,32.6c-23.1,0-41.9,2.4-41.9,5.4,0,.5,.4,.9,1.2,1.3,.6-2.8,18.6-5.1,40.6-5.1s40,2.3,40.6,5.1c.8-.4,1.2-.9,1.2-1.3,.1-3-18.6-5.4-41.7-5.4Z"/><path class="cls-2" d="M46.4,35.9c-20.6,0-37.2,2-37.2,4.4,0,.8,1.9,1.6,5.1,2.2,1.1-.2,2.7-.3,4.4-.3,3.4,0,6.1,.5,6.1,1.1,0,.2-.3,.4-.8,.5,6.2,.5,14,.9,22.4,.9s15.5-.3,21.6-.8c-.6-.2-1-.4-1-.6,0-.6,2.7-1.1,6.1-1.1,2,0,3.8,.2,4.9,.4,3.6-.7,5.6-1.5,5.6-2.3,0-2.4-16.7-4.4-37.2-4.4h0Zm0,1.1c2.3,0,4.2,.3,4.2,.8s-1.9,.8-4.2,.8-4.2-.3-4.2-.8,1.9-.8,4.2-.8Zm-23.9,1.9c0-.5,2.4-1,5.3-1s5.3,.4,5.3,1-2.4,1-5.3,1-5.3-.4-5.3-1Zm23.9,5.2c-10.3,0-18.6-1-18.6-2.2s8.3-2.2,18.6-2.2,18.6,1,18.6,2.2-8.3,2.2-18.6,2.2Zm18.5-4.2c-2.9,0-5.3-.4-5.3-1s2.4-1,5.3-1,5.3,.4,5.3,1-2.4,1-5.3,1Z"/><path class="cls-2" d="M46.4,16.6c-9.5,0-17.3,6.7-17.6,15.1,3.7-.6,10.2-1,17.6-1s13.9,.4,17.6,1c-.4-8.3-8.1-15.1-17.6-15.1Zm-8.3,4c-1.4,1.5-2,3.5-1.8,5.5,.1,1.3,.7,2.6,1.5,3.6-2.8,.1-5.4,.3-7.5,.6,.5-3.2,2.2-6.1,4.8-8.3,1.5-1.2,3.1-2.2,4.9-2.9-.7,.4-1.3,.9-1.9,1.5h0Z"/><path class="cls-2" d="M46.4,47.7c-8.4,0-15.2,.8-15.2,1.8s6.8,1.8,15.2,1.8,15.2-.8,15.2-1.8-6.8-1.8-15.2-1.8Zm0,3.4c-7,0-12.6-.6-12.6-1.4s5.6-1.4,12.6-1.4,12.6,.7,12.6,1.4-5.7,1.4-12.6,1.4Z"/><rect class="cls-3" x="42.49" y="50.91" width="2.1" height=".4" transform="translate(-12.82 14.63) rotate(-16.66)"/><g><polygon class="cls-1" points="39.9 56.9 39.9 56.9 39.9 60.4 37.5 59.3 37.5 55.9 37.5 55.9 37.5 55.9 33.7 54.3 33.7 54.3 33.7 54.3 33.7 70.9 44.6 75.6 44.6 58.9 39.9 56.9"/><polygon class="cls-1" points="37.5 55.9 37.5 59.3 39.9 60.4 39.9 56.9 39.9 56.9 37.5 55.9"/><path class="cls-1" d="M44.6,58.9v16.8h0l14.5-4.7h0v-16.7l-7.4,2.3s-7.1,2.3-7.1,2.3Z"/><path class="cls-1" d="M51.9,71.7l2.5-.8v-2.5l-2.5,.8v2.5Zm1.8-1.1l-1.1,.4v-.1l1.2-.4v.1h-.1Z"/><polygon class="cls-1" points="44.6 58.9 51.7 56.6 44.6 58.8 40 56.9 39.9 56.9 39.9 56.9 44.6 58.9"/><polygon class="cls-1" points="48.1 49.9 33.7 54.3 33.7 54.3 48.1 49.9 51.7 51.5 51.8 51.4 53.7 52.2 48.1 49.9"/><polygon class="cls-1" points="54.1 52.5 59.1 54.3 59.1 54.3 54.4 52.4 54 52.5 54.1 52.5"/><polygon class="cls-1" points="59.1 54.3 59.1 54.3 54.1 52.5 54 52.5 39.9 56.9 40 56.9 44.6 58.8 51.7 56.6 59.1 54.3 59.1 54.3"/><path class="cls-1" d="M48.1,49.9l-14.4,4.4h0l3.8,1.6h0l14.2-4.4-3.6-1.6h0Z"/><path class="cls-1" d="M53.7,52.2l-1.9-.8-.2,.1-14.2,4.4h0l2.4,1h0l14.2-4.4,.3-.1h0l-.6-.2h0Z"/><path class="cls-1" d="M51.7,71.9l2.8-.9v-2.8m-.1,2.7l-2.5,.8"/></g><path class="cls-3" d="M46.4,60.4c-4.7,0-9.2,.1-13.1,.4v1.2c3.8-.3,8.3-.4,13.1-.4s9.5,.2,13.3,.4v-1.3c-4-.2-8.5-.3-13.3-.3h0Z"/><path class="cls-3" d="M46.8,58c-4.7,0-9.2,.1-13.1,.4v1.3c3.8-.3,8.3-.4,13.1-.4s9.5,.2,13.3,.4v-1.3c-4-.3-8.5-.4-13.3-.4h0Z"/><path class="cls-2" d="M25,55.15c0,.82,3.2,1.54,8.2,2.05v-.31c-2.8-.31-4.5-.82-4.5-1.33s1.9-1.03,4.9-1.33v-1.03c-5.2,.41-8.5,1.13-8.6,1.95h0Z"/><path class="cls-3" d="M59.6,53.9c-3.6-.3-8.2-.5-13.2-.5s-9.2,.2-12.8,.5v1c3.2-.4,7.7-.6,12.8-.6s10,.3,13.2,.7v-1.1Z"/><path class="cls-3" d="M59.6,52.6c-3.6-.3-8.2-.5-13.2-.5s-9.2,.2-12.8,.5v1c3.2-.4,7.7-.6,12.8-.6s10,.3,13.2,.7v-1.1Z"/><path class="cls-2" d="M59.6,53.2c-3.6-.3-8.2-.5-13.2-.5s-9.2,.2-12.8,.5v1c3.2-.4,7.7-.6,12.8-.6s10,.3,13.2,.7v-1.1Z"/><path class="cls-2" d="M59.6,53.2v1.11c2.7,.33,4.3,.89,4.3,1.44s-1.6,1-4.3,1.44v.33c4.9-.55,8.1-1.33,8.1-2.21s-3.2-1.55-8.1-2.1h0Z"/><path class="cls-2" d="M75.7,62.7c0-1.3-6.66-2.5-16.24-3.1v1.4c6.66,.5,11.1,1.3,11.1,2.2s-4.44,1.8-11.1,2.2v.4c9.68-.6,16.24-1.7,16.24-3.1Z"/><path class="cls-2" d="M33.3,61.01v-1.41c-9.7,.54-16.3,1.84-16.3,3.25,0,1.52,6.3,2.71,15.6,3.25v-.43c-6.3-.54-10.5-1.41-10.5-2.38s4.5-1.84,11.2-2.27h0Z"/><path class="cls-2" d="M59.6,59.59c-3.98-.33-8.47-.43-13.25-.43h0c-4.68,0-9.17,.11-13.05,.43v1.41c3.79-.33,8.27-.43,13.05-.43s9.46,.22,13.25,.43"/></svg>